<svg width="64" height="64" xmlns="http://www.w3.org/2000/svg" xmlns:xlink="http://www.w3.org/1999/xlink">
  <defs/>
  <g>
    <path stroke="none" fill="#FFFFFF" d="M61.95 0 L64 0 64 2.05 61.95 0 M64 10.5 L64 18.3 57.7 12 61.6 8.1 64 10.5 M64 26.45 L64 34.6 29.4 0 37.55 0 64 26.45 M64 42.4 L64 50.7 57.65 44.35 61.8 40.2 64 42.4 M64 59.1 L64 64 61.75 64 49.9 52.15 45.8 56.2 53.6 64 45.85 64 37.9 56.35 46 48.25 17.7 19.95 17.5 20.2 13.5 24.1 10.6 27.05 10.05 27.55 9.6 28.05 0 18.3 0 10.5 9.65 20.05 13.7 15.95 0 2.05 0 0 4.9 0 33.45 28.5 35.45 26.5 37.6 24.3 38.05 23.85 41.75 20.15 57.95 36.35 53.8 40.5 41.5 28.2 37.35 32.4 64 59.1 M37.55 64 L29.35 64 17.65 52.35 13.75 56.15 13.55 56.35 13.25 56.65 13.1 56.85 9.6 60.25 9.55 60.3 0 50.75 0 42.4 9.8 52.2 13.6 48.3 9.95 44.65 1.5 36.15 0 34.65 0 26.45 37.55 64 M21.6 64 L13.35 64 17.5 59.9 21.6 64 M4.9 64 L0 64 0 59.1 2.45 61.6 4.9 64 M13.3 0 L21.6 0 37.55 15.95 36.3 17.25 34.75 18.85 33.45 20.15 13.3 0 M45.7 0 L53.5 0 57.6 4.1 56.2 5.5 53.7 8 52 6.3 51.25 5.55 45.7 0 M13.85 32.3 L17.65 28.5 32.65 43.55 37.3 48.3 33.6 52.05 13.85 32.3"/>
    <path stroke="none" fill="#000000" d="M13.85 32.3 L33.6 52.05 37.3 48.3 32.65 43.55 17.65 28.5 13.85 32.3 M64 2.05 L64 10.5 61.6 8.1 57.7 12 64 18.3 64 26.45 37.55 0 45.7 0 51.25 5.55 52 6.3 53.7 8 56.2 5.5 57.6 4.1 53.5 0 61.95 0 64 2.05 M64 34.6 L64 42.4 61.8 40.2 57.65 44.35 64 50.7 64 59.1 37.35 32.4 41.5 28.2 53.8 40.5 57.95 36.35 41.75 20.15 38.05 23.85 37.6 24.3 35.45 26.5 33.45 28.5 4.9 0 13.3 0 33.45 20.15 34.75 18.85 36.3 17.25 37.55 15.95 21.6 0 29.4 0 64 34.6 M61.75 64 L53.6 64 45.8 56.2 49.9 52.15 61.75 64 M45.85 64 L37.55 64 0 26.45 0 18.3 9.6 28.05 10.6 27.05 17.5 20.2 17.7 19.95 46 48.25 37.9 56.35 45.85 64 M29.35 64 L21.6 64 17.5 59.9 13.35 64 4.9 64 2.45 61.6 0 59.1 0 50.75 9.55 60.3 9.6 60.25 13.1 56.85 13.25 56.65 13.55 56.35 13.75 56.15 17.65 52.35 29.35 64 M0 42.4 L0 34.65 1.5 36.15 9.95 44.65 13.6 48.3 9.8 52.2 0 42.4 M0 10.5 L0 2.05 13.7 15.95 9.65 20.05 0 10.5"/>
  </g>
</svg>