<svg width="64" height="64" xmlns="http://www.w3.org/2000/svg" xmlns:xlink="http://www.w3.org/1999/xlink">
  <defs/>
  <g>
    <path stroke="none" fill="#000000" d="M55 0 L55 5.1 58.9 9 64 9 64 13 57.25 13 51 6.75 51 0 55 0 M21.9 13.9 L13.9 21.9 Q13 22.75 13 24 L13 40 Q13 41.25 13.9 42.15 L21.9 50.15 Q22.75 51 24 51 L40 51 Q41.25 51 42.15 50.15 L50.15 42.15 Q51 41.25 51 40 L51 24 Q51 22.75 50.15 21.9 L42.15 13.9 Q41.25 13 40 13 L24 13 Q22.75 13 21.9 13.9 M25.25 19 L38.75 19 45 25.25 45 38.75 38.75 45 25.25 45 19 38.75 19 25.25 25.25 19 M45 0 L45 8 Q45 9.25 45.9 10.15 L53.9 18.15 Q54.75 19 56 19 L64 19 64 45 56 45 54.85 45.25 Q54.3 45.45 53.9 45.9 L45.9 53.9 Q45.45 54.3 45.25 54.85 L45 56 45 64 19 64 19 55.95 Q18.95 54.75 18.15 53.9 L10.15 45.9 Q9.25 45 8 45 L0 45 0 19 8 19 9.15 18.8 10.15 18.15 18.15 10.15 18.8 9.15 19 8 19 0 45 0 M41 26.9 L37.1 23 26.9 23 23 26.9 23 37.1 26.9 41 37.1 41 41 37.1 41 26.9 M51 64 L51 57.25 57.25 51 64 51 64 55 58.9 55 55 58.9 55 64 51 64 M13 0 L13 6.75 6.75 13 0 13 0 9 5.1 9 9 5.1 9 0 13 0 M0 51 L6.75 51 13 57.25 13 64 9 64 9 58.9 5.1 55 0 55 0 51"/>
    <path stroke="none" fill="#FFFFFF" d="M0 51 L0 45 8 45 Q9.25 45 10.15 45.9 L18.15 53.9 Q18.95 54.75 19 55.95 L19 64 13 64 13 57.25 6.75 51 0 51 M64 9 L58.9 9 55 5.1 55 0 64 0 64 9 M51 0 L51 6.75 57.25 13 64 13 64 19 56 19 Q54.75 19 53.9 18.15 L45.9 10.15 Q45 9.25 45 8 L45 0 51 0 M25.25 19 L19 25.25 19 38.75 25.25 45 38.75 45 45 38.75 45 25.25 38.75 19 25.25 19 M21.9 13.9 Q22.75 13 24 13 L40 13 Q41.25 13 42.15 13.9 L50.15 21.9 Q51 22.75 51 24 L51 40 Q51 41.25 50.15 42.15 L42.15 50.15 Q41.25 51 40 51 L24 51 Q22.75 51 21.9 50.15 L13.9 42.15 Q13 41.25 13 40 L13 24 Q13 22.75 13.9 21.9 L21.9 13.9 M41 26.9 L41 37.1 37.1 41 26.9 41 23 37.1 23 26.9 26.9 23 37.1 23 41 26.9 M45 64 L45 56 45.25 54.85 Q45.45 54.3 45.9 53.9 L53.9 45.9 Q54.3 45.45 54.85 45.25 L56 45 64 45 64 51 57.25 51 51 57.25 51 64 45 64 M55 64 L55 58.9 58.9 55 64 55 64 64 55 64 M0 13 L6.75 13 13 6.75 13 0 19 0 19 8 18.8 9.15 18.15 10.15 10.15 18.15 9.15 18.8 8 19 0 19 0 13 M9 0 L9 5.1 5.1 9 0 9 0 0 9 0 M0 55 L5.1 55 9 58.9 9 64 0 64 0 55"/>
  </g>
</svg>