<svg width="64" height="64" xmlns="http://www.w3.org/2000/svg" xmlns:xlink="http://www.w3.org/1999/xlink">
  <defs/>
  <g>
    <path stroke="none" fill="#000000" d="M0 1 L0 0 64 0 64 1 49 1 49 15 64 15 64 33 49 33 49 47 64 47 64 64 0 64 0 47 15 47 15 33 0 33 0 15 15 15 15 1 0 1 M31 49 L1 49 1 63 31 63 31 49 M31 17 L1 17 1 31 31 31 31 17 M63 49 L33 49 33 63 63 63 63 49 M17 33 L17 47 47 47 47 33 17 33 M17 1 L17 15 47 15 47 1 17 1 M63 17 L33 17 33 31 63 31 63 17"/>
    <path stroke="none" fill="#FFFFFF" d="M63 17 L63 31 33 31 33 17 63 17 M64 1 L64 15 49 15 49 1 64 1 M64 33 L64 47 49 47 49 33 64 33 M0 47 L0 33 15 33 15 47 0 47 M0 15 L0 1 15 1 15 15 0 15 M17 1 L47 1 47 15 17 15 17 1 M17 33 L47 33 47 47 17 47 17 33 M63 49 L63 63 33 63 33 49 63 49 M31 17 L31 31 1 31 1 17 31 17 M31 49 L31 63 1 63 1 49 31 49"/>
  </g>
</svg>