<svg width="64" height="64" xmlns="http://www.w3.org/2000/svg" xmlns:xlink="http://www.w3.org/1999/xlink">
  <defs/>
  <g>
    <path stroke="none" fill="#000000" d="M53.15 0 L64 0 64 2.3 51.8 8.6 53.15 0 M64 22.45 L64 32 55.05 19.7 64 22.45 M64 64 L53.2 64 54.55 50.9 64 64 M13.8 64 L0 64 8.55 57.35 13.8 64 M0 32 L0 22.55 8.8 25.35 0 32 M0 2.3 L0 0 13.8 0 20 8.7 32 0 51.8 8.6 33.25 13.7 20 8.7 0 2.3 M32.75 34.1 L33.3 45.7 51.8 40.6 40.7 57.25 33.3 45.7 20 40.6 32.75 34.1 23.05 19.7 40.7 25.35 32.75 34.1 M20 40.6 L8.55 57.35 0 46.4 20 40.6"/>
    <path stroke="none" fill="#3F3F3F" d="M20 40.6 L0 46.4 0 32 20 40.6 M64 32 L64 46.55 51.8 40.6 64 32 M45.55 64 L32 64 40.7 57.25 45.55 64 M21.15 64 L13.8 64 8.55 57.35 23.05 51.55 21.15 64 M13.8 0 L21.15 0 20 8.7 13.8 0 M32 0 L45.6 0 51.8 8.6 32 0 M33.25 13.7 L51.8 8.6 40.7 25.35 33.25 13.7 M32.75 34.1 L51.8 40.6 33.3 45.7 32.75 34.1 M8.8 25.35 L0 13.1 20 8.7 8.8 25.35"/>
    <path stroke="none" fill="#CCCCCC" d="M8.8 25.35 L20 40.6 23.05 19.7 32.75 34.1 20 40.6 23.05 51.55 32 64 21.15 64 23.05 51.55 8.55 57.35 20 40.6 0 32 8.8 25.35 M64 2.3 L64 12.95 51.8 8.6 55.05 19.7 64 32 51.8 40.6 64 46.55 54.55 50.9 40.7 57.25 51.8 40.6 55.05 19.7 40.7 25.35 51.8 8.6 64 2.3 M0 13.1 L0 2.3 20 8.7 21.15 0 32 0 20 8.7 0 13.1"/>
    <path stroke="none" fill="#999999" d="M64 46.55 L64 54.6 54.55 50.9 64 46.55 M0 54.6 L0 46.4 8.55 57.35 0 54.6 M33.25 13.7 L40.7 25.35 55.05 19.7 51.8 40.6 40.7 25.35 23.05 19.7 33.25 13.7 M64 12.95 L55.05 19.7 51.8 8.6 64 12.95 M40.7 57.25 L32 64 23.05 51.55 40.7 57.25 M23.05 51.55 L20 40.6 33.3 45.7 23.05 51.55 M20 8.7 L23.05 19.7 8.8 25.35 20 8.7"/>
    <path stroke="none" fill="#FFFFFF" d="M20 8.7 L33.25 13.7 23.05 19.7 20 8.7 M64 12.95 L64 22.45 55.05 19.7 64 12.95 M64 54.6 L64 64 54.55 50.9 64 54.6 M53.2 64 L45.55 64 40.7 57.25 54.55 50.9 53.2 64 M0 64 L0 54.6 8.55 57.35 0 64 M0 22.55 L0 13.1 8.8 25.35 23.05 19.7 20 40.6 8.8 25.35 0 22.55 M45.6 0 L53.15 0 51.8 8.6 45.6 0 M51.8 40.6 L32.75 34.1 40.7 25.35 51.8 40.6 M40.7 57.25 L23.05 51.55 33.3 45.7 40.7 57.25"/>
  </g>
</svg>