<svg width="64" height="64" xmlns="http://www.w3.org/2000/svg" xmlns:xlink="http://www.w3.org/1999/xlink">
  <defs/>
  <g>
    <path stroke="none" fill="#FFFFFF" d="M59.1 0 L64 0 64 11.6 Q59.85 17.1 51.8 19.6 L51.8 19.65 Q41.6 22.15 37.15 32 L35.75 35.65 Q34.9 38.9 33.4 41.5 L32 43.6 Q27.85 49.1 19.8 51.6 L19.8 51.65 Q9.6 54.15 5.15 64 L0 64 0 52.65 Q4.45 46.25 12.35 44.3 L12.3 44.3 Q21.9 41.35 26.05 34.1 L27.1 32 28.4 28.25 Q29.75 23.9 32 20.65 36.45 14.25 44.35 12.3 L44.3 12.3 Q53.9 9.35 58.05 2.1 L59.1 0 M64 20.65 L64 43.6 Q59.85 49.1 51.8 51.6 L51.8 51.65 Q41.6 54.15 37.15 64 L27.1 64 28.4 60.25 Q29.75 55.9 32 52.65 36.45 46.25 44.35 44.3 L44.3 44.3 Q53.9 41.35 58.05 34.1 L59.1 32 60.4 28.25 Q61.75 23.9 64 20.65 M64 52.65 L64 64 59.1 64 60.4 60.25 Q61.75 55.9 64 52.65 M0 43.6 L0 20.65 Q4.45 14.25 12.35 12.3 L12.3 12.3 Q21.9 9.35 26.05 2.1 L27.1 0 37.15 0 35.75 3.65 Q34.9 6.9 33.4 9.5 L32 11.6 Q27.85 17.1 19.8 19.6 L19.8 19.65 Q9.6 22.15 5.15 32 4.35 33.75 3.75 35.65 2.9 38.9 1.4 41.5 L0 43.6 M0 11.6 L0 0 5.15 0 Q4.35 1.75 3.75 3.65 2.9 6.9 1.4 9.5 L0 11.6"/>
    <path stroke="none" fill="#000000" d="M0 11.6 L1.4 9.5 Q2.9 6.9 3.75 3.65 4.35 1.75 5.15 0 L27.1 0 26.05 2.1 Q21.9 9.35 12.3 12.3 L12.35 12.3 Q4.45 14.25 0 20.65 L0 11.6 M64 11.6 L64 20.65 Q61.75 23.9 60.4 28.25 L59.1 32 58.05 34.1 Q53.9 41.35 44.3 44.3 L44.35 44.3 Q36.45 46.25 32 52.65 29.75 55.9 28.4 60.25 L27.1 64 5.15 64 Q9.6 54.15 19.8 51.65 L19.8 51.6 Q27.85 49.1 32 43.6 L33.4 41.5 Q34.9 38.9 35.75 35.65 L37.15 32 Q41.6 22.15 51.8 19.65 L51.8 19.6 Q59.85 17.1 64 11.6 M64 43.6 L64 52.65 Q61.75 55.9 60.4 60.25 L59.1 64 37.15 64 Q41.6 54.15 51.8 51.65 L51.8 51.6 Q59.85 49.1 64 43.6 M0 52.65 L0 43.6 1.4 41.5 Q2.9 38.9 3.75 35.65 4.35 33.75 5.15 32 9.6 22.15 19.8 19.65 L19.8 19.6 Q27.85 17.1 32 11.6 L33.4 9.5 Q34.9 6.9 35.75 3.65 L37.15 0 59.1 0 58.05 2.1 Q53.9 9.35 44.3 12.3 L44.35 12.3 Q36.45 14.25 32 20.65 29.75 23.9 28.4 28.25 L27.1 32 26.05 34.1 Q21.9 41.35 12.3 44.3 L12.35 44.3 Q4.45 46.25 0 52.65"/>
  </g>
</svg>