<svg width="64" height="64" xmlns="http://www.w3.org/2000/svg" xmlns:xlink="http://www.w3.org/1999/xlink">
  <defs/>
  <g>
    <path stroke="none" fill="#000000" d="M55 33 L47 41 55 49 63 41 55 33 M41 47 L33 55 41 63 49 55 41 47 M55 1 L47 9 55 17 63 9 55 1 M41 15 L33 23 41 31 49 23 41 15 M0 0 L64 0 64 64 0 64 0 0 M23 33 L15 41 23 49 31 41 23 33 M9 47 L1 55 9 63 17 55 9 47 M23 1 L15 9 23 17 31 9 23 1 M9 15 L1 23 9 31 17 23 9 15"/>
    <path stroke="none" fill="#FFFFFF" d="M9 15 L17 23 9 31 1 23 9 15 M41 15 L49 23 41 31 33 23 41 15 M55 1 L63 9 55 17 47 9 55 1 M41 47 L49 55 41 63 33 55 41 47 M55 33 L63 41 55 49 47 41 55 33 M23 1 L31 9 23 17 15 9 23 1 M9 47 L17 55 9 63 1 55 9 47 M23 33 L31 41 23 49 15 41 23 33"/>
  </g>
</svg>