<svg width="64" height="64" xmlns="http://www.w3.org/2000/svg" xmlns:xlink="http://www.w3.org/1999/xlink">
  <defs/>
  <g>
    <path stroke="none" fill="#000000" d="M56.4 0 L54.8 4.1 64 7.65 64 14 59 12.65 55.25 26.35 64 28.7 64 35.35 55.65 37 58.4 50.9 64 49.8 64 56.45 59.95 54.85 56.4 64 50.4 64 46.5 54.6 33.35 60.1 35 64 28.45 64 26.85 55.65 12.95 58.3 14.05 64 7.6 64 9.15 60.05 0 56.45 0 49.8 8.3 48.15 5.5 34.25 0 35.35 0 28.7 4.95 30.05 8.65 16.35 0 14 0 7.65 4 9.25 7.6 0 14.05 0 15.6 8.2 29.5 5.55 28.45 0 35 0 38.8 9.2 51.95 3.75 50.35 0 56.4 0 M33 24.25 L45.55 30.85 52.2 18.25 39.6 11.65 33 24.25 M33.4 46.55 L46.55 51.85 51.85 38.65 38.65 33.4 33.4 46.55 M27.05 50.8 L29.35 36.85 15.35 34.5 13.05 48.5 27.05 50.8 M18.5 31 L30.85 24.05 23.9 11.7 11.55 18.65 18.5 31"/>
    <path stroke="none" fill="#FFFFFF" d="M18.5 31 L11.55 18.65 23.9 11.7 30.85 24.05 18.5 31 M64 7.65 L54.8 4.1 56.4 0 64 0 64 7.65 M50.35 0 L51.95 3.75 38.8 9.2 35 0 50.35 0 M28.45 0 L29.5 5.55 15.6 8.2 14.05 0 28.45 0 M7.6 0 L4 9.25 0 7.65 0 0 7.6 0 M0 14 L8.65 16.35 4.95 30.05 0 28.7 0 14 M0 35.35 L5.5 34.25 8.3 48.15 0 49.8 0 35.35 M0 56.45 L9.15 60.05 7.6 64 0 64 0 56.45 M14.05 64 L12.95 58.3 26.85 55.65 28.45 64 14.05 64 M35 64 L33.35 60.1 46.5 54.6 50.4 64 35 64 M56.4 64 L59.95 54.85 64 56.45 64 64 56.4 64 M64 49.8 L58.4 50.9 55.65 37 64 35.35 64 49.8 M64 28.7 L55.25 26.35 59 12.65 64 14 64 28.7 M33 24.25 L39.6 11.65 52.2 18.25 45.55 30.85 33 24.25 M33.4 46.55 L38.65 33.4 51.85 38.65 46.55 51.85 33.4 46.55 M27.05 50.8 L13.05 48.5 15.35 34.5 29.35 36.85 27.05 50.8"/>
  </g>
</svg>