<svg width="64" height="64" xmlns="http://www.w3.org/2000/svg" xmlns:xlink="http://www.w3.org/1999/xlink">
  <defs/>
  <g>
    <path stroke="none" fill="#000000" d="M59 54.95 Q59 53.3 57.85 52.1 56.65 50.95 55 50.95 53.35 50.95 52.15 52.1 51 53.3 51 54.95 51 56.6 52.15 57.8 53.35 58.95 55 58.95 56.65 58.95 57.85 57.8 59 56.6 59 54.95 M59 8.95 Q59 7.3 57.85 6.1 56.65 4.95 55 4.95 53.35 4.95 52.15 6.1 51 7.3 51 8.95 51 10.6 52.15 11.8 53.35 12.95 55 12.95 56.65 12.95 57.85 11.8 59 10.6 59 8.95 M0 64 L0 -0.05 64 -0.05 64 64 60.5 64 0 64 M13 54.95 Q13 53.3 11.85 52.1 10.65 50.95 9 50.95 7.35 50.95 6.15 52.1 5 53.3 5 54.95 5 56.6 6.15 57.8 7.35 58.95 9 58.95 10.65 58.95 11.85 57.8 13 56.6 13 54.95 M13 8.95 Q13 7.3 11.85 6.1 10.65 4.95 9 4.95 7.35 4.95 6.15 6.1 5 7.3 5 8.95 5 10.6 6.15 11.8 7.35 12.95 9 12.95 10.65 12.95 11.85 11.8 13 10.6 13 8.95"/>
    <path stroke="none" fill="#FFFFFF" d="M13 8.95 Q13 10.6 11.85 11.8 10.65 12.95 9 12.95 7.35 12.95 6.15 11.8 5 10.6 5 8.95 5 7.3 6.15 6.1 7.35 4.95 9 4.95 10.65 4.95 11.85 6.1 13 7.3 13 8.95 M59 8.95 Q59 10.6 57.85 11.8 56.65 12.95 55 12.95 53.35 12.95 52.15 11.8 51 10.6 51 8.95 51 7.3 52.15 6.1 53.35 4.95 55 4.95 56.65 4.95 57.85 6.1 59 7.3 59 8.95 M59 54.95 Q59 56.6 57.85 57.8 56.65 58.95 55 58.95 53.35 58.95 52.15 57.8 51 56.6 51 54.95 51 53.3 52.15 52.1 53.35 50.95 55 50.95 56.65 50.95 57.85 52.1 59 53.3 59 54.95 M13 54.95 Q13 56.6 11.85 57.8 10.65 58.95 9 58.95 7.35 58.95 6.15 57.8 5 56.6 5 54.95 5 53.3 6.15 52.1 7.35 50.95 9 50.95 10.65 50.95 11.85 52.1 13 53.3 13 54.95"/>
  </g>
</svg>