<svg width="64" height="64" xmlns="http://www.w3.org/2000/svg" xmlns:xlink="http://www.w3.org/1999/xlink">
  <defs/>
  <g>
    <path stroke="none" fill="#FFFFFF" d="M37.1 0 L43.05 0 42.85 1.6 Q42.25 4.7 43.45 6.55 L45.35 8.7 Q48.7 11.9 54.2 11.8 L61.6 11.4 64 11.5 64 20.05 62.8 20.6 Q60.2 21.5 59.5 22.6 59 24 59.9 26.4 62.7 33.1 60.65 40.05 L58.3 46.3 Q57.8 47.4 58.1 48.2 58.3 48.8 59.1 49 L62.1 48.3 64 47.5 64 51.7 62.1 52.5 Q56.1 54.6 50.2 53.3 47 52.6 45.8 55.2 43.65 59.55 43.05 64 L37.1 64 37.3 63.1 37.3 63 Q37.5 62.2 37 61.6 34.9 58.6 31.1 58.2 L31 58.2 29 58.6 26.2 59.1 26.1 59.1 Q23.2 59.1 22.45 59.85 21.6 60.7 21.5 63.6 L21.5 64 17.7 64 Q17.75 61.35 18.6 58.9 19.3 56.5 17.9 54.5 15.5 50.9 11.1 49.7 6.5 48.5 2.9 50.2 1.7 51.1 0 51.7 L0 47.5 Q2.4 46.7 4.3 45.3 6 44 6.4 41.2 6.9 38.6 9.5 37.4 12.4 35.6 14.4 32.9 18.4 27.9 24 24.5 28 21.8 25.4 17.6 23.3 14.7 20.3 13 18.6 11.8 16.9 13.3 L13.3 16 Q11.3 17.5 8.6 17.6 L8.5 17.6 Q4.25 17.45 2.4 18.65 L0 20.05 0 11.5 Q1 11.6 2.3 12.2 3.55 12.8 5.7 13.2 7.8 13.6 11.3 12.3 L11.2 12.3 Q14.8 10.7 16.6 8.3 18.9 5.25 18.25 3.6 17.65 1.9 17.7 0 L21.5 0 21.8 3.9 Q22.2 6.2 21.8 8.4 21.7 9.3 22.6 10.1 29.8 17.6 39.3 12.7 41.5 11.7 41.7 10.8 41.9 9.8 40 7.9 36.7 4.6 37.1 0 M25.6 27.5 Q22.2 29 19.95 31.95 17.9 34.6 15.5 36.9 13.4 38.6 13.4 40.9 13.4 43.3 14.8 45.4 16.4 47.6 18.4 49.5 20.6 51.5 22.4 54 23.9 55.7 26.6 54.7 31.5 52.2 36.85 54 L38 54.3 38.1 54.3 Q39.6 54.4 40.4 53 41.9 50.4 44.5 49.1 49 47.4 53.2 45 55.7 43.5 56.85 40.75 57.9 38.1 58.2 35.2 L58.2 35.1 Q58.4 32.3 56.8 29.6 54 25 56.1 20.1 56.9 17.4 54.2 16.4 L49 14.2 Q46 12.8 43.5 14.8 39.7 17.8 34.7 17.8 30.9 17.6 30.4 21.4 29.7 25.8 25.6 27.5"/>
    <path stroke="none" fill="#000000" d="M25.6 27.5 Q29.7 25.8 30.4 21.4 30.9 17.6 34.7 17.8 39.7 17.8 43.5 14.8 46 12.8 49 14.2 L54.2 16.4 Q56.9 17.4 56.1 20.1 54 25 56.8 29.6 58.4 32.3 58.2 35.1 L58.2 35.2 Q57.9 38.1 56.85 40.75 55.7 43.5 53.2 45 49 47.4 44.5 49.1 41.9 50.4 40.4 53 39.6 54.4 38.1 54.3 L38 54.3 36.85 54 Q31.5 52.2 26.6 54.7 23.9 55.7 22.4 54 20.6 51.5 18.4 49.5 16.4 47.6 14.8 45.4 13.4 43.3 13.4 40.9 13.4 38.6 15.5 36.9 17.9 34.6 19.95 31.95 22.2 29 25.6 27.5 M37.1 0 Q36.7 4.6 40 7.9 41.9 9.8 41.7 10.8 41.5 11.7 39.3 12.7 29.8 17.6 22.6 10.1 21.7 9.3 21.8 8.4 22.2 6.2 21.8 3.9 L21.5 0 37.1 0 M17.7 0 Q17.65 1.9 18.25 3.6 18.9 5.25 16.6 8.3 14.8 10.7 11.2 12.3 L11.3 12.3 Q7.8 13.6 5.7 13.2 3.55 12.8 2.3 12.2 1 11.6 0 11.5 L0 0 17.7 0 M0 20.05 L2.4 18.65 Q4.25 17.45 8.5 17.6 L8.6 17.6 Q11.3 17.5 13.3 16 L16.9 13.3 Q18.6 11.8 20.3 13 23.3 14.7 25.4 17.6 28 21.8 24 24.5 18.4 27.9 14.4 32.9 12.4 35.6 9.5 37.4 6.9 38.6 6.4 41.2 6 44 4.3 45.3 2.4 46.7 0 47.5 L0 20.05 M0 51.7 Q1.7 51.1 2.9 50.2 6.5 48.5 11.1 49.7 15.5 50.9 17.9 54.5 19.3 56.5 18.6 58.9 17.75 61.35 17.7 64 L0 64 0 51.7 M21.5 64 L21.5 63.6 Q21.6 60.7 22.45 59.85 23.2 59.1 26.1 59.1 L26.2 59.1 29 58.6 31 58.2 31.1 58.2 Q34.9 58.6 37 61.6 37.5 62.2 37.3 63 L37.3 63.1 37.1 64 21.5 64 M43.05 64 Q43.65 59.55 45.8 55.2 47 52.6 50.2 53.3 56.1 54.6 62.1 52.5 L64 51.7 64 64 43.05 64 M64 47.5 L62.1 48.3 59.1 49 Q58.3 48.8 58.1 48.2 57.8 47.4 58.3 46.3 L60.65 40.05 Q62.7 33.1 59.9 26.4 59 24 59.5 22.6 60.2 21.5 62.8 20.6 L64 20.05 64 47.5 M64 11.5 L61.6 11.4 54.2 11.8 Q48.7 11.9 45.35 8.7 L43.45 6.55 Q42.25 4.7 42.85 1.6 L43.05 0 64 0 64 11.5"/>
  </g>
</svg>