<svg width="64" height="64" xmlns="http://www.w3.org/2000/svg" xmlns:xlink="http://www.w3.org/1999/xlink">
  <defs/>
  <g>
    <path stroke="none" fill="#030405" d="M51.25 0 L64 0 64 12.8 51.25 0 M64 25.65 L64 44.85 51.25 32.05 57.6 32.05 31.95 6.45 31.95 12.8 19.2 0 38.4 0 64 25.65 M64 57.6 L64 64 57.6 64 31.95 38.4 31.95 44.85 19.2 32.05 25.6 32.05 0 6.45 0 0 6.4 0 31.95 25.65 31.95 19.2 44.8 32.05 38.4 32.05 64 57.6 M44.8 64 L25.6 64 0 38.4 0 19.2 12.8 32.05 6.4 32.05 31.95 57.6 31.95 51.25 44.8 64 M12.8 64 L0 64 0 51.25 12.8 64"/>
    <path stroke="none" fill="#FFFFFF" d="M12.8 64 L0 51.25 0 38.4 25.6 64 12.8 64 M51.25 0 L64 12.8 64 25.65 38.4 0 51.25 0 M64 44.85 L64 57.6 38.4 32.05 44.8 32.05 31.95 19.2 31.95 25.65 6.4 0 19.2 0 31.95 12.8 31.95 6.45 57.6 32.05 51.25 32.05 64 44.85 M57.6 64 L44.8 64 31.95 51.25 31.95 57.6 6.4 32.05 12.8 32.05 0 19.2 0 6.45 25.6 32.05 19.2 32.05 31.95 44.85 31.95 38.4 57.6 64"/>
  </g>
</svg>