<svg width="64" height="64" xmlns="http://www.w3.org/2000/svg" xmlns:xlink="http://www.w3.org/1999/xlink">
  <defs/>
  <g>
    <path stroke="none" fill="#000000" d="M49.7 63.05 L61.4 63.3 62.6 3.8 50.9 3.55 49.7 63.05 M47.05 0 L64 0 64 64 47.05 64 46.25 37.65 34.55 37.95 35.3 64 15.5 64 14.7 36.3 3 36.65 3.8 64 0 64 0 0 3.8 0 4.7 32.15 16.45 31.8 15.5 0 35.3 0 36.25 33.45 48 33.1 47.05 0 M18.1 62.3 L30.5 62.8 32.8 3.2 20.4 2.75 18.1 62.3"/>
    <path stroke="none" fill="#FFFFFF" d="M18.1 62.3 L20.4 2.75 32.8 3.2 30.5 62.8 18.1 62.3 M49.7 63.05 L50.9 3.55 62.6 3.8 61.4 63.3 49.7 63.05 M35.3 0 L47.05 0 48 33.1 36.25 33.45 35.3 0 M47.05 64 L35.3 64 34.55 37.95 46.25 37.65 47.05 64 M15.5 64 L3.8 64 3 36.65 14.7 36.3 15.5 64 M3.8 0 L15.5 0 16.45 31.8 4.7 32.15 3.8 0"/>
  </g>
</svg>