<svg width="64" height="64" xmlns="http://www.w3.org/2000/svg" xmlns:xlink="http://www.w3.org/1999/xlink">
  <defs/>
  <g>
    <path stroke="none" fill="#FFFFFF" d="M57.85 0 L64 0 64 6.75 62.5 6.1 59.4 4.3 Q58.05 3.35 57.75 2.35 57.45 1.45 57.85 0 M64 12.6 L64 30 60.25 30.15 Q58.25 30.05 57.3 29.25 56.3 28.5 55.8 26.55 55.45 25.4 55.05 22.25 54.8 19.05 54.85 17.85 54.95 15.85 55.75 14.9 56.5 13.9 58.45 13.4 L62.75 12.65 64 12.6 M64 35.5 L64 49.85 61.75 50.1 Q60.15 50.2 59.3 49.6 58.45 49.05 57.9 47.5 L57 44 56.55 40.45 Q56.45 38.85 57.05 38 57.6 37.15 59.15 36.6 L62.65 35.7 64 35.5 M64 55.65 L64 64 57.85 64 57.9 63.85 59.3 60.55 61.1 57.45 Q62.05 56.1 63.05 55.8 L64 55.65 M52.85 64 L34.8 64 35 62.8 Q35.6 59.55 36 58.4 36.65 56.45 37.7 55.75 38.75 54.95 40.8 55 L45.3 55.5 49.7 56.5 Q51.65 57.15 52.35 58.25 53.1 59.25 53.1 61.3 L52.85 64 M29.7 64 L15.2 64 14.95 62.6 Q14.8 60.95 15.35 60.1 15.85 59.2 17.35 58.55 L20.75 57.45 24.25 56.75 Q25.9 56.6 26.75 57.15 27.65 57.65 28.3 59.15 L29.4 62.55 29.7 64 M9.3 64 L0 64 0 55.65 1.55 55.95 Q2.5 56.25 4.85 57.35 L7.95 59.15 Q9.3 60.1 9.6 61.1 9.95 62.05 9.45 63.6 L9.3 64 M0 49.85 L0 35.5 2.2 35.2 Q3.8 35.15 4.65 35.75 5.5 36.3 6.05 37.85 L6.95 41.3 7.4 44.9 Q7.45 46.5 6.85 47.35 6.3 48.2 4.8 48.75 L1.3 49.65 0 49.85 M0 30 L0 12.6 3.15 12.45 Q5.15 12.55 6.1 13.35 7.1 14.1 7.6 16.05 L8.3 20.4 8.55 24.75 Q8.45 26.75 7.65 27.7 6.9 28.7 4.95 29.2 L0.6 29.95 0 30 M0 6.75 L0 0 9.3 0 8.05 2.9 6.25 6 Q5.3 7.35 4.3 7.65 L1.8 7.5 0 6.75 M15.2 0 L29.7 0 30.1 2.1 Q30.25 3.7 29.7 4.6 29.2 5.45 27.7 6.1 L24.3 7.2 20.75 7.9 Q19.15 8.05 18.25 7.5 17.4 7.05 16.75 5.5 L15.65 2.1 15.2 0 M34.8 0 L52.85 0 52.6 1.8 51.55 6.2 Q50.9 8.15 49.85 8.85 48.8 9.65 46.75 9.6 L42.25 9.1 37.85 8.1 Q35.9 7.45 35.2 6.35 34.45 5.35 34.5 3.3 L34.8 0 M43.45 14.9 L46.6 15.7 Q48 16.25 48.5 17 49.05 17.8 49 19.25 L48.55 22.5 47.75 25.7 Q47.2 27.05 46.45 27.55 45.65 28.1 44.2 28.05 L40.95 27.6 37.75 26.8 Q36.35 26.3 35.85 25.5 35.35 24.75 35.4 23.25 L35.85 20 36.65 16.85 Q37.15 15.45 37.95 14.95 38.7 14.4 40.2 14.45 L43.45 14.9 M48.35 35.45 L51.2 38.6 Q52.35 40.2 52.3 41.4 52.35 42.6 51.2 44.15 L48.35 47.35 45.2 50.2 Q43.6 51.35 42.4 51.3 41.2 51.35 39.65 50.2 L36.45 47.35 33.6 44.15 Q32.45 42.6 32.5 41.4 32.45 40.2 33.6 38.6 L36.45 35.45 39.65 32.6 Q41.2 31.45 42.4 31.5 43.6 31.45 45.2 32.6 L48.35 35.45 M22.95 13.15 L26.85 14.25 Q28.55 14.95 29.1 15.9 29.75 16.85 29.65 18.7 L29 22.65 27.9 26.55 Q27.25 28.25 26.25 28.85 25.3 29.5 23.5 29.4 L19.5 28.75 15.65 27.65 Q13.9 27 13.35 26 12.7 25.05 12.8 23.2 L13.45 19.25 Q14.15 16.35 14.55 15.35 15.2 13.65 16.2 13.05 17.15 12.4 18.95 12.55 L22.95 13.15 M29.15 41.05 L29.8 45.6 Q29.9 47.7 29.15 48.75 28.5 49.85 26.5 50.6 L22.05 51.8 17.5 52.45 Q15.45 52.55 14.35 51.8 13.25 51.1 12.5 49.15 L11.3 44.7 Q10.7 41.4 10.65 40.15 10.55 38.05 11.3 37 12 35.85 13.95 35.1 L18.4 33.95 22.95 33.3 Q25.05 33.15 26.1 33.9 27.25 34.6 27.95 36.6 L29.15 41.05"/>
    <path stroke="none" fill="#000000" d="M29.15 41.05 L27.95 36.6 Q27.25 34.6 26.1 33.9 25.05 33.15 22.95 33.3 L18.4 33.95 13.95 35.1 Q12 35.85 11.3 37 10.55 38.05 10.65 40.15 10.7 41.4 11.3 44.7 L12.5 49.15 Q13.25 51.1 14.35 51.8 15.45 52.55 17.5 52.45 L22.05 51.8 26.5 50.6 Q28.5 49.85 29.15 48.75 29.9 47.7 29.8 45.6 L29.15 41.05 M64 6.75 L64 12.6 62.75 12.65 58.45 13.4 Q56.5 13.9 55.75 14.9 54.95 15.85 54.85 17.85 54.8 19.05 55.05 22.25 55.45 25.4 55.8 26.55 56.3 28.5 57.3 29.25 58.25 30.05 60.25 30.15 L64 30 64 35.5 62.65 35.7 59.15 36.6 Q57.6 37.15 57.05 38 56.45 38.85 56.55 40.45 L57 44 57.9 47.5 Q58.45 49.05 59.3 49.6 60.15 50.2 61.75 50.1 L64 49.85 64 55.65 63.05 55.8 Q62.05 56.1 61.1 57.45 L59.3 60.55 57.9 63.85 57.85 64 52.85 64 53.1 61.3 Q53.1 59.25 52.35 58.25 51.65 57.15 49.7 56.5 L45.3 55.5 40.8 55 Q38.75 54.95 37.7 55.75 36.65 56.45 36 58.4 35.6 59.55 35 62.8 L34.8 64 29.7 64 29.4 62.55 28.3 59.15 Q27.65 57.65 26.75 57.15 25.9 56.6 24.25 56.75 L20.75 57.45 17.35 58.55 Q15.85 59.2 15.35 60.1 14.8 60.95 14.95 62.6 L15.2 64 9.3 64 9.45 63.6 Q9.95 62.05 9.6 61.1 9.3 60.1 7.95 59.15 L4.85 57.35 Q2.5 56.25 1.55 55.95 L0 55.65 0 49.85 1.3 49.65 4.8 48.75 Q6.3 48.2 6.85 47.35 7.45 46.5 7.4 44.9 L6.95 41.3 6.05 37.85 Q5.5 36.3 4.65 35.75 3.8 35.15 2.2 35.2 L0 35.5 0 30 0.6 29.95 4.95 29.2 Q6.9 28.7 7.65 27.7 8.45 26.75 8.55 24.75 L8.3 20.4 7.6 16.05 Q7.1 14.1 6.1 13.35 5.15 12.55 3.15 12.45 L0 12.6 0 6.75 1.8 7.5 4.3 7.65 Q5.3 7.35 6.25 6 L8.05 2.9 9.3 0 15.2 0 15.65 2.1 16.75 5.5 Q17.4 7.05 18.25 7.5 19.15 8.05 20.75 7.9 L24.3 7.2 27.7 6.1 Q29.2 5.45 29.7 4.6 30.25 3.7 30.1 2.1 L29.7 0 34.8 0 34.5 3.3 Q34.45 5.35 35.2 6.35 35.9 7.45 37.85 8.1 L42.25 9.1 46.75 9.6 Q48.8 9.65 49.85 8.85 50.9 8.15 51.55 6.2 L52.6 1.8 52.85 0 57.85 0 Q57.45 1.45 57.75 2.35 58.05 3.35 59.4 4.3 L62.5 6.1 64 6.75 M22.95 13.15 L18.95 12.55 Q17.15 12.4 16.2 13.05 15.2 13.65 14.55 15.35 14.15 16.35 13.45 19.25 L12.8 23.2 Q12.7 25.05 13.35 26 13.9 27 15.65 27.65 L19.5 28.75 23.5 29.4 Q25.3 29.5 26.25 28.85 27.25 28.25 27.9 26.55 L29 22.65 29.65 18.7 Q29.75 16.85 29.1 15.9 28.55 14.95 26.85 14.25 L22.95 13.15 M48.35 35.45 L45.2 32.6 Q43.6 31.45 42.4 31.5 41.2 31.45 39.65 32.6 L36.45 35.45 33.6 38.6 Q32.45 40.2 32.5 41.4 32.45 42.6 33.6 44.15 L36.45 47.35 39.65 50.2 Q41.2 51.35 42.4 51.3 43.6 51.35 45.2 50.2 L48.35 47.35 51.2 44.15 Q52.35 42.6 52.3 41.4 52.35 40.2 51.2 38.6 L48.35 35.45 M43.45 14.9 L40.2 14.45 Q38.7 14.4 37.95 14.95 37.15 15.45 36.65 16.85 L35.85 20 35.4 23.25 Q35.35 24.75 35.85 25.5 36.35 26.3 37.75 26.8 L40.95 27.6 44.2 28.05 Q45.65 28.1 46.45 27.55 47.2 27.05 47.75 25.7 L48.55 22.5 49 19.25 Q49.05 17.8 48.5 17 48 16.25 46.6 15.7 L43.45 14.9"/>
  </g>
</svg>