<svg width="64" height="64" xmlns="http://www.w3.org/2000/svg" xmlns:xlink="http://www.w3.org/1999/xlink">
  <defs/>
  <g>
    <path stroke="none" fill="#FFFFFF" d="M56.4 0 L64 0 64 7.65 54.8 4.1 56.4 0 M64 16.3 L64 27.3 57.05 25.4 59.8 15.15 64 16.3 M64 35.35 L64 49.8 58.4 50.9 55.65 37 64 35.35 M64 56.45 L64 64 56.4 64 59.95 54.85 64 56.45 M51.2 64 L38 64 36.2 59.7 47.5 55 51.2 64 M31.25 64 L13.15 64 11.7 56.35 29.15 53 31.25 64 M7.6 64 L0 64 0 56.45 9.15 60.05 7.6 64 M0 49.8 L0 35.35 5.5 34.25 8.3 48.15 0 49.8 M0 27.3 L0 16.3 6.05 17.95 3.3 28.2 0 27.3 M0 7.65 L0 0 7.6 0 4 9.25 0 7.65 M13.15 0 L31.25 0 32.5 6.45 15.05 9.8 13.15 0 M38 0 L51.2 0 52.15 2.3 40.9 7 38 0 M43.05 17.85 L47.15 10 55 14.1 50.9 21.95 43.05 17.85 M35.8 30.55 L33.7 21.95 42.35 19.8 44.45 28.45 35.8 30.55 M33.4 46.55 L38.65 33.4 51.85 38.65 46.55 51.85 33.4 46.55 M18.5 31 L11.55 18.65 23.9 11.7 30.85 24.05 18.5 31 M26.75 48.25 L15.55 46.4 17.4 35.2 28.6 37.05 26.75 48.25"/>
    <path stroke="none" fill="#000000" d="M26.75 48.25 L28.6 37.05 17.4 35.2 15.55 46.4 26.75 48.25 M64 7.65 L64 16.3 59.8 15.15 57.05 25.4 64 27.3 64 35.35 55.65 37 58.4 50.9 64 49.8 64 56.45 59.95 54.85 56.4 64 51.2 64 47.5 55 36.2 59.7 38 64 31.25 64 29.15 53 11.7 56.35 13.15 64 7.6 64 9.15 60.05 0 56.45 0 49.8 8.3 48.15 5.5 34.25 0 35.35 0 27.3 3.3 28.2 6.05 17.95 0 16.3 0 7.65 4 9.25 7.6 0 13.15 0 15.05 9.8 32.5 6.45 31.25 0 38 0 40.9 7 52.15 2.3 51.2 0 56.4 0 54.8 4.1 64 7.65 M18.5 31 L30.85 24.05 23.9 11.7 11.55 18.65 18.5 31 M33.4 46.55 L46.55 51.85 51.85 38.65 38.65 33.4 33.4 46.55 M35.8 30.55 L44.45 28.45 42.35 19.8 33.7 21.95 35.8 30.55 M43.05 17.85 L50.9 21.95 55 14.1 47.15 10 43.05 17.85"/>
  </g>
</svg>