<svg width="64" height="64" xmlns="http://www.w3.org/2000/svg" xmlns:xlink="http://www.w3.org/1999/xlink">
  <defs/>
  <g>
    <path stroke="none" fill="#000000" d="M45.7 0 L44.45 1.4 Q43.4 2.85 43.45 4 43.4 5.1 44.45 6.55 L47.1 9.5 50.05 12.15 Q51.5 13.2 52.6 13.15 53.75 13.2 55.2 12.15 L58.15 9.5 60.75 6.55 Q61.8 5.1 61.8 4 61.8 2.85 60.75 1.4 L59.55 0 64 0 64 3.55 63.55 4.05 Q62.4 5.4 62.35 6.5 62.2 7.65 63.2 9.15 L64 10.3 64 13.55 Q61.9 12 60.25 12.05 58.6 12 56.5 13.55 L52.15 17.4 Q49.25 20.45 48.3 21.75 46.75 23.9 46.8 25.55 46.75 27.2 48.3 29.3 L52.15 33.65 56.5 37.5 Q58.6 39.05 60.25 39 61.9 39.05 64 37.55 L64 50 Q63.15 49.5 62.5 49.5 61.7 49.5 60.7 50.2 60.1 50.65 58.65 52.05 L56.85 54.05 Q56.1 55.1 56.15 55.85 56.1 56.65 56.85 57.65 L58.65 59.7 60.7 61.5 Q61.7 62.25 62.5 62.2 63.15 62.25 64 61.7 L64 64 59.6 64 58.15 62.45 55.2 59.85 Q53.75 58.8 52.6 58.8 51.5 58.8 50.05 59.85 L47.1 62.45 45.65 64 41.55 64 Q41.6 62.45 40.1 60.45 L36.4 56.25 32.25 52.55 Q30.2 51.05 28.6 51.1 27.05 51.05 25 52.55 L20.85 56.25 Q18.05 59.2 17.15 60.45 15.65 62.45 15.7 64 L11.4 64 10.65 63.25 Q9.25 62.05 8.15 62.05 7 61.9 5.5 62.85 L4 64 0 64 0 61.75 0.3 61.5 2.35 59.7 4.15 57.65 Q4.9 56.65 4.85 55.85 4.9 55.1 4.15 54.05 L2.35 52.05 0.3 50.2 0 50 0 37.55 0.05 37.5 4.35 33.65 8.2 29.3 Q9.75 27.2 9.7 25.55 9.75 23.9 8.2 21.75 L4.35 17.4 0.05 13.55 0 13.55 0 10.3 1.55 12.3 4.3 15.15 Q5.65 16.3 6.8 16.35 7.9 16.45 9.45 15.5 L12.55 13.1 15.4 10.35 Q16.55 9 16.6 7.85 16.75 6.75 15.8 5.2 L13.4 2.05 11.4 0 15.7 0 Q15.65 1.6 17.15 3.65 18.05 4.9 20.85 7.8 L25 11.5 Q27.05 13 28.6 12.95 30.2 13 32.25 11.5 L36.4 7.8 40.1 3.65 Q41.6 1.6 41.55 0 L45.7 0 M39.6 24.95 L36 21.35 Q34.2 19.85 32.75 19.8 31.3 19.7 29.35 20.95 L25.35 24.1 21.75 27.7 Q20.3 29.5 20.25 30.95 20.1 32.35 21.35 34.35 L24.55 38.35 28.15 41.95 Q29.95 43.4 31.35 43.4 32.8 43.55 34.75 42.3 L38.75 39.15 42.35 35.55 Q43.85 33.75 43.9 32.3 44 30.85 42.75 28.95 L39.6 24.95 M44.9 10.85 L42.85 9.05 Q41.85 8.3 41.05 8.3 40.3 8.3 39.3 9.05 L37.25 10.85 Q35.85 12.3 35.4 12.9 34.7 13.9 34.7 14.65 34.7 15.45 35.4 16.45 L37.25 18.5 39.3 20.35 Q40.3 21.05 41.05 21.05 41.85 21.05 42.85 20.35 L44.9 18.5 46.7 16.45 Q47.45 15.45 47.4 14.65 47.45 13.9 46.7 12.9 L44.9 10.85 M55.25 40.7 L52.3 38.05 Q50.85 37 49.7 37.05 48.6 37 47.15 38.05 L44.2 40.7 41.6 43.65 Q40.5 45.1 40.55 46.2 40.5 47.35 41.6 48.8 L44.2 51.75 47.15 54.4 Q48.6 55.45 49.7 55.4 50.85 55.45 52.3 54.4 L55.25 51.75 57.9 48.8 Q58.95 47.35 58.9 46.2 58.95 45.1 57.9 43.65 L55.25 40.7 M0 3.55 L0 0 4 0 2.35 1.25 0 3.55 M22.3 16.3 L20.5 14.2 Q19.6 13.3 18.85 13.2 18.1 13.1 17 13.65 L14.7 15.15 12.6 16.95 Q11.75 17.85 11.65 18.6 11.5 19.35 12.1 20.45 L13.6 22.75 15.35 24.85 Q16.25 25.75 17 25.8 17.8 25.95 18.85 25.35 L21.15 23.85 23.25 22.1 Q24.15 21.2 24.2 20.45 24.35 19.65 23.8 18.6 L22.3 16.3 M18.45 37.55 L15.2 35.25 Q13.65 34.35 12.55 34.5 11.4 34.6 10.1 35.8 L7.45 38.75 5.2 42 Q4.3 43.55 4.45 44.65 4.5 45.75 5.75 47.1 L8.65 49.75 11.9 52 Q13.45 52.9 14.55 52.75 15.7 52.65 17 51.45 L19.65 48.5 21.95 45.3 Q22.85 43.75 22.65 42.6 22.6 41.5 21.35 40.15 L18.45 37.55"/>
    <path stroke="none" fill="#FFFFFF" d="M18.45 37.55 L21.35 40.15 Q22.6 41.5 22.65 42.6 22.85 43.75 21.95 45.3 L19.65 48.5 17 51.45 Q15.7 52.65 14.55 52.75 13.45 52.9 11.9 52 L8.65 49.75 5.75 47.1 Q4.5 45.75 4.45 44.65 4.3 43.55 5.2 42 L7.45 38.75 10.1 35.8 Q11.4 34.6 12.55 34.5 13.65 34.35 15.2 35.25 L18.45 37.55 M59.55 0 L60.75 1.4 Q61.8 2.85 61.8 4 61.8 5.1 60.75 6.55 L58.15 9.5 55.2 12.15 Q53.75 13.2 52.6 13.15 51.5 13.2 50.05 12.15 L47.1 9.5 44.45 6.55 Q43.4 5.1 43.45 4 43.4 2.85 44.45 1.4 L45.7 0 59.55 0 M41.55 0 Q41.6 1.6 40.1 3.65 L36.4 7.8 32.25 11.5 Q30.2 13 28.6 12.95 27.05 13 25 11.5 L20.85 7.8 Q18.05 4.9 17.15 3.65 15.65 1.6 15.7 0 L41.55 0 M11.4 0 L13.4 2.05 15.8 5.2 Q16.75 6.75 16.6 7.85 16.55 9 15.4 10.35 L12.55 13.1 9.45 15.5 Q7.9 16.45 6.8 16.35 5.65 16.3 4.3 15.15 L1.55 12.3 0 10.3 0 3.55 2.35 1.25 4 0 11.4 0 M0 13.55 L0.05 13.55 4.35 17.4 8.2 21.75 Q9.75 23.9 9.7 25.55 9.75 27.2 8.2 29.3 L4.35 33.65 0.05 37.5 0 37.55 0 13.55 M0 50 L0.3 50.2 2.35 52.05 4.15 54.05 Q4.9 55.1 4.85 55.85 4.9 56.65 4.15 57.65 L2.35 59.7 0.3 61.5 0 61.75 0 50 M4 64 L5.5 62.85 Q7 61.9 8.15 62.05 9.25 62.05 10.65 63.25 L11.4 64 4 64 M15.7 64 Q15.65 62.45 17.15 60.45 18.05 59.2 20.85 56.25 L25 52.55 Q27.05 51.05 28.6 51.1 30.2 51.05 32.25 52.55 L36.4 56.25 40.1 60.45 Q41.6 62.45 41.55 64 L15.7 64 M45.65 64 L47.1 62.45 50.05 59.85 Q51.5 58.8 52.6 58.8 53.75 58.8 55.2 59.85 L58.15 62.45 59.6 64 45.65 64 M64 61.7 Q63.15 62.25 62.5 62.2 61.7 62.25 60.7 61.5 L58.65 59.7 56.85 57.65 Q56.1 56.65 56.15 55.85 56.1 55.1 56.85 54.05 L58.65 52.05 Q60.1 50.65 60.7 50.2 61.7 49.5 62.5 49.5 63.15 49.5 64 50 L64 61.7 M64 37.55 Q61.9 39.05 60.25 39 58.6 39.05 56.5 37.5 L52.15 33.65 48.3 29.3 Q46.75 27.2 46.8 25.55 46.75 23.9 48.3 21.75 49.25 20.45 52.15 17.4 L56.5 13.55 Q58.6 12 60.25 12.05 61.9 12 64 13.55 L64 37.55 M64 10.3 L63.2 9.15 Q62.2 7.65 62.35 6.5 62.4 5.4 63.55 4.05 L64 3.55 64 10.3 M44.9 10.85 L46.7 12.9 Q47.45 13.9 47.4 14.65 47.45 15.45 46.7 16.45 L44.9 18.5 42.85 20.35 Q41.85 21.05 41.05 21.05 40.3 21.05 39.3 20.35 L37.25 18.5 35.4 16.45 Q34.7 15.45 34.7 14.65 34.7 13.9 35.4 12.9 35.85 12.3 37.25 10.85 L39.3 9.05 Q40.3 8.3 41.05 8.3 41.85 8.3 42.85 9.05 L44.9 10.85 M39.6 24.95 L42.75 28.95 Q44 30.85 43.9 32.3 43.85 33.75 42.35 35.55 L38.75 39.15 34.75 42.3 Q32.8 43.55 31.35 43.4 29.95 43.4 28.15 41.95 L24.55 38.35 21.35 34.35 Q20.1 32.35 20.25 30.95 20.3 29.5 21.75 27.7 L25.35 24.1 29.35 20.95 Q31.3 19.7 32.75 19.8 34.2 19.85 36 21.35 L39.6 24.95 M55.25 40.7 L57.9 43.65 Q58.95 45.1 58.9 46.2 58.95 47.35 57.9 48.8 L55.25 51.75 52.3 54.4 Q50.85 55.45 49.7 55.4 48.6 55.45 47.15 54.4 L44.2 51.75 41.6 48.8 Q40.5 47.35 40.55 46.2 40.5 45.1 41.6 43.65 L44.2 40.7 47.15 38.05 Q48.6 37 49.7 37.05 50.85 37 52.3 38.05 L55.25 40.7 M22.3 16.3 L23.8 18.6 Q24.35 19.65 24.2 20.45 24.15 21.2 23.25 22.1 L21.15 23.85 18.85 25.35 Q17.8 25.95 17 25.8 16.25 25.75 15.35 24.85 L13.6 22.75 12.1 20.45 Q11.5 19.35 11.65 18.6 11.75 17.85 12.6 16.95 L14.7 15.15 17 13.65 Q18.1 13.1 18.85 13.2 19.6 13.3 20.5 14.2 L22.3 16.3"/>
  </g>
</svg>