<svg width="64" height="62" xmlns="http://www.w3.org/2000/svg" xmlns:xlink="http://www.w3.org/1999/xlink">
  <defs/>
  <g>
    <path stroke="none" fill="#FFFFFF" d="M52.1 0 Q54.05 0.05 54.05 2.05 L54.05 5.95 Q54.05 8 51.95 8 L43.1 8 Q41.05 8 41.05 5.95 L41.05 2.05 Q41.05 0.05 43 0 L52.1 0 M36.1 0 Q38.05 0.05 38.05 2.05 L38.05 5.95 Q38.05 8 35.95 8 L27.1 8 Q25.05 8 25.05 5.95 L25.05 2.05 Q25.05 0.05 27 0 L36.1 0 M20.1 0 Q22.05 0.05 22.05 2.05 L22.05 5.95 Q22.05 8 19.95 8 L11.1 8 Q9.05 8 9.05 5.95 L9.05 2.05 Q9.05 0.05 11 0 L20.1 0 M4.1 0 Q6.05 0.05 6.05 2.05 L6.05 5.95 Q6.05 8 3.95 8 L0 8 0 0 4.1 0 M0 10 L0.1 10 8.95 10 Q11.05 10 11.05 12.05 L11.05 16.95 Q11.05 19 8.95 19 L0.1 19 0 19 0 10 M0 21 L3.95 21 Q6.05 21 6.05 23.05 L6.05 27.95 Q6.05 30 3.95 30 L0 30 0 21 M0 32 L0.1 32 8.95 32 Q11.05 32 11.05 34.05 L11.05 38.95 Q11.05 41 8.95 41 L0.1 41 0 41 0 32 M0 43 L3.95 43 Q6.05 43 6.05 45.05 L6.05 48.95 Q6.05 51 3.95 51 L0 51 0 43 M0 53 L0.1 53 8.95 53 Q11.05 53 11.05 55.05 L11.05 59.95 Q11.05 61.95 9.1 62 L0.1 62 0 62 0 53 M16 62 Q14.05 61.95 14.05 59.95 L14.05 55.05 Q14.05 53 16.1 53 L24.95 53 Q27.05 53 27.05 55.05 L27.05 59.95 Q27.05 61.95 25.1 62 L16 62 M32 62 Q30.05 61.95 30.05 59.95 L30.05 55.05 Q30.05 53 32.1 53 L40.95 53 Q43.05 53 43.05 55.05 L43.05 59.95 Q43.05 61.95 41.1 62 L32 62 M48 62 Q46.05 61.95 46.05 59.95 L46.05 55.05 Q46.05 53 48.1 53 L56.95 53 Q59.05 53 59.05 55.05 L59.05 59.95 Q59.05 61.95 57.1 62 L48 62 M64 62 Q62.05 61.95 62.05 59.95 L62.05 55.05 Q62.05 53.05 64 53 L64 62 M64 51 L59.1 51 Q57.05 51 57.05 48.95 L57.05 45.05 Q57.05 43 59.1 43 L64 43 64 51 M64 41 Q62.05 40.95 62.05 38.95 L62.05 34.05 Q62.05 32.05 64 32 L64 41 M64 30 L59.1 30 Q57.05 30 57.05 27.95 L57.05 23.05 Q57.05 21 59.1 21 L64 21 64 30 M64 19 Q62.05 18.95 62.05 16.95 L62.05 12.05 Q62.05 10.05 64 10 L64 19 M64 8 L59.1 8 Q57.05 8 57.05 5.95 L57.05 2.05 Q57.05 0.05 59 0 L64 0 64 8 M43.1 30 Q41.05 30 41.05 27.95 L41.05 23.05 Q41.05 21 43.1 21 L51.95 21 Q54.05 21 54.05 23.05 L54.05 27.95 Q54.05 30 51.95 30 L43.1 30 M27.1 30 Q25.05 30 25.05 27.95 L25.05 23.05 Q25.05 21 27.1 21 L35.95 21 Q38.05 21 38.05 23.05 L38.05 27.95 Q38.05 30 35.95 30 L27.1 30 M43.05 16.95 Q43.05 19 40.95 19 L32.1 19 Q30.05 19 30.05 16.95 L30.05 12.05 Q30.05 10 32.1 10 L40.95 10 Q43.05 10 43.05 12.05 L43.05 16.95 M59.05 12.05 L59.05 16.95 Q59.05 19 56.95 19 L48.1 19 Q46.05 19 46.05 16.95 L46.05 12.05 Q46.05 10 48.1 10 L56.95 10 Q59.05 10 59.05 12.05 M41.05 48.95 L41.05 45.05 Q41.05 43 43.1 43 L51.95 43 Q54.05 43 54.05 45.05 L54.05 48.95 Q54.05 51 51.95 51 L43.1 51 Q41.05 51 41.05 48.95 M59.05 34.05 L59.05 38.95 Q59.05 41 56.95 41 L48.1 41 Q46.05 41 46.05 38.95 L46.05 34.05 Q46.05 32 48.1 32 L56.95 32 Q59.05 32 59.05 34.05 M25.05 48.95 L25.05 45.05 Q25.05 43 27.1 43 L35.95 43 Q38.05 43 38.05 45.05 L38.05 48.95 Q38.05 51 35.95 51 L27.1 51 Q25.05 51 25.05 48.95 M30.05 34.05 Q30.05 32 32.1 32 L40.95 32 Q43.05 32 43.05 34.05 L43.05 38.95 Q43.05 41 40.95 41 L32.1 41 Q30.05 41 30.05 38.95 L30.05 34.05 M9.05 23.05 Q9.05 21 11.1 21 L19.95 21 Q22.05 21 22.05 23.05 L22.05 27.95 Q22.05 30 19.95 30 L11.1 30 Q9.05 30 9.05 27.95 L9.05 23.05 M16.1 19 Q14.05 19 14.05 16.95 L14.05 12.05 Q14.05 10 16.1 10 L24.95 10 Q27.05 10 27.05 12.05 L27.05 16.95 Q27.05 19 24.95 19 L16.1 19 M9.05 48.95 L9.05 45.05 Q9.05 43 11.1 43 L19.95 43 Q22.05 43 22.05 45.05 L22.05 48.95 Q22.05 51 19.95 51 L11.1 51 Q9.05 51 9.05 48.95 M14.05 38.95 L14.05 34.05 Q14.05 32 16.1 32 L24.95 32 Q27.05 32 27.05 34.05 L27.05 38.95 Q27.05 41 24.95 41 L16.1 41 Q14.05 41 14.05 38.95"/>
    <path stroke="none" fill="#000000" d="M14.05 38.95 Q14.05 41 16.1 41 L24.95 41 Q27.05 41 27.05 38.95 L27.05 34.05 Q27.05 32 24.95 32 L16.1 32 Q14.05 32 14.05 34.05 L14.05 38.95 M43 0 Q41.05 0.05 41.05 2.05 L41.05 5.95 Q41.05 8 43.1 8 L51.95 8 Q54.05 8 54.05 5.95 L54.05 2.05 Q54.05 0.05 52.1 0 L59 0 Q57.05 0.05 57.05 2.05 L57.05 5.95 Q57.05 8 59.1 8 L64 8 64 10 Q62.05 10.05 62.05 12.05 L62.05 16.95 Q62.05 18.95 64 19 L64 21 59.1 21 Q57.05 21 57.05 23.05 L57.05 27.95 Q57.05 30 59.1 30 L64 30 64 32 Q62.05 32.05 62.05 34.05 L62.05 38.95 Q62.05 40.95 64 41 L64 43 59.1 43 Q57.05 43 57.05 45.05 L57.05 48.95 Q57.05 51 59.1 51 L64 51 64 53 Q62.05 53.05 62.05 55.05 L62.05 59.95 Q62.05 61.95 64 62 L57.1 62 Q59.05 61.95 59.05 59.95 L59.05 55.05 Q59.05 53 56.95 53 L48.1 53 Q46.05 53 46.05 55.05 L46.05 59.95 Q46.05 61.95 48 62 L41.1 62 Q43.05 61.95 43.05 59.95 L43.05 55.05 Q43.05 53 40.95 53 L32.1 53 Q30.05 53 30.05 55.05 L30.05 59.95 Q30.05 61.95 32 62 L25.1 62 Q27.05 61.95 27.05 59.95 L27.05 55.05 Q27.05 53 24.95 53 L16.1 53 Q14.05 53 14.05 55.05 L14.05 59.95 Q14.05 61.95 16 62 L9.1 62 Q11.05 61.95 11.05 59.95 L11.05 55.05 Q11.05 53 8.95 53 L0.1 53 0 53 0 51 3.95 51 Q6.05 51 6.05 48.95 L6.05 45.05 Q6.05 43 3.95 43 L0 43 0 41 0.1 41 8.95 41 Q11.05 41 11.05 38.95 L11.05 34.05 Q11.05 32 8.95 32 L0.1 32 0 32 0 30 3.95 30 Q6.05 30 6.05 27.95 L6.05 23.05 Q6.05 21 3.95 21 L0 21 0 19 0.1 19 8.95 19 Q11.05 19 11.05 16.95 L11.05 12.05 Q11.05 10 8.95 10 L0.1 10 0 10 0 8 3.95 8 Q6.05 8 6.05 5.95 L6.05 2.05 Q6.05 0.05 4.1 0 L11 0 Q9.05 0.05 9.05 2.05 L9.05 5.95 Q9.05 8 11.1 8 L19.95 8 Q22.05 8 22.05 5.95 L22.05 2.05 Q22.05 0.05 20.1 0 L27 0 Q25.05 0.05 25.05 2.05 L25.05 5.95 Q25.05 8 27.1 8 L35.95 8 Q38.05 8 38.05 5.95 L38.05 2.05 Q38.05 0.05 36.1 0 L43 0 M59.05 12.05 Q59.05 10 56.95 10 L48.1 10 Q46.05 10 46.05 12.05 L46.05 16.95 Q46.05 19 48.1 19 L56.95 19 Q59.05 19 59.05 16.95 L59.05 12.05 M43.05 16.95 L43.05 12.05 Q43.05 10 40.95 10 L32.1 10 Q30.05 10 30.05 12.05 L30.05 16.95 Q30.05 19 32.1 19 L40.95 19 Q43.05 19 43.05 16.95 M27.1 30 L35.95 30 Q38.05 30 38.05 27.95 L38.05 23.05 Q38.05 21 35.95 21 L27.1 21 Q25.05 21 25.05 23.05 L25.05 27.95 Q25.05 30 27.1 30 M43.1 30 L51.95 30 Q54.05 30 54.05 27.95 L54.05 23.05 Q54.05 21 51.95 21 L43.1 21 Q41.05 21 41.05 23.05 L41.05 27.95 Q41.05 30 43.1 30 M59.05 34.05 Q59.05 32 56.95 32 L48.1 32 Q46.05 32 46.05 34.05 L46.05 38.95 Q46.05 41 48.1 41 L56.95 41 Q59.05 41 59.05 38.95 L59.05 34.05 M41.05 48.95 Q41.05 51 43.1 51 L51.95 51 Q54.05 51 54.05 48.95 L54.05 45.05 Q54.05 43 51.95 43 L43.1 43 Q41.05 43 41.05 45.05 L41.05 48.95 M30.05 34.05 L30.05 38.95 Q30.05 41 32.1 41 L40.95 41 Q43.05 41 43.05 38.95 L43.05 34.05 Q43.05 32 40.95 32 L32.1 32 Q30.05 32 30.05 34.05 M25.05 48.95 Q25.05 51 27.1 51 L35.95 51 Q38.05 51 38.05 48.95 L38.05 45.05 Q38.05 43 35.95 43 L27.1 43 Q25.05 43 25.05 45.05 L25.05 48.95 M9.05 23.05 L9.05 27.95 Q9.05 30 11.1 30 L19.95 30 Q22.05 30 22.05 27.95 L22.05 23.05 Q22.05 21 19.95 21 L11.1 21 Q9.05 21 9.05 23.05 M16.1 19 L24.95 19 Q27.05 19 27.05 16.95 L27.05 12.05 Q27.05 10 24.95 10 L16.1 10 Q14.05 10 14.05 12.05 L14.05 16.95 Q14.05 19 16.1 19 M9.05 48.95 Q9.05 51 11.1 51 L19.95 51 Q22.05 51 22.05 48.95 L22.05 45.05 Q22.05 43 19.95 43 L11.1 43 Q9.05 43 9.05 45.05 L9.05 48.95"/>
  </g>
</svg>