<svg width="64" height="64" xmlns="http://www.w3.org/2000/svg" xmlns:xlink="http://www.w3.org/1999/xlink">
  <defs/>
  <g>
    <path stroke="none" fill="#000000" d="M55.2 0 Q55.2 1.7 55.85 3.35 56.55 5 57.8 6.2 59 7.45 60.65 8.1 62.25 8.8 64 8.8 L64 23.2 61.2 23.65 Q59.85 24.1 58.7 24.95 57.3 26 56.4 27.55 55.5 29.1 55.25 30.85 L55.2 31.85 55.15 32.85 Q54.95 34.55 53.95 36 52.95 37.5 51.45 38.3 L49.3 39.05 47 39.1 Q45.55 38.9 44.3 38.15 43 37.35 42.15 36.2 41.1 34.7 40.85 32.85 L40.8 31.8 40.7 30.7 Q40.45 29 39.55 27.5 38.65 25.95 37.3 24.95 36.15 24.05 34.75 23.6 L31.9 23.2 Q30.2 23.2 28.6 23.85 27 24.55 25.8 25.75 24.8 26.75 24.15 28 23.55 29.25 23.3 30.6 23.05 32.3 23.45 34 23.85 35.75 24.85 37.1 26.05 38.8 28 39.8 29.9 40.8 32 40.8 33.65 40.8 35.15 41.5 36.7 42.25 37.65 43.55 38.4 44.5 38.8 45.65 39.2 46.8 39.2 48 39.2 49.7 39.85 51.3 40.5 52.95 41.7 54.15 42.75 55.2 44.15 55.9 45.5 56.55 47 56.7 L47.8 56.75 48.6 56.8 Q50.15 56.95 51.5 57.7 52.9 58.45 53.8 59.7 L54.85 61.7 Q55.2 62.8 55.2 64 L40.8 64 Q40.8 62.6 40.4 61.3 39.95 59.95 39.15 58.85 38.2 57.5 36.75 56.55 35.3 55.65 33.65 55.35 32 55 30.3 55.35 28.65 55.65 27.25 56.6 25.35 57.75 24.3 59.75 23.2 61.8 23.2 64 L8.8 64 Q8.85 62.1 9.55 60.8 10.3 59.2 11.8 58.15 13.25 57.1 15 56.85 L16.15 56.75 17.25 56.7 Q19.05 56.45 20.65 55.45 22.2 54.5 23.25 53 24.2 51.6 24.6 49.95 24.95 48.25 24.7 46.6 24.45 45.2 23.8 43.95 23.15 42.7 22.15 41.7 20.95 40.5 19.35 39.85 17.7 39.15 16 39.2 L13.75 38.8 Q12.65 38.45 11.7 37.75 10.55 36.9 9.8 35.6 9.05 34.35 8.85 32.85 8.65 31.35 9.1 29.85 9.6 28.35 10.6 27.2 11.6 26.1 13 25.45 14.4 24.8 15.9 24.8 L18.7 24.35 Q20.05 23.9 21.2 23.05 22.6 22.05 23.55 20.5 24.45 19 24.7 17.25 L24.8 16.15 24.85 15.1 Q25.1 13.25 26.2 11.7 27.1 10.45 28.5 9.7 29.85 8.95 31.35 8.8 L32.2 8.8 33 8.7 Q34.5 8.55 35.85 7.9 37.2 7.25 38.2 6.2 39.45 5 40.15 3.35 40.8 1.7 40.8 0 L55.2 0 M64 55.2 L61.65 54.8 Q60.5 54.4 59.55 53.65 58.45 52.8 57.75 51.55 57.05 50.3 56.85 48.85 56.65 47.4 57.1 45.9 57.55 44.4 58.55 43.3 59.55 42.1 61 41.45 62.45 40.8 64 40.75 L64 55.2 M46.45 7.3 Q44.5 7.65 42.9 8.8 41.55 9.75 40.6 11.25 39.65 12.7 39.35 14.35 39.1 15.75 39.3 17.15 39.45 18.6 40.1 19.85 40.85 21.35 42.1 22.5 43.35 23.65 44.9 24.2 46.4 24.8 48 24.8 49.65 24.8 51.1 24.2 52.9 23.55 54.25 22.15 55.65 20.8 56.25 19 56.7 17.85 56.8 16.55 L56.6 14.1 Q56.25 12.45 55.3 11.05 54.3 9.6 52.9 8.7 51.5 7.75 49.8 7.35 48.1 7 46.45 7.3 M23.2 0 Q23.2 1.55 22.55 3 21.85 4.45 20.7 5.45 19.75 6.25 18.5 6.75 L16 7.2 Q14.25 7.15 12.6 7.85 10.95 8.55 9.7 9.8 8.5 11.05 7.85 12.7 7.15 14.35 7.2 16.1 7.2 18.05 6.15 19.75 5.1 21.45 3.35 22.35 1.9 23.15 0 23.2 L0 8.8 Q1.75 8.8 3.35 8.1 5 7.45 6.2 6.2 7.45 5 8.15 3.35 8.8 1.7 8.8 0 L23.2 0 M0 40.75 L2.3 41.15 Q3.45 41.55 4.35 42.25 5.55 43.15 6.3 44.45 7 45.8 7.15 47.25 7.3 48.75 6.85 50.2 6.4 51.6 5.4 52.75 4.4 53.9 2.95 54.55 1.55 55.15 0 55.2 L0 40.75"/>
    <path stroke="none" fill="#FFFFFF" d="M0 40.75 L0 23.2 Q1.9 23.15 3.35 22.35 5.1 21.45 6.15 19.75 7.2 18.05 7.2 16.1 7.15 14.35 7.85 12.7 8.5 11.05 9.7 9.8 10.95 8.55 12.6 7.85 14.25 7.15 16 7.2 L18.5 6.75 Q19.75 6.25 20.7 5.45 21.85 4.45 22.55 3 23.2 1.55 23.2 0 L40.8 0 Q40.8 1.7 40.15 3.35 39.45 5 38.2 6.2 37.2 7.25 35.85 7.9 34.5 8.55 33 8.7 L32.2 8.8 31.35 8.8 Q29.85 8.95 28.5 9.7 27.1 10.45 26.2 11.7 25.1 13.25 24.85 15.1 L24.8 16.15 24.7 17.25 Q24.45 19 23.55 20.5 22.6 22.05 21.2 23.05 20.05 23.9 18.7 24.35 L15.9 24.8 Q14.4 24.8 13 25.45 11.6 26.1 10.6 27.2 9.6 28.35 9.1 29.85 8.65 31.35 8.85 32.85 9.05 34.35 9.8 35.6 10.55 36.9 11.7 37.75 12.65 38.45 13.75 38.8 L16 39.2 Q17.7 39.15 19.35 39.85 20.95 40.5 22.15 41.7 23.15 42.7 23.8 43.95 24.45 45.2 24.7 46.6 24.95 48.25 24.6 49.95 24.2 51.6 23.25 53 22.2 54.5 20.65 55.45 19.05 56.45 17.25 56.7 L16.15 56.75 15 56.85 Q13.25 57.1 11.8 58.15 10.3 59.2 9.55 60.8 8.85 62.1 8.8 64 L0 64 0 55.2 Q1.55 55.15 2.95 54.55 4.4 53.9 5.4 52.75 6.4 51.6 6.85 50.2 7.3 48.75 7.15 47.25 7 45.8 6.3 44.45 5.55 43.15 4.35 42.25 3.45 41.55 2.3 41.15 L0 40.75 M64 8.8 Q62.25 8.8 60.65 8.1 59 7.45 57.8 6.2 56.55 5 55.85 3.35 55.2 1.7 55.2 0 L64 0 64 8.8 M23.2 64 Q23.2 61.8 24.3 59.75 25.35 57.75 27.25 56.6 28.65 55.65 30.3 55.35 32 55 33.65 55.35 35.3 55.65 36.75 56.55 38.2 57.5 39.15 58.85 39.95 59.95 40.4 61.3 40.8 62.6 40.8 64 L23.2 64 M55.2 64 Q55.2 62.8 54.85 61.7 L53.8 59.7 Q52.9 58.45 51.5 57.7 50.15 56.95 48.6 56.8 L47.8 56.75 47 56.7 Q45.5 56.55 44.15 55.9 42.75 55.2 41.7 54.15 40.5 52.95 39.85 51.3 39.2 49.7 39.2 48 39.2 46.8 38.8 45.65 38.4 44.5 37.65 43.55 36.7 42.25 35.15 41.5 33.65 40.8 32 40.8 29.9 40.8 28 39.8 26.05 38.8 24.85 37.1 23.85 35.75 23.45 34 23.05 32.3 23.3 30.6 23.55 29.25 24.15 28 24.8 26.75 25.8 25.75 27 24.55 28.6 23.85 30.2 23.2 31.9 23.2 L34.75 23.6 Q36.15 24.05 37.3 24.95 38.65 25.95 39.55 27.5 40.45 29 40.7 30.7 L40.8 31.8 40.85 32.85 Q41.1 34.7 42.15 36.2 43 37.35 44.3 38.15 45.55 38.9 47 39.1 L49.3 39.05 51.45 38.3 Q52.95 37.5 53.95 36 54.95 34.55 55.15 32.85 L55.2 31.85 55.25 30.85 Q55.5 29.1 56.4 27.55 57.3 26 58.7 24.95 59.85 24.1 61.2 23.65 L64 23.2 64 40.75 Q62.45 40.8 61 41.45 59.55 42.1 58.55 43.3 57.55 44.4 57.1 45.9 56.65 47.4 56.85 48.85 57.05 50.3 57.75 51.55 58.45 52.8 59.55 53.65 60.5 54.4 61.65 54.8 L64 55.2 64 64 55.2 64 M46.45 7.3 Q48.1 7 49.8 7.35 51.5 7.75 52.9 8.7 54.3 9.6 55.3 11.05 56.25 12.45 56.6 14.1 L56.8 16.55 Q56.7 17.85 56.25 19 55.65 20.8 54.25 22.15 52.9 23.55 51.1 24.2 49.65 24.8 48 24.8 46.4 24.8 44.9 24.2 43.35 23.65 42.1 22.5 40.85 21.35 40.1 19.85 39.45 18.6 39.3 17.15 39.1 15.75 39.35 14.35 39.65 12.7 40.6 11.25 41.55 9.75 42.9 8.8 44.5 7.65 46.45 7.3 M8.8 0 Q8.8 1.7 8.15 3.35 7.45 5 6.2 6.2 5 7.45 3.35 8.1 1.75 8.8 0 8.8 L0 0 8.8 0"/>
  </g>
</svg>