<svg width="64" height="64" xmlns="http://www.w3.org/2000/svg" xmlns:xlink="http://www.w3.org/1999/xlink">
  <defs/>
  <g>
    <path stroke="none" fill="#FFFFFF" d="M56.9 0 L64 0 64 7.1 63.95 7.1 Q63.65 7.1 63.45 6.9 L57.1 0.6 56.9 0.05 56.9 0 M64 13 L64 29.2 56.6 21.75 Q56.3 21.45 56.3 21.1 56.3 20.7 56.6 20.4 L64 13 M64 36.75 L64 48.75 63.7 48.6 58.3 43.2 58.15 42.75 Q58.15 42.5 58.3 42.3 L63.7 36.95 64 36.75 M64 57 L64 64 56.9 64 57.1 63.5 63.45 57.2 63.95 57 64 57 M48 64 L36.85 64 37 63.85 42 58.8 Q42.2 58.65 42.45 58.65 42.65 58.65 42.85 58.8 L47.85 63.85 48 64 M28.35 64 L14.2 64 14.4 63.5 20.75 57.2 21.25 57 21.8 57.2 28.1 63.5 28.35 64 M7 64 L0 64 0 57 0.5 57.2 6.8 63.5 7 64 M0 48.75 L0 36.75 0.15 36.75 0.6 36.95 5.95 42.3 6.15 42.75 5.95 43.2 0.6 48.6 0.15 48.8 0 48.75 M0 29.2 L0 13 0.45 12.55 Q0.75 12.25 1.15 12.25 L1.8 12.55 9.7 20.4 9.95 21.1 9.7 21.75 1.8 29.65 1.15 29.9 0.45 29.65 0 29.2 M0 7.1 L0 0 7 0 7 0.05 6.8 0.6 0.5 6.9 Q0.3 7.1 0 7.1 M14.2 0 L28.35 0 28.35 0.05 28.1 0.6 21.8 6.9 21.25 7.1 Q20.95 7.1 20.75 6.9 L14.4 0.6 14.2 0.05 14.2 0 M36.85 0 L48 0 48.05 0.25 47.85 0.7 42.85 5.7 Q42.65 5.9 42.45 5.9 L42 5.7 37 0.7 36.8 0.25 36.85 0 M52.05 20.1 L52.35 20.85 52.05 21.55 43.4 30.25 Q43.1 30.55 42.65 30.55 42.25 30.55 41.95 30.25 L33.25 21.55 Q32.95 21.25 32.95 20.85 32.95 20.4 33.25 20.1 L41.95 11.45 Q42.25 11.15 42.65 11.15 43.1 11.15 43.4 11.45 L52.05 20.1 M50.45 42 L50.7 42.6 50.45 43.15 43.55 50.1 42.95 50.35 42.4 50.1 35.45 43.15 35.2 42.6 Q35.2 42.25 35.45 42 L42.4 35.05 42.95 34.85 43.55 35.05 50.45 42 M32.6 41.9 Q33 42.25 33 42.75 33 43.3 32.6 43.65 L22.25 54 Q21.9 54.4 21.4 54.4 20.85 54.4 20.5 54 L10.15 43.65 Q9.8 43.3 9.8 42.75 9.8 42.25 10.15 41.9 L20.5 31.5 Q20.85 31.15 21.4 31.15 21.9 31.15 22.25 31.5 L32.6 41.9 M28.1 20.75 L28.35 21.3 28.1 21.8 21.8 28.15 21.25 28.35 Q20.95 28.35 20.75 28.15 L14.4 21.8 14.2 21.3 14.4 20.75 20.75 14.45 Q20.95 14.2 21.25 14.2 21.6 14.2 21.8 14.45 L28.1 20.75"/>
    <path stroke="none" fill="#000000" d="M28.1 20.75 L21.8 14.45 Q21.6 14.2 21.25 14.2 20.95 14.2 20.75 14.45 L14.4 20.75 14.2 21.3 14.4 21.8 20.75 28.15 Q20.95 28.35 21.25 28.35 L21.8 28.15 28.1 21.8 28.35 21.3 28.1 20.75 M64 7.1 L64 13 56.6 20.4 Q56.3 20.7 56.3 21.1 56.3 21.45 56.6 21.75 L64 29.2 64 36.75 63.7 36.95 58.3 42.3 Q58.15 42.5 58.15 42.75 L58.3 43.2 63.7 48.6 64 48.75 64 57 63.95 57 63.45 57.2 57.1 63.5 56.9 64 48 64 47.85 63.85 42.85 58.8 Q42.65 58.65 42.45 58.65 42.2 58.65 42 58.8 L37 63.85 36.85 64 28.35 64 28.1 63.5 21.8 57.2 21.25 57 20.75 57.2 14.4 63.5 14.2 64 7 64 6.8 63.5 0.5 57.2 0 57 0 48.75 0.15 48.8 0.6 48.6 5.95 43.2 6.15 42.75 5.95 42.3 0.6 36.95 0.15 36.75 0 36.75 0 29.2 0.45 29.65 1.15 29.9 1.8 29.65 9.7 21.75 9.95 21.1 9.7 20.4 1.8 12.55 1.15 12.25 Q0.75 12.25 0.45 12.55 L0 13 0 7.1 Q0.3 7.1 0.5 6.9 L6.8 0.6 7 0.05 7 0 14.2 0 14.2 0.05 14.4 0.6 20.75 6.9 Q20.95 7.1 21.25 7.1 L21.8 6.9 28.1 0.6 28.35 0.05 28.35 0 36.85 0 36.8 0.25 37 0.7 42 5.7 42.45 5.9 Q42.65 5.9 42.85 5.7 L47.85 0.7 48.05 0.25 48 0 56.9 0 56.9 0.05 57.1 0.6 63.45 6.9 Q63.65 7.1 63.95 7.1 L64 7.1 M32.6 41.9 L22.25 31.5 Q21.9 31.15 21.4 31.15 20.85 31.15 20.5 31.5 L10.15 41.9 Q9.8 42.25 9.8 42.75 9.8 43.3 10.15 43.65 L20.5 54 Q20.85 54.4 21.4 54.4 21.9 54.4 22.25 54 L32.6 43.65 Q33 43.3 33 42.75 33 42.25 32.6 41.9 M50.45 42 L43.55 35.05 42.95 34.85 42.4 35.05 35.45 42 Q35.2 42.25 35.2 42.6 L35.45 43.15 42.4 50.1 42.95 50.35 43.55 50.1 50.45 43.15 50.7 42.6 50.45 42 M52.05 20.1 L43.4 11.45 Q43.1 11.15 42.65 11.15 42.25 11.15 41.95 11.45 L33.25 20.1 Q32.95 20.4 32.95 20.85 32.95 21.25 33.25 21.55 L41.95 30.25 Q42.25 30.55 42.65 30.55 43.1 30.55 43.4 30.25 L52.05 21.55 52.35 20.85 52.05 20.1"/>
  </g>
</svg>