<svg width="64" height="64" xmlns="http://www.w3.org/2000/svg" xmlns:xlink="http://www.w3.org/1999/xlink">
  <defs/>
  <g>
    <path stroke="none" fill="#FFFFFF" d="M61.4 0 L64 0 64 8.95 63.5 9.4 61.4 0 M64 18.2 L64 25.15 58.45 19.85 64 18.2 M64 36.85 L64 45.8 59.3 46 64 36.85 M64 60.7 L64 64 61.4 64 60.45 59.55 64 60.7 M49.25 64 L36.95 64 49.25 56.9 49.25 64 M29.35 64 L18.35 64 22.3 54.65 29.35 64 M9.75 64 L0 64 0 60.7 9.95 63.85 9.75 64 M0 45.8 L0 36.8 1.75 33.4 9.45 45.3 0 45.8 M0 25.1 L0 18.2 8.1 15.85 4.7 29.65 0 25.1 M0 8.95 L0 0 9.75 0 0 8.95 M18.35 0 L29.35 0 30.85 2 16.75 3.7 18.35 0 M36.95 0 L49.25 0 49.25 7.1 36.95 0 M45.5 30.45 L37.5 18.65 51.7 17.65 45.5 30.45 M42.45 52.1 L38.75 38.35 52.45 42 42.45 52.1 M31 23.05 L16.95 25.1 22.2 11.95 31 23.05 M25.15 51.45 L16 40.6 29.95 38.1 25.15 51.45"/>
    <path stroke="none" fill="#000000" d="M25.15 51.45 L29.95 38.1 16 40.6 25.15 51.45 M64 8.95 L64 18.2 58.45 19.85 64 25.15 64 36.85 59.3 46 64 45.8 64 60.7 60.45 59.55 61.4 64 49.25 64 49.25 56.9 36.95 64 29.35 64 22.3 54.65 18.35 64 9.75 64 9.95 63.85 0 60.7 0 45.8 9.45 45.3 1.75 33.4 0 36.8 0 25.1 4.7 29.65 8.1 15.85 0 18.2 0 8.95 9.75 0 18.35 0 16.75 3.7 30.85 2 29.35 0 36.95 0 49.25 7.1 49.25 0 61.4 0 63.5 9.4 64 8.95 M31 23.05 L22.2 11.95 16.95 25.1 31 23.05 M42.45 52.1 L52.45 42 38.75 38.35 42.45 52.1 M45.5 30.45 L51.7 17.65 37.5 18.65 45.5 30.45"/>
  </g>
</svg>