<svg width="64" height="64" xmlns="http://www.w3.org/2000/svg" xmlns:xlink="http://www.w3.org/1999/xlink">
  <defs/>
  <g>
    <path stroke="none" fill="#000000" d="M58 51 L34 51 Q31 51 31 54 L31 58 Q31 61 34 61 L58 61 Q61 61 61 58 L61 54 Q61 51 58 51 M58 35 L54 35 Q51 35 51 38 L51 42 Q51 45 54 45 L58 45 Q61 45 61 42 L61 38 Q61 35 58 35 M31 26 L31 42 Q31 45 34 45 L42 45 Q45 45 45 42 L45 26 Q45 23 42 23 L34 23 Q31 23 31 26 M31 14 Q31 17 34 17 L42 17 Q45 17 45 14 L45 6 Q45 3 42 3 L34 3 Q31 3 31 6 L31 14 M54 3 Q51 3 51 6 L51 26 Q51 29 54 29 L58 29 Q61 29 61 26 L61 6 Q61 3 58 3 L54 3 M64 64 L0 64 0 0 64 0 64 64 M3 50 L3 58 Q3 61 6 61 L22 61 Q25 61 25 58 L25 50 Q25 47 22 47 L6 47 Q3 47 3 50 M15 38 Q15 41 18 41 L22 41 Q25 41 25 38 L25 34 Q25 31 22 31 L18 31 Q15 31 15 34 L15 38 M13 34 Q13 31 10 31 L6 31 Q3 31 3 34 L3 38 Q3 41 6 41 L10 41 Q13 41 13 38 L13 34 M25 22 L25 6 Q25 3 22 3 L6 3 Q3 3 3 6 L3 22 Q3 25 6 25 L22 25 Q25 25 25 22"/>
    <path stroke="none" fill="#FFFFFF" d="M25 22 Q25 25 22 25 L6 25 Q3 25 3 22 L3 6 Q3 3 6 3 L22 3 Q25 3 25 6 L25 22 M54 3 L58 3 Q61 3 61 6 L61 26 Q61 29 58 29 L54 29 Q51 29 51 26 L51 6 Q51 3 54 3 M31 14 L31 6 Q31 3 34 3 L42 3 Q45 3 45 6 L45 14 Q45 17 42 17 L34 17 Q31 17 31 14 M31 26 Q31 23 34 23 L42 23 Q45 23 45 26 L45 42 Q45 45 42 45 L34 45 Q31 45 31 42 L31 26 M58 35 Q61 35 61 38 L61 42 Q61 45 58 45 L54 45 Q51 45 51 42 L51 38 Q51 35 54 35 L58 35 M58 51 Q61 51 61 54 L61 58 Q61 61 58 61 L34 61 Q31 61 31 58 L31 54 Q31 51 34 51 L58 51 M13 34 L13 38 Q13 41 10 41 L6 41 Q3 41 3 38 L3 34 Q3 31 6 31 L10 31 Q13 31 13 34 M15 38 L15 34 Q15 31 18 31 L22 31 Q25 31 25 34 L25 38 Q25 41 22 41 L18 41 Q15 41 15 38 M3 50 Q3 47 6 47 L22 47 Q25 47 25 50 L25 58 Q25 61 22 61 L6 61 Q3 61 3 58 L3 50"/>
  </g>
</svg>