<svg width="64" height="64" xmlns="http://www.w3.org/2000/svg" xmlns:xlink="http://www.w3.org/1999/xlink">
  <defs/>
  <g>
    <path stroke="none" fill="#FFFFFF" d="M64 23.95 Q51.4 24.6 45.6 16.3 39.75 8 32 7.95 24.25 7.95 18.45 16.3 12.6 24.55 0 23.9 L0 -0.05 64 -0.05 64 23.95 M0 55.85 Q12.6 56.5 18.45 48.25 24.25 39.95 32 39.95 39.75 40 45.6 48.25 50.55 55.35 60.5 55.9 L64 55.9 64 64 60.5 64 0 64 0 55.85"/>
    <path stroke="none" fill="#000000" d="M0 55.85 L0 23.9 Q12.6 24.55 18.45 16.3 24.25 7.95 32 7.95 39.75 8 45.6 16.3 51.4 24.6 64 23.95 L64 55.9 60.5 55.9 Q50.55 55.35 45.6 48.25 39.75 40 32 39.95 24.25 39.95 18.45 48.25 12.6 56.5 0 55.85"/>
  </g>
</svg>