<svg width="64" height="64" xmlns="http://www.w3.org/2000/svg" xmlns:xlink="http://www.w3.org/1999/xlink">
  <defs/>
  <g>
    <path stroke="none" fill="#FFFFFF" d="M40.8 0 L38.7 2.1 36.6 4.2 35.35 5.6 Q34.75 6.45 34.7 7.3 34.5 10.1 34.65 13.1 34.7 13.7 35 14.15 35.35 14.7 35.9 14.7 L39.55 14.9 43.25 14.9 45.45 14.9 47.6 14.45 49.1 13.55 Q49.95 13 50.7 12.95 L53.05 12.85 Q54.45 12.75 55.25 12.1 L57.45 10.05 59.55 7.9 60.65 6.75 Q61.2 6 61.1 5.25 60.8 4.5 59.95 3.6 L58.45 2.05 57.9 1.3 57.75 0 60.6 0 Q60.75 1.5 64 3.7 L64 7.35 61.4 9.75 58.9 12.25 57.95 13.25 57.2 14.45 Q57.05 15.1 57.5 15.75 L58.4 16.85 61.15 19.6 64 22.2 64 26.45 61.85 28.2 59.85 30.2 54.2 35.8 53.15 36.95 52.35 38.2 52.15 40.15 52.1 42.1 52.1 44.55 52.3 47 Q52.45 47.8 53.15 48.65 L54.45 50.05 56.65 52.2 58.8 54.3 Q59.8 55.2 61.3 55.25 L64 54.75 64 57.85 62.55 58 61.15 58.4 Q60.8 58.6 60.7 59.05 L60.55 59.9 Q60.4 61.85 60.6 64 L57.75 64 57.8 61.05 57.7 58.15 Q57.6 57.2 56.85 56.25 L55.4 54.7 52.55 51.8 49.4 49.2 48.15 48.3 Q47.35 47.85 46.7 47.95 45.95 48 45.7 49.2 45.55 50.7 45.65 53.9 L45.5 58.6 45.05 59.65 44.3 60.5 40.8 64 37.05 64 39.1 62 41.1 59.95 42.35 58.5 Q42.9 57.6 42.85 56.75 L42.9 53 42.9 49.25 42.8 47.7 Q42.65 46.8 42.2 46.3 41.8 45.85 41.05 45.65 L39.75 45.5 36 45.45 32.25 45.5 30.8 45.6 Q30 45.7 29.5 46.15 29 46.45 28.75 47 L28.45 48.15 28.35 51.6 28.35 55 28.4 56.5 28.7 57.95 29.5 59.3 30.3 60.65 30.5 62.3 30.55 64 27.8 64 27.75 62.75 27.5 61.6 26.65 60.2 25.85 58.8 Q25.55 57.65 25.65 55.3 L25.45 51.8 25.1 51.2 24.5 51.1 23.55 51.7 22.65 52.4 Q21.55 53.25 20.6 53.3 L19.6 53.5 Q18.95 53.6 18.6 53.85 18.15 54.35 18.05 55.3 L17.95 56.85 18.05 59 Q18.25 60.25 18.9 61 L20.3 62.5 21.75 64 18.05 64 16.7 62.65 15.55 61.05 Q15.25 60.05 15.25 58.3 L15.15 55.5 14.7 54.65 14.1 53.9 12.5 52.35 10.85 50.9 Q10.4 50.6 9.8 50.55 L9.5 50.55 Q7.5 50.7 6.3 52.05 L5.5 52.8 Q4.15 53.7 3.2 55.4 2 57.65 0 57.85 L0 54.75 Q1.7 54.05 3.65 51.65 L5.9 48.6 6.25 47.1 6.3 41.3 5.95 35.55 Q5.8 34.55 4.95 33.55 L3.4 31.85 Q2.9 31.2 2.65 29.55 L2.05 27.25 Q1.65 26.45 1.05 26.3 L0 26.45 0 22.2 1.5 23.55 3.1 24.9 Q3.9 25.55 4.5 25.65 L5.6 25.5 7.75 23.6 9.75 21.6 11.75 19.55 13.85 17.6 Q14.4 17.15 15.45 17.05 16.6 16.95 18.65 17 L21.85 16.95 22.7 16.8 23.35 16.3 Q23.5 15.7 23.05 15.05 L22.25 14 21.1 13 Q20.45 12.45 19.75 12.4 L15.65 12.2 11.5 12.2 Q10.65 12.1 9.85 11.55 L7.55 9.35 5.2 7.25 Q2.05 5.85 0 7.35 L0 3.7 Q1 4.3 1.95 4.2 L2.45 4.2 Q5.65 3.7 7.75 5.75 L8.95 7 Q10.5 8.65 11.65 9.2 L14.05 9.55 16.5 9.5 18.2 9.35 Q19.15 9.15 19.35 8.35 L19.55 5.7 19.5 3 Q19.55 1.5 18.05 0 L21.75 0 Q22.45 0.9 22.3 4.4 L22.25 4.85 22.25 8.25 22.4 9.7 23.05 11.05 Q24.6 12.95 27.05 14.6 27.8 13.4 27.75 11.5 L27.75 5.75 27.8 0 30.55 0 30.55 3 Q30.65 4.75 31.2 5.95 L37.05 0 40.8 0 M51.7 15.65 Q51.1 15.7 50.55 16 L49.55 16.65 48.55 17.3 47.4 17.6 41.7 17.6 36 17.6 34.65 17.7 Q33.9 17.8 33.4 18.1 31.85 19.2 31.15 20.65 30.7 21.85 30.9 23.15 31.1 24.5 32 25.4 L34.4 27.85 36.75 30.35 39.55 33.35 42.4 36.2 Q43.35 37.25 43.45 38.2 L43.5 40.7 43.7 43.2 Q43.85 43.85 44.4 44.3 44.95 44.75 45.65 44.8 L47.1 44.9 48.5 44.75 49.15 44.05 49.35 43.1 49.4 40.55 Q49.35 38.9 49.45 37.95 49.6 36.7 50.9 35.4 L60.1 26.2 61 25.2 Q61.45 24.55 61.25 23.9 L60.4 22.55 59.25 21.4 56.8 18.95 54.35 16.55 Q53.8 16 53.1 15.8 L51.7 15.65 M22.8 32.45 Q22.1 32.45 21.5 32.8 L20.5 33.75 Q20.1 34.25 19.95 35.15 L19.75 36.7 19.4 38.3 19.15 40 19.15 48.1 19.25 49.25 Q19.4 49.85 19.85 50.1 L20.6 50.2 21.25 49.85 22.65 48.7 23.9 47.4 26.05 45.4 28.3 43.5 Q29.1 42.85 30.45 42.75 L32.75 42.7 36.15 42.75 39.5 42.6 Q39.95 42.55 40.3 42.15 L40.7 41.3 40.7 39.3 Q40.55 38.15 39.9 37.5 L38 35.5 36.05 33.6 Q35.4 32.95 34.55 32.6 L32.75 32.35 27.8 32.35 22.8 32.45 M16.45 19.8 Q15.7 19.8 14.95 20.3 L13.7 21.35 10.45 24.6 7.15 27.9 6.45 28.65 5.9 29.5 Q5.8 30.65 6.75 31.55 7.6 32.35 8.8 32.55 L13 32.6 17.2 32.3 18.4 31.75 19.4 30.9 20.45 30.1 Q21.05 29.75 21.7 29.7 L25.55 29.6 29.4 29.5 30.35 29.35 30.85 28.65 Q30.6 27.95 29.6 26.8 28.6 25.65 28.35 24.9 L28.15 23.4 27.9 21.95 Q27.55 21.35 26.7 20.9 L25.25 20.25 Q24.5 19.8 23.35 19.75 L21.4 19.7 18.9 19.7 16.45 19.8 M10.55 35.45 Q10 35.4 9.55 35.75 9.05 36.1 9.05 36.6 L9 40.35 9 44.1 9 45.45 Q9.05 46.2 9.25 46.75 L10.15 47.45 11.25 47.9 Q12.05 48.2 13.25 49.4 L15.25 50.85 Q15.8 50.95 16.1 50.35 L16.35 49.35 16.4 44.15 Q16.35 40.75 16.45 39 L16.6 37.5 16.65 35.95 16.2 35.45 15.5 35.4 Q12.6 35.25 10.55 35.45"/>
    <path stroke="none" fill="#000000" d="M10.55 35.45 Q12.6 35.25 15.5 35.4 L16.2 35.45 16.65 35.95 16.6 37.5 16.45 39 Q16.35 40.75 16.4 44.15 L16.35 49.35 16.1 50.35 Q15.8 50.95 15.25 50.85 L13.25 49.4 Q12.05 48.2 11.25 47.9 L10.15 47.45 9.25 46.75 Q9.05 46.2 9 45.45 L9 44.1 9 40.35 9.05 36.6 Q9.05 36.1 9.55 35.75 10 35.4 10.55 35.45 M57.75 0 L57.9 1.3 58.45 2.05 59.95 3.6 Q60.8 4.5 61.1 5.25 61.2 6 60.65 6.75 L59.55 7.9 57.45 10.05 55.25 12.1 Q54.45 12.75 53.05 12.85 L50.7 12.95 Q49.95 13 49.1 13.55 L47.6 14.45 45.45 14.9 43.25 14.9 39.55 14.9 35.9 14.7 Q35.35 14.7 35 14.15 34.7 13.7 34.65 13.1 34.5 10.1 34.7 7.3 34.75 6.45 35.35 5.6 L36.6 4.2 38.7 2.1 40.8 0 57.75 0 M37.05 0 L31.2 5.95 Q30.65 4.75 30.55 3 L30.55 0 37.05 0 M27.8 0 L27.75 5.75 27.75 11.5 Q27.8 13.4 27.05 14.6 24.6 12.95 23.05 11.05 L22.4 9.7 22.25 8.25 22.25 4.85 22.3 4.4 Q22.45 0.9 21.75 0 L27.8 0 M18.05 0 Q19.55 1.5 19.5 3 L19.55 5.7 19.35 8.35 Q19.15 9.15 18.2 9.35 L16.5 9.5 14.05 9.55 11.65 9.2 Q10.5 8.65 8.95 7 L7.75 5.75 Q5.65 3.7 2.45 4.2 L1.95 4.2 Q1 4.3 0 3.7 L0 0 18.05 0 M0 7.35 Q2.05 5.85 5.2 7.25 L7.55 9.35 9.85 11.55 Q10.65 12.1 11.5 12.2 L15.65 12.2 19.75 12.4 Q20.45 12.45 21.1 13 L22.25 14 23.05 15.05 Q23.5 15.7 23.35 16.3 L22.7 16.8 21.85 16.95 18.65 17 Q16.6 16.95 15.45 17.05 14.4 17.15 13.85 17.6 L11.75 19.55 9.75 21.6 7.75 23.6 5.6 25.5 4.5 25.65 Q3.9 25.55 3.1 24.9 L1.5 23.55 0 22.2 0 7.35 M0 26.45 L1.05 26.3 Q1.65 26.45 2.05 27.25 L2.65 29.55 Q2.9 31.2 3.4 31.85 L4.95 33.55 Q5.8 34.55 5.95 35.55 L6.3 41.3 6.25 47.1 5.9 48.6 3.65 51.65 Q1.7 54.05 0 54.75 L0 26.45 M0 57.85 Q2 57.65 3.2 55.4 4.15 53.7 5.5 52.8 L6.3 52.05 Q7.5 50.7 9.5 50.55 L9.8 50.55 Q10.4 50.6 10.85 50.9 L12.5 52.35 14.1 53.9 14.7 54.65 15.15 55.5 15.25 58.3 Q15.25 60.05 15.55 61.05 L16.7 62.65 18.05 64 0 64 0 57.85 M21.75 64 L20.3 62.5 18.9 61 Q18.25 60.25 18.05 59 L17.95 56.85 18.05 55.3 Q18.15 54.35 18.6 53.85 18.95 53.6 19.6 53.5 L20.6 53.3 Q21.55 53.25 22.65 52.4 L23.55 51.7 24.5 51.1 25.1 51.2 25.45 51.8 25.65 55.3 Q25.55 57.65 25.85 58.8 L26.65 60.2 27.5 61.6 27.75 62.75 27.8 64 21.75 64 M30.55 64 L30.5 62.3 30.3 60.65 29.5 59.3 28.7 57.95 28.4 56.5 28.35 55 28.35 51.6 28.45 48.15 28.75 47 Q29 46.45 29.5 46.15 30 45.7 30.8 45.6 L32.25 45.5 36 45.45 39.75 45.5 41.05 45.65 Q41.8 45.85 42.2 46.3 42.65 46.8 42.8 47.7 L42.9 49.25 42.9 53 42.85 56.75 Q42.9 57.6 42.35 58.5 L41.1 59.95 39.1 62 37.05 64 30.55 64 M40.8 64 L44.3 60.5 45.05 59.65 45.5 58.6 45.65 53.9 Q45.55 50.7 45.7 49.2 45.95 48 46.7 47.95 47.35 47.85 48.15 48.3 L49.4 49.2 52.55 51.8 55.4 54.7 56.85 56.25 Q57.6 57.2 57.7 58.15 L57.8 61.05 57.75 64 40.8 64 M60.6 64 Q60.4 61.85 60.55 59.9 L60.7 59.05 Q60.8 58.6 61.15 58.4 L62.55 58 64 57.85 64 64 60.6 64 M64 54.75 L61.3 55.25 Q59.8 55.2 58.8 54.3 L56.65 52.2 54.45 50.05 53.15 48.65 Q52.45 47.8 52.3 47 L52.1 44.55 52.1 42.1 52.15 40.15 52.35 38.2 53.15 36.95 54.2 35.8 59.85 30.2 61.85 28.2 64 26.45 64 54.75 M64 22.2 L61.15 19.6 58.4 16.85 57.5 15.75 Q57.05 15.1 57.2 14.45 L57.95 13.25 58.9 12.25 61.4 9.75 64 7.35 64 22.2 M64 3.7 Q60.75 1.5 60.6 0 L64 0 64 3.7 M51.7 15.65 L53.1 15.8 Q53.8 16 54.35 16.55 L56.8 18.95 59.25 21.4 60.4 22.55 61.25 23.9 Q61.45 24.55 61 25.2 L60.1 26.2 50.9 35.4 Q49.6 36.7 49.45 37.95 49.35 38.9 49.4 40.55 L49.35 43.1 49.15 44.05 48.5 44.75 47.1 44.9 45.65 44.8 Q44.95 44.75 44.4 44.3 43.85 43.85 43.7 43.2 L43.5 40.7 43.45 38.2 Q43.35 37.25 42.4 36.2 L39.55 33.35 36.75 30.35 34.4 27.85 32 25.4 Q31.1 24.5 30.9 23.15 30.7 21.85 31.15 20.65 31.85 19.2 33.4 18.1 33.9 17.8 34.65 17.7 L36 17.6 41.7 17.6 47.4 17.6 48.55 17.3 49.55 16.65 50.55 16 Q51.1 15.7 51.7 15.65 M22.8 32.45 L27.8 32.35 32.75 32.35 34.55 32.6 Q35.4 32.95 36.05 33.6 L38 35.5 39.9 37.5 Q40.55 38.15 40.7 39.3 L40.7 41.3 40.3 42.15 Q39.95 42.55 39.5 42.6 L36.15 42.75 32.75 42.7 30.45 42.75 Q29.1 42.85 28.3 43.5 L26.05 45.4 23.9 47.4 22.65 48.7 21.25 49.85 20.6 50.2 19.85 50.1 Q19.4 49.85 19.25 49.25 L19.15 48.1 19.15 40 19.4 38.3 19.75 36.7 19.95 35.15 Q20.1 34.25 20.5 33.75 L21.5 32.8 Q22.1 32.45 22.8 32.45 M16.45 19.8 L18.9 19.7 21.4 19.7 23.35 19.75 Q24.5 19.8 25.25 20.25 L26.7 20.9 Q27.55 21.35 27.9 21.95 L28.15 23.4 28.35 24.9 Q28.6 25.65 29.6 26.8 30.6 27.95 30.85 28.65 L30.35 29.35 29.4 29.5 25.55 29.6 21.7 29.7 Q21.05 29.75 20.45 30.1 L19.4 30.9 18.4 31.75 17.2 32.3 13 32.6 8.8 32.55 Q7.6 32.35 6.75 31.55 5.8 30.65 5.9 29.5 L6.45 28.65 7.15 27.9 10.45 24.6 13.7 21.35 14.95 20.3 Q15.7 19.8 16.45 19.8"/>
  </g>
</svg>