<svg width="64" height="64" xmlns="http://www.w3.org/2000/svg" xmlns:xlink="http://www.w3.org/1999/xlink">
  <defs/>
  <g>
    <path stroke="none" fill="#000000" d="M0 3 L0 0 64 0 64 3 53.5 2.55 52.35 29.5 64 30 64 34.65 23.1 35.75 23.8 62.7 64 61.65 64 64 0 64 0 61.65 17.6 61.2 16.9 34.2 0 34.65 0 30 46.1 31.95 46.5 24.05 46.45 24 46.5 24 47.25 4.95 0 3"/>
    <path stroke="none" fill="#FFFFFF" d="M0 3 L47.25 4.95 46.5 24 46.45 24 46.5 24.05 46.1 31.95 0 30 0 3 M0 34.65 L16.9 34.2 17.6 61.2 0 61.65 0 34.65 M64 61.65 L23.8 62.7 23.1 35.75 64 34.65 64 61.65 M64 30 L52.35 29.5 53.5 2.55 64 3 64 30"/>
  </g>
</svg>