<svg width="64" height="64" xmlns="http://www.w3.org/2000/svg" xmlns:xlink="http://www.w3.org/1999/xlink">
  <defs/>
  <g>
    <path stroke="none" fill="#000000" d="M56.4 0 L56.3 0.15 Q55.8 1.7 56.15 2.7 56.45 3.65 57.8 4.6 L60.9 6.4 64 7.75 64 14.2 63.25 14.25 59.7 14.85 Q58.1 15.25 57.5 16.05 56.85 16.85 56.75 18.45 56.7 19.45 56.95 22.05 57.25 24.65 57.5 25.6 57.95 27.2 58.75 27.8 59.5 28.45 61.15 28.55 L64 28.45 64 35.45 62.65 35.7 59.15 36.55 Q57.6 37.15 57.05 38 56.5 38.85 56.55 40.45 L57 44 57.9 47.5 Q58.45 49.05 59.3 49.6 60.15 50.15 61.75 50.1 L64 49.85 64 56.3 63.95 56.25 61.45 56.15 Q60.45 56.4 59.5 57.75 L57.75 60.85 Q56.7 63.05 56.4 64 L49.75 64 49.65 63.15 49 59.6 Q48.55 58.05 47.75 57.4 46.95 56.75 45.35 56.7 L41.75 56.95 38.2 57.6 Q36.6 58 36 58.85 35.35 59.65 35.3 61.25 L35.45 64 28.55 64 28.15 62.25 27.05 58.8 Q26.4 57.35 25.5 56.85 24.65 56.3 23 56.45 L19.5 57.15 16.05 58.2 Q14.55 58.85 14.1 59.75 13.55 60.65 13.7 62.25 L14 64 7.8 64 7.85 63.9 Q8.35 62.35 8 61.4 7.7 60.4 6.4 59.45 5.6 58.9 3.25 57.7 0.95 56.55 0 56.3 L0 49.85 1.35 49.65 4.8 48.75 Q6.35 48.2 6.9 47.35 7.5 46.5 7.4 44.9 L6.95 41.3 6.05 37.85 Q5.5 36.3 4.65 35.75 3.8 35.15 2.2 35.2 L0 35.45 0 28.45 0.75 28.35 4.3 27.75 Q5.85 27.35 6.5 26.55 7.15 25.75 7.25 24.15 L7.05 20.55 6.45 17 Q6.05 15.4 5.25 14.8 4.45 14.15 2.85 14.1 L0 14.2 0 7.75 0.2 7.8 2.7 7.95 Q3.7 7.65 4.65 6.35 L6.45 3.2 7.85 0 14 0 14.4 1.75 15.45 5.2 Q16.1 6.7 17 7.2 17.85 7.7 19.5 7.55 L23 6.9 26.45 5.8 Q27.95 5.15 28.45 4.25 28.95 3.4 28.8 1.75 L28.55 0 35.45 0 35.5 0.85 36.15 4.4 Q36.6 6 37.4 6.6 38.2 7.25 39.85 7.3 L43.45 7.05 46.95 6.45 Q48.55 6 49.15 5.15 49.8 4.4 49.85 2.75 L49.75 0 56.4 0 M44 14.3 L40.4 13.85 Q38.8 13.75 37.95 14.35 37.1 14.9 36.55 16.45 L35.65 19.95 35.15 23.5 Q35.05 25.15 35.7 25.95 36.2 26.85 37.75 27.4 L41.25 28.3 44.8 28.75 Q46.45 28.85 47.3 28.25 48.15 27.7 48.7 26.15 L49.6 22.65 50.1 19.1 Q50.15 17.45 49.55 16.65 49 15.75 47.45 15.2 L44 14.3 M47.7 37.6 L45 35.2 Q43.7 34.25 42.65 34.25 41.65 34.25 40.35 35.2 L37.65 37.6 35.25 40.3 Q34.3 41.6 34.3 42.6 34.3 43.65 35.25 44.95 L37.65 47.65 40.35 50.05 Q41.65 51 42.65 51 43.7 51 45 50.05 L47.7 47.65 50.1 44.95 Q51.05 43.65 51.05 42.6 51.05 41.6 50.1 40.3 L47.7 37.6 M28.25 41.3 L27.35 37.8 Q26.8 36.3 25.9 35.75 25.05 35.15 23.45 35.25 L19.9 35.75 16.4 36.7 Q14.9 37.25 14.35 38.1 13.75 38.95 13.85 40.6 L14.35 44.15 Q14.95 46.7 15.3 47.65 15.85 49.15 16.7 49.7 17.55 50.3 19.2 50.2 L22.75 49.7 26.2 48.75 Q27.75 48.2 28.3 47.3 28.9 46.5 28.8 44.85 L28.25 41.3 M22.8 14.4 L19.3 13.8 Q17.65 13.7 16.8 14.3 15.9 14.8 15.35 16.35 L14.35 19.8 13.75 23.3 Q13.7 24.95 14.25 25.8 14.8 26.7 16.3 27.3 L19.75 28.25 23.3 28.85 Q24.95 28.9 25.75 28.35 26.65 27.8 27.25 26.3 L28.2 22.85 28.8 19.3 Q28.9 17.7 28.3 16.85 27.8 15.95 26.25 15.35 L22.8 14.4"/>
    <path stroke="none" fill="#FFFFFF" d="M22.8 14.4 L26.25 15.35 Q27.8 15.95 28.3 16.85 28.9 17.7 28.8 19.3 L28.2 22.85 27.25 26.3 Q26.65 27.8 25.75 28.35 24.95 28.9 23.3 28.85 L19.75 28.25 16.3 27.3 Q14.8 26.7 14.25 25.8 13.7 24.95 13.75 23.3 L14.35 19.8 15.35 16.35 Q15.9 14.8 16.8 14.3 17.65 13.7 19.3 13.8 L22.8 14.4 M64 7.75 L60.9 6.4 57.8 4.6 Q56.45 3.65 56.15 2.7 55.8 1.7 56.3 0.15 L56.4 0 64 0 64 7.75 M49.75 0 L49.85 2.75 Q49.8 4.4 49.15 5.15 48.55 6 46.95 6.45 L43.45 7.05 39.85 7.3 Q38.2 7.25 37.4 6.6 36.6 6 36.15 4.4 L35.5 0.85 35.45 0 49.75 0 M28.55 0 L28.8 1.75 Q28.95 3.4 28.45 4.25 27.95 5.15 26.45 5.8 L23 6.9 19.5 7.55 Q17.85 7.7 17 7.2 16.1 6.7 15.45 5.2 L14.4 1.75 14 0 28.55 0 M7.85 0 L6.45 3.2 4.65 6.35 Q3.7 7.65 2.7 7.95 L0.2 7.8 0 7.75 0 0 7.85 0 M0 14.2 L2.85 14.1 Q4.45 14.15 5.25 14.8 6.05 15.4 6.45 17 L7.05 20.55 7.25 24.15 Q7.15 25.75 6.5 26.55 5.85 27.35 4.3 27.75 L0.75 28.35 0 28.45 0 14.2 M0 35.45 L2.2 35.2 Q3.8 35.15 4.65 35.75 5.5 36.3 6.05 37.85 L6.95 41.3 7.4 44.9 Q7.5 46.5 6.9 47.35 6.35 48.2 4.8 48.75 L1.35 49.65 0 49.85 0 35.45 M0 56.3 Q0.95 56.55 3.25 57.7 5.6 58.9 6.4 59.45 7.7 60.4 8 61.4 8.35 62.35 7.85 63.9 L7.8 64 0 64 0 56.3 M14 64 L13.7 62.25 Q13.55 60.65 14.1 59.75 14.55 58.85 16.05 58.2 L19.5 57.15 23 56.45 Q24.65 56.3 25.5 56.85 26.4 57.35 27.05 58.8 L28.15 62.25 28.55 64 14 64 M35.45 64 L35.3 61.25 Q35.35 59.65 36 58.85 36.6 58 38.2 57.6 L41.75 56.95 45.35 56.7 Q46.95 56.75 47.75 57.4 48.55 58.05 49 59.6 L49.65 63.15 49.75 64 35.45 64 M56.4 64 Q56.7 63.05 57.75 60.85 L59.5 57.75 Q60.45 56.4 61.45 56.15 L63.95 56.25 64 56.3 64 64 56.4 64 M64 49.85 L61.75 50.1 Q60.15 50.15 59.3 49.6 58.45 49.05 57.9 47.5 L57 44 56.55 40.45 Q56.5 38.85 57.05 38 57.6 37.15 59.15 36.55 L62.65 35.7 64 35.45 64 49.85 M64 28.45 L61.15 28.55 Q59.5 28.45 58.75 27.8 57.95 27.2 57.5 25.6 57.25 24.65 56.95 22.05 56.7 19.45 56.75 18.45 56.85 16.85 57.5 16.05 58.1 15.25 59.7 14.85 L63.25 14.25 64 14.2 64 28.45 M44 14.3 L47.45 15.2 Q49 15.75 49.55 16.65 50.15 17.45 50.1 19.1 L49.6 22.65 48.7 26.15 Q48.15 27.7 47.3 28.25 46.45 28.85 44.8 28.75 L41.25 28.3 37.75 27.4 Q36.2 26.85 35.7 25.95 35.05 25.15 35.15 23.5 L35.65 19.95 36.55 16.45 Q37.1 14.9 37.95 14.35 38.8 13.75 40.4 13.85 L44 14.3 M47.7 37.6 L50.1 40.3 Q51.05 41.6 51.05 42.6 51.05 43.65 50.1 44.95 L47.7 47.65 45 50.05 Q43.7 51 42.65 51 41.65 51 40.35 50.05 L37.65 47.65 35.25 44.95 Q34.3 43.65 34.3 42.6 34.3 41.6 35.25 40.3 L37.65 37.6 40.35 35.2 Q41.65 34.25 42.65 34.25 43.7 34.25 45 35.2 L47.7 37.6 M28.25 41.3 L28.8 44.85 Q28.9 46.5 28.3 47.3 27.75 48.2 26.2 48.75 L22.75 49.7 19.2 50.2 Q17.55 50.3 16.7 49.7 15.85 49.15 15.3 47.65 14.95 46.7 14.35 44.15 L13.85 40.6 Q13.75 38.95 14.35 38.1 14.9 37.25 16.4 36.7 L19.9 35.75 23.45 35.25 Q25.05 35.15 25.9 35.75 26.8 36.3 27.35 37.8 L28.25 41.3"/>
  </g>
</svg>