<svg width="64" height="64" xmlns="http://www.w3.org/2000/svg" xmlns:xlink="http://www.w3.org/1999/xlink">
  <defs/>
  <g>
    <path stroke="none" fill="#FFFFFF" d="M49.7 0 L49.6 0.8 49.1 1.4 Q48.75 1.75 48 1.8 L46.85 2 Q45.95 2.3 45.3 3.05 44.65 3.8 44.5 4.75 44.3 5.7 44.7 6.7 45.1 7.65 45.9 8.2 46.65 8.75 47.6 8.85 L49.35 8.6 Q50.3 8.25 50.95 7.35 51.55 6.4 51.55 5.4 51.5 4.8 51.9 4.3 52.25 3.8 52.85 3.6 L54.15 3.75 Q54.8 4.1 55 4.75 55.25 5.3 55 5.95 54.8 6.6 54.25 6.9 L53.4 7.15 52.55 7.2 51.3 7.75 50.35 8.75 Q49.9 9.45 49.8 10.3 49.7 11.15 50 11.9 50.3 12.7 50.95 13.3 L52.4 14.1 53.05 14.2 53.75 14.3 54.4 14.6 54.9 15.15 55.15 16.15 55.3 17.15 Q55.7 18.35 56.8 19 57.9 19.7 59.1 19.55 60.1 19.4 60.9 18.75 61.7 18.1 62 17.15 L62.2 16.05 Q62.25 15.35 62.5 15 L63.15 14.45 64 14.2 64 17.8 Q63.05 17.8 62.2 18.3 61.3 18.8 60.9 19.65 60.35 20.6 60.5 21.75 60.6 22.85 61.3 23.7 61.8 24.25 62.55 24.55 L64 24.9 64 28.5 63.25 28.3 Q62.85 28.15 62.65 27.85 L62.25 27.1 62.15 26.25 Q62.05 25 61.1 24.1 60.15 23.2 58.9 23.15 57.9 23.15 57.4 22.6 56.85 22.15 56.85 21.1 56.8 20.1 56.2 19.25 55.55 18.4 54.6 18.05 L53.85 17.85 53.1 17.8 52.05 17.25 Q51.6 16.8 51.55 16.15 51.5 15 51.1 14.3 50.5 13.15 49.25 12.7 47.95 12.2 46.75 12.7 45.6 13.1 44.9 14.25 44.25 15.4 44.5 16.65 44.65 17.6 45.3 18.35 45.95 19.1 46.85 19.35 L48.05 19.55 Q48.8 19.65 49.15 19.95 49.75 20.45 49.8 21.25 49.85 22.05 49.3 22.55 48.8 23.1 48.05 23.15 47.25 23.15 46.75 22.65 46.2 22.15 46.2 21.1 46.15 20.1 45.5 19.25 44.85 18.35 43.9 18 L41.6 17.95 Q40.45 18.35 39.75 19.3 39.15 20.15 39.1 21.4 L38.85 22.3 38.15 22.95 37.3 23.15 36.45 23.25 Q35.6 23.45 34.9 24.1 34.2 24.75 33.95 25.6 L33.8 26.7 33.45 27.7 Q33.05 28.35 32.25 28.45 31.5 28.55 30.9 28.1 L30.4 27.45 30.2 26.65 Q30.2 25.65 29.65 24.8 29.15 23.95 28.25 23.5 L25.9 23.25 Q24.6 23.5 23.85 24.5 23.35 25.2 23.15 26.05 23 26.95 23.3 27.75 23.55 28.55 24.15 29.2 24.8 29.8 25.6 30.05 L26.7 30.25 Q27.4 30.3 27.75 30.6 28.4 31.05 28.45 31.9 28.5 32.7 27.95 33.25 27.5 33.75 26.7 33.8 25.95 33.85 25.45 33.3 L25 32.65 24.85 31.9 Q24.85 31 24.35 30.15 L23.1 28.95 Q22.2 28.4 21.1 28.5 20 28.55 19.2 29.2 18.55 29.65 18.2 30.4 17.8 31.1 17.8 31.85 L17.65 32.65 17.2 33.35 Q16.65 33.85 15.85 33.8 15.05 33.75 14.6 33.15 14.25 32.75 14.2 32 L14 30.8 Q13.55 29.5 12.25 28.85 L9.65 28.6 Q8.45 28.95 7.75 30 7 31.1 7.15 32.3 7.2 33.35 7.85 34.2 8.55 35.05 9.55 35.35 L10.65 35.55 Q11.4 35.6 11.75 35.9 12.35 36.35 12.45 37.2 12.5 38.05 11.95 38.6 11.45 39.15 10.4 39.15 9.1 39.2 8.15 40.15 7.2 41.1 7.15 42.4 7.1 43.4 6.65 43.9 6.15 44.45 5.35 44.45 4.55 44.5 4.05 43.95 3.55 43.45 3.55 42.7 3.55 41.95 4.05 41.45 4.3 41.15 4.7 41 L5.5 40.9 7.3 40.3 Q8.1 39.75 8.5 38.9 9.1 37.75 8.75 36.4 8.35 35.05 7.25 34.35 6.2 33.65 4.8 33.85 3.45 34.05 2.65 35.05 2.2 35.5 2 36.2 1.75 36.8 1.75 37.5 1.75 38.2 1.2 38.65 L1.1 38.75 Q0.65 39.15 0 39.15 L0 35.55 1.1 35.4 2.05 34.9 Q3 34.2 3.35 33.15 L3.55 32.1 Q3.6 31.4 3.8 31.05 L4.5 30.45 Q4.9 30.2 5.4 30.2 L7 29.8 8.25 28.65 Q8.8 27.85 8.85 26.85 8.9 25.9 8.45 25.05 8.05 24.2 7.2 23.65 6.35 23.15 5.35 23.15 L4.45 22.9 3.75 22.25 3.5 21.2 3.35 20.15 Q3 19.1 2.05 18.45 1.6 18.15 1.1 18 L0 17.8 0 14.2 0.1 14.25 Q0.7 14.3 1.1 14.6 L1.2 14.65 1.45 14.95 1.8 16 1.95 17.1 Q2.25 18.05 3.05 18.75 3.85 19.4 4.9 19.55 6.1 19.7 7.2 19 8.3 18.35 8.7 17.15 L8.85 16.2 9.05 15.2 9.55 14.6 Q9.85 14.35 10.25 14.3 L10.95 14.2 11.6 14.1 Q12.45 13.85 13.15 13.2 13.8 12.55 14.05 11.7 L14.2 10.6 Q14.3 9.95 14.55 9.6 15 8.95 15.85 8.9 16.7 8.85 17.25 9.4 17.85 9.95 17.8 10.8 17.75 11.65 17.1 12.1 L16.05 12.45 14.95 12.6 Q14.15 12.85 13.55 13.45 12.9 14.1 12.65 14.9 12.5 15.15 12.5 15.6 L12.4 16.35 Q12.3 17 11.8 17.4 L10.6 17.8 Q9.55 17.8 8.65 18.4 7.75 19.05 7.4 20 7.05 20.8 7.15 21.75 7.25 22.65 7.75 23.35 L8.9 24.4 10.35 24.85 10.85 24.9 11.35 25.05 Q11.85 25.2 12.15 25.65 L12.45 26.6 12.65 27.85 13.3 28.95 Q14.05 29.9 15.3 30.15 16.55 30.4 17.6 29.85 18.8 29.3 19.3 27.95 19.8 26.65 19.3 25.45 18.95 24.45 18.05 23.8 17.2 23.15 16.1 23.15 15.2 23.15 14.75 22.65 14.2 22.15 14.2 21.35 14.2 20.6 14.7 20.1 15.2 19.55 16.25 19.55 17.55 19.5 18.5 18.5 19.45 17.55 19.5 16.3 19.5 15.8 19.65 15.4 L20.15 14.65 Q20.7 14.15 21.5 14.25 22.3 14.3 22.75 14.9 L23.1 16 23.3 17.1 Q23.6 18.1 24.4 18.75 25.25 19.45 26.25 19.55 27.45 19.7 28.5 19.05 29.6 18.35 30 17.25 L30.2 16 Q30.25 15.25 30.6 14.9 31.05 14.25 31.9 14.25 32.75 14.2 33.25 14.75 33.8 15.25 33.8 16.1 33.75 16.95 33.1 17.4 32.75 17.75 32.05 17.8 L30.85 18 Q29.95 18.3 29.3 19.05 28.65 19.8 28.5 20.75 28.3 21.75 28.75 22.75 29.15 23.7 30 24.3 30.75 24.8 31.65 24.85 L33.35 24.6 Q34.25 24.25 34.8 23.5 35.4 22.7 35.5 21.75 L35.55 21.2 35.7 20.6 Q35.9 20.15 36.35 19.85 36.85 19.55 37.35 19.55 38.2 19.55 39 19.15 L40.25 18 Q40.75 17.3 40.85 16.4 40.95 15.45 40.6 14.65 L39.65 13.35 Q39.05 12.8 38.25 12.6 L37.3 12.45 36.4 12.2 Q36 11.95 35.75 11.5 35.5 11.05 35.55 10.5 35.5 9.3 34.6 8.3 33.75 7.35 32.55 7.15 31.25 6.95 30.1 7.7 28.95 8.4 28.6 9.65 L28.45 10.8 Q28.35 11.45 28.05 11.8 27.55 12.5 26.65 12.45 25.7 12.45 25.25 11.75 24.95 11.45 24.9 10.75 L24.7 9.65 23.85 8.15 Q23.2 7.5 22.35 7.3 L21.25 7.15 Q20.6 7.05 20.25 6.75 19.6 6.3 19.55 5.45 19.5 4.6 20.05 4.1 20.6 3.5 21.45 3.55 22.3 3.6 22.75 4.25 L23.1 5.25 23.25 6.35 Q23.5 7.2 24.15 7.85 24.8 8.5 25.65 8.75 L27.2 8.85 Q28 8.75 28.65 8.3 L29.85 6.9 Q30.25 6.05 30.2 5.1 30.15 4.05 29.45 3.2 28.8 2.3 27.8 2 L26.7 1.8 Q26 1.75 25.65 1.5 24.95 1.05 24.85 0 L28.45 0 Q28.5 1.35 29.25 2.25 29.95 3.15 31.1 3.45 L33.3 3.3 Q34.3 2.95 34.9 2 35.55 1.1 35.55 0 L39.15 0 Q39.15 1 39.65 1.85 40.15 2.7 41 3.15 41.9 3.65 43.05 3.55 44.15 3.4 44.95 2.7 L45.85 1.5 Q46.2 0.8 46.15 0 L49.7 0 M64 7.1 Q62.75 7.2 61.9 7.8 61.25 8.3 60.85 9.05 60.45 9.8 60.45 10.65 60.45 11.25 60.05 11.8 59.65 12.3 59.05 12.4 L57.75 12.2 Q57.1 11.8 56.95 11.1 56.7 10.35 57.2 9.65 57.7 8.95 58.5 8.9 59.85 8.9 60.7 8.25 61.7 7.55 62.05 6.35 62.4 5.15 61.95 4.05 61.55 3.05 60.65 2.4 59.7 1.8 58.6 1.8 57.9 1.8 57.4 1.25 56.85 0.75 56.85 0 L60.45 0 Q60.45 0.8 60.8 1.55 L61.75 2.75 Q62.65 3.5 64 3.55 L64 7.1 M36.7 1.85 Q35.5 2.05 34.7 3 33.85 3.95 33.8 5.1 33.7 6.35 34.45 7.4 35.2 8.45 36.35 8.75 L38.65 8.65 Q39.8 8.15 40.35 7.15 41.05 6.05 40.8 4.7 40.55 3.35 39.55 2.6 L38.2 1.9 36.7 1.85 M24.85 64 L25 63.45 25.25 62.9 25.85 62.4 26.6 62.25 Q27.9 62.2 28.85 61.5 29.75 60.8 30.05 59.65 30.4 58.45 29.95 57.4 29.6 56.5 28.8 55.85 28 55.25 27 55.15 L26.35 55.1 25.75 54.9 Q25.2 54.55 24.95 53.9 24.75 53.25 25 52.65 25.25 52 25.9 51.7 L27.25 51.65 Q27.75 51.8 28.1 52.3 28.45 52.8 28.45 53.4 28.45 54.4 29.05 55.35 29.65 56.25 30.65 56.6 L32.4 56.85 Q33.35 56.75 34.05 56.2 L35.1 55.05 35.55 53.5 Q35.55 52.7 35.9 52.3 36.2 51.8 36.8 51.65 37.35 51.45 37.9 51.65 38.45 51.8 38.8 52.3 39.15 52.8 39.1 53.4 39.1 54.45 39.75 55.35 40.4 56.3 41.35 56.65 L43.2 56.85 Q44.15 56.7 44.85 56.1 45.8 55.4 46.1 54.15 46.4 52.85 45.85 51.8 45.4 50.9 44.5 50.35 43.65 49.8 42.6 49.8 41.9 49.8 41.4 49.25 40.85 48.75 40.85 48.05 40.9 46.9 40.15 45.9 39.45 44.95 38.35 44.6 37.1 44.2 35.8 44.85 34.5 45.45 34.05 46.7 L33.8 47.95 Q33.7 48.75 33.4 49.15 32.9 49.75 32.1 49.8 31.25 49.85 30.75 49.25 30.2 48.8 30.2 47.75 30.1 46.45 29.15 45.5 28.15 44.55 26.9 44.5 L25.9 44.3 25.2 43.7 Q24.95 43.35 24.85 42.65 L24.7 41.6 Q24.35 40.5 23.35 39.8 22.4 39.1 21.25 39.15 20.15 39.15 19.25 39.8 18.3 40.5 18 41.5 17.85 41.8 17.8 42.7 L17.4 43.8 Q16.95 44.4 16.1 44.45 15.25 44.5 14.7 43.9 14.15 43.4 14.2 42.55 14.25 41.75 14.9 41.25 15.25 40.95 15.95 40.9 L17.1 40.7 18.55 39.8 19.4 38.35 19.55 37.25 Q19.6 36.55 19.95 36.2 20.45 35.55 21.3 35.55 22.2 35.55 22.7 36.2 23.05 36.55 23.1 37.35 L23.3 38.55 Q23.7 39.65 24.75 40.35 25.85 41 27 40.85 28.05 40.8 28.9 40.1 29.75 39.4 30.05 38.4 L30.2 37.3 30.6 36.25 Q31.05 35.6 31.9 35.55 32.75 35.5 33.3 36.1 L33.7 36.9 33.8 37.75 Q33.95 39.05 34.95 39.95 35.95 40.9 37.25 40.9 L38.2 41.1 38.9 41.8 39.1 42.7 39.25 43.65 Q39.5 44.55 40.2 45.25 40.95 45.95 41.85 46.15 L44.1 45.9 Q45.25 45.4 45.75 44.4 L46.2 42.6 Q46.2 41.65 45.7 40.85 45.25 40.05 44.45 39.6 43.65 39.15 42.75 39.15 L41.9 38.95 41.2 38.4 40.9 37.65 40.85 36.85 Q40.7 35.65 39.75 34.75 38.75 33.85 37.5 33.8 L36.4 33.55 Q35.85 33.2 35.65 32.6 35.35 31.95 35.7 31.25 36.05 30.5 36.75 30.3 L38.05 30.4 Q38.7 30.7 38.95 31.3 L39.15 32.15 39.25 33 Q39.55 33.95 40.25 34.6 41 35.3 41.95 35.5 43.2 35.75 44.4 35.1 45.6 34.4 46 33.15 46.5 31.9 45.9 30.55 45.3 29.25 44 28.75 L42.7 28.5 41.5 28.05 Q40.9 27.55 40.9 26.75 40.85 25.95 41.4 25.4 41.9 24.85 42.75 24.9 43.6 24.95 44.05 25.55 44.4 25.95 44.45 26.7 L44.65 27.85 Q45.05 29 46.05 29.65 47.1 30.3 48.25 30.2 49.3 30.15 50.2 29.45 51.05 28.8 51.35 27.8 L51.55 26.7 Q51.6 26 51.9 25.65 52.3 25 53.15 24.9 53.95 24.8 54.5 25.35 55.1 25.8 55.1 26.6 55.15 27.4 54.65 27.9 54.15 28.5 53.1 28.5 52.05 28.55 51.15 29.2 50.25 29.9 49.95 30.95 L49.8 31.9 49.55 32.85 48.9 33.55 48 33.8 Q47.25 33.8 46.6 34.1 L45.4 34.9 Q44.7 35.7 44.5 36.8 44.3 37.85 44.75 38.8 45.15 39.65 45.9 40.2 46.7 40.75 47.6 40.85 L49.3 40.65 Q50.15 40.3 50.7 39.6 L51.35 38.5 51.55 37.25 Q51.55 36.55 52.1 36.05 52.65 35.55 53.35 35.55 54.45 35.55 55.4 34.9 56.35 34.2 56.7 33.15 L56.85 32 Q56.95 31.25 57.25 30.9 57.7 30.3 58.5 30.25 59.3 30.15 59.85 30.65 60.45 31.15 60.45 31.95 60.45 32.8 59.9 33.3 59.45 33.8 58.35 33.8 57.1 33.9 56.15 34.85 55.2 35.85 55.15 37.1 L54.95 38.05 54.4 38.8 53.3 39.15 52.15 39.35 Q51 39.7 50.3 40.8 49.65 41.95 49.8 43.15 49.95 44.15 50.65 45 51.3 45.8 52.3 46.05 L53.25 46.2 54.2 46.45 Q54.75 46.75 55 47.4 55.25 48 55 48.6 54.8 49.35 54 49.65 L52.5 49.6 51.8 48.95 Q51.55 48.5 51.55 48.05 L51.25 46.6 Q50.95 45.95 50.45 45.45 49.6 44.6 48.35 44.5 47.1 44.35 46.1 45 45 45.7 44.6 47.05 44.2 48.4 44.8 49.55 45.25 50.45 46.1 51 47 51.55 48 51.55 48.6 51.55 49.1 51.95 49.6 52.3 49.75 52.9 49.9 53.5 49.6 54.1 L48.8 54.95 47.85 55.15 46.9 55.3 Q45.8 55.65 45.15 56.6 44.45 57.55 44.45 58.65 L44.1 59.7 43.25 60.35 Q42.6 60.6 41.95 60.35 41.35 60.05 41.05 59.45 L40.85 58.7 40.8 57.9 Q40.6 57 39.9 56.25 39.25 55.55 38.35 55.3 L36.6 55.2 Q35.75 55.4 35.05 55.95 34.1 56.7 33.85 58 33.6 59.25 34.2 60.3 34.6 61.2 35.5 61.7 36.4 62.25 37.35 62.25 38.1 62.2 38.6 62.75 39.1 63.3 39.15 64 L35.55 64 Q35.5 62.65 34.75 61.75 34 60.85 32.85 60.55 L30.6 60.75 Q29.65 61.15 29.05 62.05 28.45 62.95 28.45 64 L24.85 64 M42.25 7.15 Q41.3 7.25 40.5 7.9 39.7 8.5 39.35 9.4 39.05 10.2 39.15 11.1 39.25 11.95 39.75 12.65 L41.05 13.85 42.75 14.2 44.05 13.95 45.15 13.2 45.95 12 46.2 10.65 45.9 9.2 45 8 Q44.45 7.55 43.7 7.3 L42.25 7.15 M46.15 64 L46.35 63.3 46.8 62.7 Q47.05 62.4 47.55 62.3 L48.4 62.2 Q49.65 62.1 50.55 61.1 51.5 60.15 51.5 58.9 L51.7 57.95 52.3 57.2 53.3 56.9 54.35 56.75 Q55.4 56.45 56.1 55.55 56.8 54.65 56.85 53.55 L57.05 52.55 57.7 51.85 Q58 51.6 58.65 51.55 L59.65 51.4 Q60.5 51.15 61.15 50.5 61.85 49.85 62.05 49 L62.2 48 Q62.25 47.4 62.45 47.1 62.7 46.7 63.1 46.45 63.5 46.25 64 46.2 L64 49.8 Q63.05 49.8 62.2 50.3 61.3 50.8 60.9 51.65 60.35 52.6 60.45 53.75 60.6 54.85 61.35 55.7 61.8 56.25 62.55 56.55 L64 56.9 64 60.45 62.45 60.8 Q61.75 61.15 61.25 61.75 60.5 62.7 60.45 64 L56.85 64 57 63.35 57.4 62.75 Q57.9 62.2 58.9 62.2 59.9 62.15 60.8 61.5 61.65 60.85 62 59.9 62.4 58.85 62.05 57.65 61.7 56.5 60.8 55.85 60.1 55.35 59.25 55.2 L57.55 55.3 Q56.7 55.6 56.05 56.3 55.4 57 55.2 57.9 L55.1 58.7 54.95 59.45 54.3 60.2 53.4 60.45 52.2 60.65 51.1 61.25 Q50.5 61.7 50.15 62.5 49.8 63.2 49.75 64 L46.15 64 M64 39.1 Q62.9 39.15 62.05 39.7 61.35 40.15 60.9 40.95 60.45 41.75 60.45 42.65 L60.25 43.45 59.75 44.1 58.5 44.45 Q57.8 44.4 57.35 43.9 56.85 43.4 56.85 42.6 56.9 41.8 57.45 41.35 57.75 41.1 58.2 40.95 L59 40.85 Q60.25 40.8 61.2 39.85 62.1 38.9 62.2 37.65 62.2 36.6 62.7 36.1 62.95 35.85 63.3 35.7 L64 35.55 64 39.1 M31.2 39.25 Q30.15 39.45 29.4 40.25 28.65 41.05 28.5 42.1 28.3 43.25 28.85 44.35 29.45 45.4 30.5 45.9 L32.75 46.15 Q33.95 45.85 34.7 44.95 35.35 44.2 35.5 43.2 35.65 42.15 35.25 41.25 34.75 40.1 33.6 39.5 32.4 38.9 31.2 39.25 M17.75 0 L17.6 0.8 17.1 1.4 Q16.75 1.75 16.05 1.8 L14.85 2 Q13.8 2.3 13.15 3.25 12.45 4.15 12.45 5.25 L12.2 6.2 11.55 6.9 10.6 7.15 9.65 7.3 Q8.55 7.6 7.85 8.55 7.1 9.5 7.1 10.65 7.15 11.2 6.8 11.7 6.45 12.2 5.9 12.4 L4.8 12.4 3.9 11.75 Q3.55 11.3 3.55 10.5 L3.1 8.95 2 7.75 Q1.6 7.45 1.1 7.3 L0 7.1 0 3.55 0.15 3.55 1.1 3.4 1.95 3 2.1 2.85 3.15 1.6 Q3.55 0.85 3.55 0 L7.1 0 Q7.15 0.95 7.6 1.8 8.1 2.65 8.9 3.1 9.85 3.65 11 3.55 12.15 3.45 12.95 2.7 L13.85 1.5 Q14.2 0.8 14.15 0 L17.75 0 M0 24.85 L0.6 25 1.1 25.3 1.15 25.35 Q1.65 25.75 1.75 26.4 1.85 27.05 1.55 27.55 L1.1 28.1 0.9 28.2 0 28.5 0 24.85 M4.7 1.85 Q3.55 2.05 2.7 2.95 1.9 3.85 1.8 5 1.65 6.25 2.4 7.35 3.15 8.45 4.35 8.75 L6.65 8.65 Q7.8 8.2 8.35 7.15 9.05 6.1 8.8 4.75 8.6 3.45 7.65 2.65 7 2.15 6.25 1.95 L4.7 1.85 M20.7 17.85 Q19.7 18 18.95 18.75 18.15 19.45 17.9 20.4 17.7 21.2 17.85 22 18 22.85 18.5 23.5 19.1 24.3 20.1 24.65 L22.1 24.8 Q23.05 24.6 23.8 23.9 L24.75 22.25 Q25.05 21.2 24.65 20.1 24.25 19 23.3 18.4 22.75 18.05 22.05 17.9 L20.7 17.85 M3.5 64 L3.7 63.25 Q3.85 62.9 4.15 62.65 4.45 62.4 4.9 62.3 L5.75 62.2 Q7 62.1 7.9 61.1 8.8 60.15 8.85 58.9 L9.05 57.95 9.65 57.2 10.65 56.9 11.7 56.75 Q12.8 56.4 13.5 55.45 14.2 54.5 14.2 53.4 L14.4 52.5 15.05 51.8 Q15.4 51.6 16.1 51.55 L17.15 51.35 Q18.2 51.05 18.85 50.05 19.55 49.1 19.55 48 19.5 47.15 20.25 46.6 20.95 46.05 21.75 46.25 22.55 46.45 22.9 47.2 23.3 48 22.95 48.7 L22.25 49.55 21.25 49.8 Q19.95 49.8 18.9 50.75 17.9 51.7 17.8 53 L17.7 53.85 17.3 54.55 Q16.8 55.15 15.7 55.15 14.4 55.2 13.45 56.2 12.5 57.2 12.45 58.5 L12.25 59.5 11.55 60.25 10.7 60.45 9.85 60.55 Q8.65 60.8 7.9 61.8 7.1 62.8 7.1 64 L3.5 64 M14.15 64 Q14.35 62.95 14.95 62.55 15.3 62.3 16 62.2 L17.15 62.05 Q18.15 61.7 18.8 60.85 19.5 59.95 19.5 58.9 19.5 57.9 20.1 57.35 20.65 56.85 21.4 56.9 22.2 56.95 22.65 57.5 23.2 58 23.1 58.85 23.05 59.65 22.45 60.1 L21.3 60.45 20.15 60.7 Q19.1 61.05 18.45 62 17.8 62.9 17.75 64 L14.15 64 M0 46.2 L0.7 46.35 1.1 46.6 1.25 46.75 Q1.8 47.2 1.8 48.3 1.85 49.5 2.75 50.45 3.65 51.4 4.85 51.55 6.1 51.7 7.25 51 8.35 50.3 8.7 49.05 L8.9 47.95 Q8.95 47.25 9.25 46.9 9.75 46.3 10.55 46.25 11.35 46.2 11.9 46.75 12.45 47.25 12.45 48.05 12.4 48.9 11.85 49.35 11.55 49.65 11.05 49.75 L10.15 49.85 Q8.9 50 8 51 7.15 52 7.1 53.25 L6.9 54.2 6.2 54.9 5.35 55.15 4.45 55.25 Q3.6 55.45 2.9 56.1 2.2 56.75 1.95 57.6 L1.8 58.7 1.45 59.7 1.4 59.8 1.1 60.1 0.85 60.3 0.15 60.5 0.05 60.5 0 60.5 0 56.9 1.1 56.75 1.8 56.4 3.1 55.1 Q3.65 54.15 3.5 53 3.4 51.9 2.7 51.05 L1.5 50.15 1.1 50 0.1 49.8 0 49.8 0 46.2"/>
    <path stroke="none" fill="#000000" d="M0 46.2 L0 39.15 Q0.65 39.15 1.1 38.75 L1.2 38.65 Q1.75 38.2 1.75 37.5 1.75 36.8 2 36.2 2.2 35.5 2.65 35.05 3.45 34.05 4.8 33.85 6.2 33.65 7.25 34.35 8.35 35.05 8.75 36.4 9.1 37.75 8.5 38.9 8.1 39.75 7.3 40.3 L5.5 40.9 4.7 41 Q4.3 41.15 4.05 41.45 3.55 41.95 3.55 42.7 3.55 43.45 4.05 43.95 4.55 44.5 5.35 44.45 6.15 44.45 6.65 43.9 7.1 43.4 7.15 42.4 7.2 41.1 8.15 40.15 9.1 39.2 10.4 39.15 11.45 39.15 11.95 38.6 12.5 38.05 12.45 37.2 12.35 36.35 11.75 35.9 11.4 35.6 10.65 35.55 L9.55 35.35 Q8.55 35.05 7.85 34.2 7.2 33.35 7.15 32.3 7 31.1 7.75 30 8.45 28.95 9.65 28.6 L12.25 28.85 Q13.55 29.5 14 30.8 L14.2 32 Q14.25 32.75 14.6 33.15 15.05 33.75 15.85 33.8 16.65 33.85 17.2 33.35 L17.65 32.65 17.8 31.85 Q17.8 31.1 18.2 30.4 18.55 29.65 19.2 29.2 20 28.55 21.1 28.5 22.2 28.4 23.1 28.95 L24.35 30.15 Q24.85 31 24.85 31.9 L25 32.65 25.45 33.3 Q25.95 33.85 26.7 33.8 27.5 33.75 27.95 33.25 28.5 32.7 28.45 31.9 28.4 31.05 27.75 30.6 27.4 30.3 26.7 30.25 L25.6 30.05 Q24.8 29.8 24.15 29.2 23.55 28.55 23.3 27.75 23 26.95 23.15 26.05 23.35 25.2 23.85 24.5 24.6 23.5 25.9 23.25 L28.25 23.5 Q29.15 23.95 29.65 24.8 30.2 25.65 30.2 26.65 L30.4 27.45 30.9 28.1 Q31.5 28.55 32.25 28.45 33.05 28.35 33.45 27.7 L33.8 26.7 33.95 25.6 Q34.2 24.75 34.9 24.1 35.6 23.45 36.45 23.25 L37.3 23.15 38.15 22.95 38.85 22.3 39.1 21.4 Q39.15 20.15 39.75 19.3 40.45 18.35 41.6 17.95 L43.9 18 Q44.85 18.35 45.5 19.25 46.15 20.1 46.2 21.1 46.2 22.15 46.75 22.65 47.25 23.15 48.05 23.15 48.8 23.1 49.3 22.55 49.85 22.05 49.8 21.25 49.75 20.45 49.15 19.95 48.8 19.65 48.05 19.55 L46.85 19.35 Q45.95 19.1 45.3 18.35 44.65 17.6 44.5 16.65 44.25 15.4 44.9 14.25 45.6 13.1 46.75 12.7 47.95 12.2 49.25 12.7 50.5 13.15 51.1 14.3 51.5 15 51.55 16.15 51.6 16.8 52.05 17.25 L53.1 17.8 53.85 17.85 54.6 18.05 Q55.55 18.4 56.2 19.25 56.8 20.1 56.85 21.1 56.85 22.15 57.4 22.6 57.9 23.15 58.9 23.15 60.15 23.2 61.1 24.1 62.05 25 62.15 26.25 L62.25 27.1 62.65 27.85 Q62.85 28.15 63.25 28.3 L64 28.5 64 35.55 63.3 35.7 Q62.95 35.85 62.7 36.1 62.2 36.6 62.2 37.65 62.1 38.9 61.2 39.85 60.25 40.8 59 40.85 L58.2 40.95 Q57.75 41.1 57.45 41.35 56.9 41.8 56.85 42.6 56.85 43.4 57.35 43.9 57.8 44.4 58.5 44.45 L59.75 44.1 60.25 43.45 60.45 42.65 Q60.45 41.75 60.9 40.95 61.35 40.15 62.05 39.7 62.9 39.15 64 39.1 L64 46.2 Q63.5 46.25 63.1 46.45 62.7 46.7 62.45 47.1 62.25 47.4 62.2 48 L62.05 49 Q61.85 49.85 61.15 50.5 60.5 51.15 59.65 51.4 L58.65 51.55 Q58 51.6 57.7 51.85 L57.05 52.55 56.85 53.55 Q56.8 54.65 56.1 55.55 55.4 56.45 54.35 56.75 L53.3 56.9 52.3 57.2 51.7 57.95 51.5 58.9 Q51.5 60.15 50.55 61.1 49.65 62.1 48.4 62.2 L47.55 62.3 Q47.05 62.4 46.8 62.7 L46.35 63.3 46.15 64 39.15 64 Q39.1 63.3 38.6 62.75 38.1 62.2 37.35 62.25 36.4 62.25 35.5 61.7 34.6 61.2 34.2 60.3 33.6 59.25 33.85 58 34.1 56.7 35.05 55.95 35.75 55.4 36.6 55.2 L38.35 55.3 Q39.25 55.55 39.9 56.25 40.6 57 40.8 57.9 L40.85 58.7 41.05 59.45 Q41.35 60.05 41.95 60.35 42.6 60.6 43.25 60.35 L44.1 59.7 44.45 58.65 Q44.45 57.55 45.15 56.6 45.8 55.65 46.9 55.3 L47.85 55.15 48.8 54.95 49.6 54.1 Q49.9 53.5 49.75 52.9 49.6 52.3 49.1 51.95 48.6 51.55 48 51.55 47 51.55 46.1 51 45.25 50.45 44.8 49.55 44.2 48.4 44.6 47.05 45 45.7 46.1 45 47.1 44.35 48.35 44.5 49.6 44.6 50.45 45.45 50.95 45.95 51.25 46.6 L51.55 48.05 Q51.55 48.5 51.8 48.95 L52.5 49.6 54 49.65 Q54.8 49.35 55 48.6 55.25 48 55 47.4 54.75 46.75 54.2 46.45 L53.25 46.2 52.3 46.05 Q51.3 45.8 50.65 45 49.95 44.15 49.8 43.15 49.65 41.95 50.3 40.8 51 39.7 52.15 39.35 L53.3 39.15 54.4 38.8 54.95 38.05 55.15 37.1 Q55.2 35.85 56.15 34.85 57.1 33.9 58.35 33.8 59.45 33.8 59.9 33.3 60.45 32.8 60.45 31.95 60.45 31.15 59.85 30.65 59.3 30.15 58.5 30.25 57.7 30.3 57.25 30.9 56.95 31.25 56.85 32 L56.7 33.15 Q56.35 34.2 55.4 34.9 54.45 35.55 53.35 35.55 52.65 35.55 52.1 36.05 51.55 36.55 51.55 37.25 L51.35 38.5 50.7 39.6 Q50.15 40.3 49.3 40.65 L47.6 40.85 Q46.7 40.75 45.9 40.2 45.15 39.65 44.75 38.8 44.3 37.85 44.5 36.8 44.7 35.7 45.4 34.9 L46.6 34.1 Q47.25 33.8 48 33.8 L48.9 33.55 49.55 32.85 49.8 31.9 49.95 30.95 Q50.25 29.9 51.15 29.2 52.05 28.55 53.1 28.5 54.15 28.5 54.65 27.9 55.15 27.4 55.1 26.6 55.1 25.8 54.5 25.35 53.95 24.8 53.15 24.9 52.3 25 51.9 25.65 51.6 26 51.55 26.7 L51.35 27.8 Q51.05 28.8 50.2 29.45 49.3 30.15 48.25 30.2 47.1 30.3 46.05 29.65 45.05 29 44.65 27.85 L44.45 26.7 Q44.4 25.95 44.05 25.55 43.6 24.95 42.75 24.9 41.9 24.85 41.4 25.4 40.85 25.95 40.9 26.75 40.9 27.55 41.5 28.05 L42.7 28.5 44 28.75 Q45.3 29.25 45.9 30.55 46.5 31.9 46 33.15 45.6 34.4 44.4 35.1 43.2 35.75 41.95 35.5 41 35.3 40.25 34.6 39.55 33.95 39.25 33 L39.15 32.15 38.95 31.3 Q38.7 30.7 38.05 30.4 L36.75 30.3 Q36.05 30.5 35.7 31.25 35.35 31.95 35.65 32.6 35.85 33.2 36.4 33.55 L37.5 33.8 Q38.75 33.85 39.75 34.75 40.7 35.65 40.85 36.85 L40.9 37.65 41.2 38.4 41.9 38.95 42.75 39.15 Q43.65 39.15 44.45 39.6 45.25 40.05 45.7 40.85 46.2 41.65 46.2 42.6 L45.75 44.4 Q45.25 45.4 44.1 45.9 L41.85 46.15 Q40.95 45.95 40.2 45.25 39.5 44.55 39.25 43.65 L39.1 42.7 38.9 41.8 38.2 41.1 37.25 40.9 Q35.95 40.9 34.95 39.95 33.95 39.05 33.8 37.75 L33.7 36.9 33.3 36.1 Q32.75 35.5 31.9 35.55 31.05 35.6 30.6 36.25 L30.2 37.3 30.05 38.4 Q29.75 39.4 28.9 40.1 28.05 40.8 27 40.85 25.85 41 24.75 40.35 23.7 39.65 23.3 38.55 L23.1 37.35 Q23.05 36.55 22.7 36.2 22.2 35.55 21.3 35.55 20.45 35.55 19.95 36.2 19.6 36.55 19.55 37.25 L19.4 38.35 18.55 39.8 17.1 40.7 15.95 40.9 Q15.25 40.95 14.9 41.25 14.25 41.75 14.2 42.55 14.15 43.4 14.7 43.9 15.25 44.5 16.1 44.45 16.95 44.4 17.4 43.8 L17.8 42.7 Q17.85 41.8 18 41.5 18.3 40.5 19.25 39.8 20.15 39.15 21.25 39.15 22.4 39.1 23.35 39.8 24.35 40.5 24.7 41.6 L24.85 42.65 Q24.95 43.35 25.2 43.7 L25.9 44.3 26.9 44.5 Q28.15 44.55 29.15 45.5 30.1 46.45 30.2 47.75 30.2 48.8 30.75 49.25 31.25 49.85 32.1 49.8 32.9 49.75 33.4 49.15 33.7 48.75 33.8 47.95 L34.05 46.7 Q34.5 45.45 35.8 44.85 37.1 44.2 38.35 44.6 39.45 44.95 40.15 45.9 40.9 46.9 40.85 48.05 40.85 48.75 41.4 49.25 41.9 49.8 42.6 49.8 43.65 49.8 44.5 50.35 45.4 50.9 45.85 51.8 46.4 52.85 46.1 54.15 45.8 55.4 44.85 56.1 44.15 56.7 43.2 56.85 L41.35 56.65 Q40.4 56.3 39.75 55.35 39.1 54.45 39.1 53.4 39.15 52.8 38.8 52.3 38.45 51.8 37.9 51.65 37.35 51.45 36.8 51.65 36.2 51.8 35.9 52.3 35.55 52.7 35.55 53.5 L35.1 55.05 34.05 56.2 Q33.35 56.75 32.4 56.85 L30.65 56.6 Q29.65 56.25 29.05 55.35 28.45 54.4 28.45 53.4 28.45 52.8 28.1 52.3 27.75 51.8 27.25 51.65 L25.9 51.7 Q25.25 52 25 52.65 24.75 53.25 24.95 53.9 25.2 54.55 25.75 54.9 L26.35 55.1 27 55.15 Q28 55.25 28.8 55.85 29.6 56.5 29.95 57.4 30.4 58.45 30.05 59.65 29.75 60.8 28.85 61.5 27.9 62.2 26.6 62.25 L25.85 62.4 25.25 62.9 25 63.45 24.85 64 17.75 64 Q17.8 62.9 18.45 62 19.1 61.05 20.15 60.7 L21.3 60.45 22.45 60.1 Q23.05 59.65 23.1 58.85 23.2 58 22.65 57.5 22.2 56.95 21.4 56.9 20.65 56.85 20.1 57.35 19.5 57.9 19.5 58.9 19.5 59.95 18.8 60.85 18.15 61.7 17.15 62.05 L16 62.2 Q15.3 62.3 14.95 62.55 14.35 62.95 14.15 64 L7.1 64 Q7.1 62.8 7.9 61.8 8.65 60.8 9.85 60.55 L10.7 60.45 11.55 60.25 12.25 59.5 12.45 58.5 Q12.5 57.2 13.45 56.2 14.4 55.2 15.7 55.15 16.8 55.15 17.3 54.55 L17.7 53.85 17.8 53 Q17.9 51.7 18.9 50.75 19.95 49.8 21.25 49.8 L22.25 49.55 22.95 48.7 Q23.3 48 22.9 47.2 22.55 46.45 21.75 46.25 20.95 46.05 20.25 46.6 19.5 47.15 19.55 48 19.55 49.1 18.85 50.05 18.2 51.05 17.15 51.35 L16.1 51.55 Q15.4 51.6 15.05 51.8 L14.4 52.5 14.2 53.4 Q14.2 54.5 13.5 55.45 12.8 56.4 11.7 56.75 L10.65 56.9 9.65 57.2 9.05 57.95 8.85 58.9 Q8.8 60.15 7.9 61.1 7 62.1 5.75 62.2 L4.9 62.3 Q4.45 62.4 4.15 62.65 3.85 62.9 3.7 63.25 L3.5 64 0 64 0 60.5 0.05 60.5 0.15 60.5 0.85 60.3 1.1 60.1 1.4 59.8 1.45 59.7 1.8 58.7 1.95 57.6 Q2.2 56.75 2.9 56.1 3.6 55.45 4.45 55.25 L5.35 55.15 6.2 54.9 6.9 54.2 7.1 53.25 Q7.15 52 8 51 8.9 50 10.15 49.85 L11.05 49.75 Q11.55 49.65 11.85 49.35 12.4 48.9 12.45 48.05 12.45 47.25 11.9 46.75 11.35 46.2 10.55 46.25 9.75 46.3 9.25 46.9 8.95 47.25 8.9 47.95 L8.7 49.05 Q8.35 50.3 7.25 51 6.1 51.7 4.85 51.55 3.65 51.4 2.75 50.45 1.85 49.5 1.8 48.3 1.8 47.2 1.25 46.75 L1.1 46.6 0.7 46.35 0 46.2 M64 14.2 L63.15 14.45 62.5 15 Q62.25 15.35 62.2 16.05 L62 17.15 Q61.7 18.1 60.9 18.75 60.1 19.4 59.1 19.55 57.9 19.7 56.8 19 55.7 18.35 55.3 17.15 L55.15 16.15 54.9 15.15 54.4 14.6 53.75 14.3 53.05 14.2 52.4 14.1 50.95 13.3 Q50.3 12.7 50 11.9 49.7 11.15 49.8 10.3 49.9 9.45 50.35 8.75 L51.3 7.75 52.55 7.2 53.4 7.15 54.25 6.9 Q54.8 6.6 55 5.95 55.25 5.3 55 4.75 54.8 4.1 54.15 3.75 L52.85 3.6 Q52.25 3.8 51.9 4.3 51.5 4.8 51.55 5.4 51.55 6.4 50.95 7.35 50.3 8.25 49.35 8.6 L47.6 8.85 Q46.65 8.75 45.9 8.2 45.1 7.65 44.7 6.7 44.3 5.7 44.5 4.75 44.65 3.8 45.3 3.05 45.95 2.3 46.85 2 L48 1.8 Q48.75 1.75 49.1 1.4 L49.6 0.8 49.7 0 56.85 0 Q56.85 0.75 57.4 1.25 57.9 1.8 58.6 1.8 59.7 1.8 60.65 2.4 61.55 3.05 61.95 4.05 62.4 5.15 62.05 6.35 61.7 7.55 60.7 8.25 59.85 8.9 58.5 8.9 57.7 8.95 57.2 9.65 56.7 10.35 56.95 11.1 57.1 11.8 57.75 12.2 L59.05 12.4 Q59.65 12.3 60.05 11.8 60.45 11.25 60.45 10.65 60.45 9.8 60.85 9.05 61.25 8.3 61.9 7.8 62.75 7.2 64 7.1 L64 14.2 M46.15 0 Q46.2 0.8 45.85 1.5 L44.95 2.7 Q44.15 3.4 43.05 3.55 41.9 3.65 41 3.15 40.15 2.7 39.65 1.85 39.15 1 39.15 0 L46.15 0 M35.55 0 Q35.55 1.1 34.9 2 34.3 2.95 33.3 3.3 L31.1 3.45 Q29.95 3.15 29.25 2.25 28.5 1.35 28.45 0 L35.55 0 M24.85 0 Q24.95 1.05 25.65 1.5 26 1.75 26.7 1.8 L27.8 2 Q28.8 2.3 29.45 3.2 30.15 4.05 30.2 5.1 30.25 6.05 29.85 6.9 L28.65 8.3 Q28 8.75 27.2 8.85 L25.65 8.75 Q24.8 8.5 24.15 7.85 23.5 7.2 23.25 6.35 L23.1 5.25 22.75 4.25 Q22.3 3.6 21.45 3.55 20.6 3.5 20.05 4.1 19.5 4.6 19.55 5.45 19.6 6.3 20.25 6.75 20.6 7.05 21.25 7.15 L22.35 7.3 Q23.2 7.5 23.85 8.15 L24.7 9.65 24.9 10.75 Q24.95 11.45 25.25 11.75 25.7 12.45 26.65 12.45 27.55 12.5 28.05 11.8 28.35 11.45 28.45 10.8 L28.6 9.65 Q28.95 8.4 30.1 7.7 31.25 6.95 32.55 7.15 33.75 7.35 34.6 8.3 35.5 9.3 35.55 10.5 35.5 11.05 35.75 11.5 36 11.95 36.4 12.2 L37.3 12.45 38.25 12.6 Q39.05 12.8 39.65 13.35 L40.6 14.65 Q40.95 15.45 40.85 16.4 40.75 17.3 40.25 18 L39 19.15 Q38.2 19.55 37.35 19.55 36.85 19.55 36.35 19.85 35.9 20.15 35.7 20.6 L35.55 21.2 35.5 21.75 Q35.4 22.7 34.8 23.5 34.25 24.25 33.35 24.6 L31.65 24.85 Q30.75 24.8 30 24.3 29.15 23.7 28.75 22.75 28.3 21.75 28.5 20.75 28.65 19.8 29.3 19.05 29.95 18.3 30.85 18 L32.05 17.8 Q32.75 17.75 33.1 17.4 33.75 16.95 33.8 16.1 33.8 15.25 33.25 14.75 32.75 14.2 31.9 14.25 31.05 14.25 30.6 14.9 30.25 15.25 30.2 16 L30 17.25 Q29.6 18.35 28.5 19.05 27.45 19.7 26.25 19.55 25.25 19.45 24.4 18.75 23.6 18.1 23.3 17.1 L23.1 16 22.75 14.9 Q22.3 14.3 21.5 14.25 20.7 14.15 20.15 14.65 L19.65 15.4 Q19.5 15.8 19.5 16.3 19.45 17.55 18.5 18.5 17.55 19.5 16.25 19.55 15.2 19.55 14.7 20.1 14.2 20.6 14.2 21.35 14.2 22.15 14.75 22.65 15.2 23.15 16.1 23.15 17.2 23.15 18.05 23.8 18.95 24.45 19.3 25.45 19.8 26.65 19.3 27.95 18.8 29.3 17.6 29.85 16.55 30.4 15.3 30.15 14.05 29.9 13.3 28.95 L12.65 27.85 12.45 26.6 12.15 25.65 Q11.85 25.2 11.35 25.05 L10.85 24.9 10.35 24.85 8.9 24.4 7.75 23.35 Q7.25 22.65 7.15 21.75 7.05 20.8 7.4 20 7.75 19.05 8.65 18.4 9.55 17.8 10.6 17.8 L11.8 17.4 Q12.3 17 12.4 16.35 L12.5 15.6 Q12.5 15.15 12.65 14.9 12.9 14.1 13.55 13.45 14.15 12.85 14.95 12.6 L16.05 12.45 17.1 12.1 Q17.75 11.65 17.8 10.8 17.85 9.95 17.25 9.4 16.7 8.85 15.85 8.9 15 8.95 14.55 9.6 14.3 9.95 14.2 10.6 L14.05 11.7 Q13.8 12.55 13.15 13.2 12.45 13.85 11.6 14.1 L10.95 14.2 10.25 14.3 Q9.85 14.35 9.55 14.6 L9.05 15.2 8.85 16.2 8.7 17.15 Q8.3 18.35 7.2 19 6.1 19.7 4.9 19.55 3.85 19.4 3.05 18.75 2.25 18.05 1.95 17.1 L1.8 16 1.45 14.95 1.2 14.65 1.1 14.6 Q0.7 14.3 0.1 14.25 L0 14.2 0 7.1 1.1 7.3 Q1.6 7.45 2 7.75 L3.1 8.95 3.55 10.5 Q3.55 11.3 3.9 11.75 L4.8 12.4 5.9 12.4 Q6.45 12.2 6.8 11.7 7.15 11.2 7.1 10.65 7.1 9.5 7.85 8.55 8.55 7.6 9.65 7.3 L10.6 7.15 11.55 6.9 12.2 6.2 12.45 5.25 Q12.45 4.15 13.15 3.25 13.8 2.3 14.85 2 L16.05 1.8 Q16.75 1.75 17.1 1.4 L17.6 0.8 17.75 0 24.85 0 M0 17.8 L1.1 18 Q1.6 18.15 2.05 18.45 3 19.1 3.35 20.15 L3.5 21.2 3.75 22.25 4.45 22.9 5.35 23.15 Q6.35 23.15 7.2 23.65 8.05 24.2 8.45 25.05 8.9 25.9 8.85 26.85 8.8 27.85 8.25 28.65 L7 29.8 5.4 30.2 Q4.9 30.2 4.5 30.45 L3.8 31.05 Q3.6 31.4 3.55 32.1 L3.35 33.15 Q3 34.2 2.05 34.9 L1.1 35.4 0 35.55 0 28.5 0.9 28.2 1.1 28.1 1.55 27.55 Q1.85 27.05 1.75 26.4 1.65 25.75 1.15 25.35 L1.1 25.3 0.6 25 0 24.85 0 17.8 M64 24.9 L62.55 24.55 Q61.8 24.25 61.3 23.7 60.6 22.85 60.5 21.75 60.35 20.6 60.9 19.65 61.3 18.8 62.2 18.3 63.05 17.8 64 17.8 L64 24.9 M64 3.55 Q62.65 3.5 61.75 2.75 L60.8 1.55 Q60.45 0.8 60.45 0 L64 0 64 3.55 M36.7 1.85 L38.2 1.9 39.55 2.6 Q40.55 3.35 40.8 4.7 41.05 6.05 40.35 7.15 39.8 8.15 38.65 8.65 L36.35 8.75 Q35.2 8.45 34.45 7.4 33.7 6.35 33.8 5.1 33.85 3.95 34.7 3 35.5 2.05 36.7 1.85 M42.25 7.15 L43.7 7.3 Q44.45 7.55 45 8 L45.9 9.2 46.2 10.65 45.95 12 45.15 13.2 44.05 13.95 42.75 14.2 41.05 13.85 39.75 12.65 Q39.25 11.95 39.15 11.1 39.05 10.2 39.35 9.4 39.7 8.5 40.5 7.9 41.3 7.25 42.25 7.15 M28.45 64 Q28.45 62.95 29.05 62.05 29.65 61.15 30.6 60.75 L32.85 60.55 Q34 60.85 34.75 61.75 35.5 62.65 35.55 64 L28.45 64 M49.75 64 Q49.8 63.2 50.15 62.5 50.5 61.7 51.1 61.25 L52.2 60.65 53.4 60.45 54.3 60.2 54.95 59.45 55.1 58.7 55.2 57.9 Q55.4 57 56.05 56.3 56.7 55.6 57.55 55.3 L59.25 55.2 Q60.1 55.35 60.8 55.85 61.7 56.5 62.05 57.65 62.4 58.85 62 59.9 61.65 60.85 60.8 61.5 59.9 62.15 58.9 62.2 57.9 62.2 57.4 62.75 L57 63.35 56.85 64 49.75 64 M60.45 64 Q60.5 62.7 61.25 61.75 61.75 61.15 62.45 60.8 L64 60.45 64 64 60.45 64 M64 56.9 L62.55 56.55 Q61.8 56.25 61.35 55.7 60.6 54.85 60.45 53.75 60.35 52.6 60.9 51.65 61.3 50.8 62.2 50.3 63.05 49.8 64 49.8 L64 56.9 M31.2 39.25 Q32.4 38.9 33.6 39.5 34.75 40.1 35.25 41.25 35.65 42.15 35.5 43.2 35.35 44.2 34.7 44.95 33.95 45.85 32.75 46.15 L30.5 45.9 Q29.45 45.4 28.85 44.35 28.3 43.25 28.5 42.1 28.65 41.05 29.4 40.25 30.15 39.45 31.2 39.25 M14.15 0 Q14.2 0.8 13.85 1.5 L12.95 2.7 Q12.15 3.45 11 3.55 9.85 3.65 8.9 3.1 8.1 2.65 7.6 1.8 7.15 0.95 7.1 0 L14.15 0 M3.55 0 Q3.55 0.85 3.15 1.6 L2.1 2.85 1.95 3 1.1 3.4 0.15 3.55 0 3.55 0 0 3.55 0 M4.7 1.85 L6.25 1.95 Q7 2.15 7.65 2.65 8.6 3.45 8.8 4.75 9.05 6.1 8.35 7.15 7.8 8.2 6.65 8.65 L4.35 8.75 Q3.15 8.45 2.4 7.35 1.65 6.25 1.8 5 1.9 3.85 2.7 2.95 3.55 2.05 4.7 1.85 M20.7 17.85 L22.05 17.9 Q22.75 18.05 23.3 18.4 24.25 19 24.65 20.1 25.05 21.2 24.75 22.25 L23.8 23.9 Q23.05 24.6 22.1 24.8 L20.1 24.65 Q19.1 24.3 18.5 23.5 18 22.85 17.85 22 17.7 21.2 17.9 20.4 18.15 19.45 18.95 18.75 19.7 18 20.7 17.85 M0 49.8 L0.1 49.8 1.1 50 1.5 50.15 2.7 51.05 Q3.4 51.9 3.5 53 3.65 54.15 3.1 55.1 L1.8 56.4 1.1 56.75 0 56.9 0 49.8"/>
  </g>
</svg>