<svg width="64" height="64" xmlns="http://www.w3.org/2000/svg" xmlns:xlink="http://www.w3.org/1999/xlink">
  <defs/>
  <g>
    <path stroke="none" fill="#000000" d="M34.75 0 L37.65 2 Q37.75 2.15 37.85 2.1 L38.15 2.05 40.2 0.45 40.4 0.2 40.4 0 64 0 64 33.2 62.95 32.25 62.65 32.1 Q62.45 32.1 62.35 32.25 L62.2 32.55 61.8 36.6 61.95 36.85 62.15 37.05 64 37.9 64 39.05 61.8 39.25 61.6 39.35 61.45 39.6 60.6 43.55 60.65 43.85 60.85 44.05 61.2 44.05 64 42.75 64 64 40.4 64 40.3 63.85 38.75 61.75 38.5 61.65 38.25 61.6 34.4 62.9 34.15 63.1 34.15 63.4 34.3 63.7 34.75 64 0 64 0 42.75 0.85 42.35 1.1 42.15 1.15 41.95 0.85 39.4 0.7 39.05 0.35 39 0 39.05 0 37.9 0.45 38.1 0.75 38.1 1.05 37.85 2.05 35.5 2.1 35.25 2 35 0 33.2 0 0 34.75 0 M55.35 8.55 L55.65 8.55 55.95 8.3 56.95 5.95 57 5.7 56.9 5.45 53.85 2.7 53.55 2.55 Q53.35 2.55 53.25 2.7 L53.1 3 52.7 7.05 52.85 7.3 53.05 7.5 Q54.2 8.05 55.35 8.55 M58.1 11.6 L58.35 11.75 58.55 11.8 62.45 10.55 62.7 10.3 62.8 10 62.6 9.75 59.3 7.4 59 7.3 58.75 7.4 56.7 8.9 56.5 9.2 56.6 9.55 58.1 11.6 M29.25 29.45 L29.1 29.7 29.1 29.95 30.45 33.8 30.7 34.05 30.95 34.1 31.25 33.9 33.5 30.5 33.55 30.25 33.45 30 31.9 27.95 31.6 27.8 Q31.4 27.8 31.3 27.9 L29.25 29.45 M32.25 26.65 L32.25 26.95 32.45 27.2 34.8 28.15 35.1 28.2 35.35 28.05 38 24.95 38.1 24.65 38 24.3 37.7 24.2 33.65 23.95 33.35 24.05 33.2 24.25 32.25 26.65 M34 12 L33.7 11.3 Q33.4 11 33 11 32.55 11 32.25 11.3 32 11.6 32 12 32 12.45 32.25 12.7 32.55 13 33 13 L33.7 12.7 34 12 M55.75 9.85 L55.6 9.5 55.25 9.45 52.7 9.7 52.5 9.8 52.35 10.05 51.5 14 Q51.45 14.15 51.55 14.3 L51.75 14.5 52.1 14.5 55.75 12.8 56 12.6 56.05 12.4 55.75 9.85 M39.9 3.35 Q39.8 3.5 39.85 3.65 L39.95 3.9 43 6.65 43.35 6.75 43.6 6.6 43.75 6.35 44.05 2.3 44 2.05 43.8 1.85 41.5 0.8 41.15 0.8 40.9 1.05 39.9 3.35 M41.1 63.45 L41.3 63.75 41.6 63.85 44.1 63.55 44.4 63.45 44.5 63.2 45.35 59.2 45.3 58.85 45 58.65 44.7 58.7 41.05 60.45 40.85 60.65 40.8 60.9 41.1 63.45 M53 47 L52.7 46.25 52 46 Q51.55 46 51.25 46.25 51 46.55 51 47 L51.25 47.7 Q51.55 48 52 48 L52.7 47.7 53 47 M3.2 41.15 L3.45 41.3 3.65 41.35 7.55 40.1 7.8 39.85 7.9 39.55 7.7 39.3 4.4 36.95 4.1 36.85 3.85 36.95 1.8 38.45 1.6 38.75 1.7 39.1 3.2 41.15 M31 27.05 L31.25 26.95 31.35 26.6 31 24 30.85 23.8 Q30.8 23.65 30.6 23.65 L26.65 22.9 Q26.45 22.9 26.35 23 L26.2 23.25 26.2 23.55 27.95 27.15 28.15 27.35 28.4 27.45 31 27.05 M13 12.15 L12.8 12.45 12.9 12.75 14.25 14.95 14.5 15.1 14.8 15.1 18.65 14.1 18.9 13.9 19 13.6 18.85 13.3 15.7 10.8 15.4 10.7 15.15 10.75 13 12.15 M13 30 L12.7 29.3 Q12.4 29 12 29 11.55 29 11.25 29.3 11 29.6 11 30 11 30.45 11.25 30.75 L12 31 12.7 30.75 13 30 M7 27 L6.7 26.3 Q6.4 26 6 26 5.55 26 5.25 26.3 5 26.55 5 27 5 27.45 5.25 27.7 5.55 28 6 28 6.4 28 6.7 27.7 L7 27 M12.1 13.05 L11.95 12.75 11.6 12.65 9.05 12.8 8.8 12.9 8.65 13.1 7.5 17.05 7.55 17.35 7.85 17.6 8.15 17.6 11.9 16.1 12.1 15.9 12.15 15.65 12.1 13.05 M13.55 9.25 L13.6 8.95 13.5 8.7 10.65 5.8 10.3 5.7 10.05 5.75 9.85 6.05 9.25 10.05 9.3 10.35 9.55 10.55 11.8 11.75 12.15 11.75 12.4 11.5 13.55 9.25 M21 58 L20.75 57.3 Q20.45 57 20 57 19.6 57 19.3 57.3 19 57.6 19 58 19 58.45 19.3 58.75 L20 59 20.75 58.75 21 58"/>
    <path stroke="none" fill="#FFFFFF" d="M21 58 L20.75 58.75 20 59 19.3 58.75 Q19 58.45 19 58 19 57.6 19.3 57.3 19.6 57 20 57 20.45 57 20.75 57.3 L21 58 M55.35 8.55 Q54.2 8.05 53.05 7.5 L52.85 7.3 52.7 7.05 53.1 3 53.25 2.7 Q53.35 2.55 53.55 2.55 L53.85 2.7 56.9 5.45 57 5.7 56.95 5.95 55.95 8.3 55.65 8.55 55.35 8.55 M40.4 0 L40.4 0.2 40.2 0.45 38.15 2.05 37.85 2.1 Q37.75 2.15 37.65 2 L34.75 0 40.4 0 M0 33.2 L2 35 2.1 35.25 2.05 35.5 1.05 37.85 0.75 38.1 0.45 38.1 0 37.9 0 33.2 M0 39.05 L0.35 39 0.7 39.05 0.85 39.4 1.15 41.95 1.1 42.15 0.85 42.35 0 42.75 0 39.05 M34.75 64 L34.3 63.7 34.15 63.4 34.15 63.1 34.4 62.9 38.25 61.6 38.5 61.65 38.75 61.75 40.3 63.85 40.4 64 34.75 64 M64 42.75 L61.2 44.05 60.85 44.05 60.65 43.85 60.6 43.55 61.45 39.6 61.6 39.35 61.8 39.25 64 39.05 64 42.75 M64 37.9 L62.15 37.05 61.95 36.85 61.8 36.6 62.2 32.55 62.35 32.25 Q62.45 32.1 62.65 32.1 L62.95 32.25 64 33.2 64 37.9 M39.9 3.35 L40.9 1.05 41.15 0.8 41.5 0.8 43.8 1.85 44 2.05 44.05 2.3 43.75 6.35 43.6 6.6 43.35 6.75 43 6.65 39.95 3.9 39.85 3.65 Q39.8 3.5 39.9 3.35 M55.75 9.85 L56.05 12.4 56 12.6 55.75 12.8 52.1 14.5 51.75 14.5 51.55 14.3 Q51.45 14.15 51.5 14 L52.35 10.05 52.5 9.8 52.7 9.7 55.25 9.45 55.6 9.5 55.75 9.85 M34 12 L33.7 12.7 33 13 Q32.55 13 32.25 12.7 32 12.45 32 12 32 11.6 32.25 11.3 32.55 11 33 11 33.4 11 33.7 11.3 L34 12 M32.25 26.65 L33.2 24.25 33.35 24.05 33.65 23.95 37.7 24.2 38 24.3 38.1 24.65 38 24.95 35.35 28.05 35.1 28.2 34.8 28.15 32.45 27.2 32.25 26.95 32.25 26.65 M29.25 29.45 L31.3 27.9 Q31.4 27.8 31.6 27.8 L31.9 27.95 33.45 30 33.55 30.25 33.5 30.5 31.25 33.9 30.95 34.1 30.7 34.05 30.45 33.8 29.1 29.95 29.1 29.7 29.25 29.45 M58.1 11.6 L56.6 9.55 56.5 9.2 56.7 8.9 58.75 7.4 59 7.3 59.3 7.4 62.6 9.75 62.8 10 62.7 10.3 62.45 10.55 58.55 11.8 58.35 11.75 58.1 11.6 M53 47 L52.7 47.7 52 48 Q51.55 48 51.25 47.7 L51 47 Q51 46.55 51.25 46.25 51.55 46 52 46 L52.7 46.25 53 47 M41.1 63.45 L40.8 60.9 40.85 60.65 41.05 60.45 44.7 58.7 45 58.65 45.3 58.85 45.35 59.2 44.5 63.2 44.4 63.45 44.1 63.55 41.6 63.85 41.3 63.75 41.1 63.45 M13.55 9.25 L12.4 11.5 12.15 11.75 11.8 11.75 9.55 10.55 9.3 10.35 9.25 10.05 9.85 6.05 10.05 5.75 10.3 5.7 10.65 5.8 13.5 8.7 13.6 8.95 13.55 9.25 M12.1 13.05 L12.15 15.65 12.1 15.9 11.9 16.1 8.15 17.6 7.85 17.6 7.55 17.35 7.5 17.05 8.65 13.1 8.8 12.9 9.05 12.8 11.6 12.65 11.95 12.75 12.1 13.05 M7 27 L6.7 27.7 Q6.4 28 6 28 5.55 28 5.25 27.7 5 27.45 5 27 5 26.55 5.25 26.3 5.55 26 6 26 6.4 26 6.7 26.3 L7 27 M13 30 L12.7 30.75 12 31 11.25 30.75 Q11 30.45 11 30 11 29.6 11.25 29.3 11.55 29 12 29 12.4 29 12.7 29.3 L13 30 M13 12.15 L15.15 10.75 15.4 10.7 15.7 10.8 18.85 13.3 19 13.6 18.9 13.9 18.65 14.1 14.8 15.1 14.5 15.1 14.25 14.95 12.9 12.75 12.8 12.45 13 12.15 M31 27.05 L28.4 27.45 28.15 27.35 27.95 27.15 26.2 23.55 26.2 23.25 26.35 23 Q26.45 22.9 26.65 22.9 L30.6 23.65 Q30.8 23.65 30.85 23.8 L31 24 31.35 26.6 31.25 26.95 31 27.05 M3.2 41.15 L1.7 39.1 1.6 38.75 1.8 38.45 3.85 36.95 4.1 36.85 4.4 36.95 7.7 39.3 7.9 39.55 7.8 39.85 7.55 40.1 3.65 41.35 3.45 41.3 3.2 41.15"/>
  </g>
</svg>