<svg width="64" height="64" xmlns="http://www.w3.org/2000/svg" xmlns:xlink="http://www.w3.org/1999/xlink">
  <defs/>
  <g>
    <path stroke="none" fill="#000000" d="M57.85 0 L57.85 4.05 64 4.05 64 18 55.3 18 55.3 25.8 64 25.8 64 40.1 49.5 40.1 49.5 47.9 64 47.9 64 60.3 57.85 60.3 57.85 64 48.4 64 48.25 60.05 33.7 60.45 33.8 64 27.65 64 27.9 61 13.4 59.6 13 64 8.45 64 8.45 60.3 0 60.3 0 25.8 5.9 25.8 5.9 18 0 18 0 4.05 8.45 4.05 8.45 0 13 0 12.7 3.35 27.2 4.75 27.65 0 33.8 0 33.95 4.2 48.5 3.85 48.4 0 57.85 0 M31.75 18.1 L32.15 25.85 46.7 25.05 46.3 17.3 31.75 18.1 M43.05 6.05 L42.55 13.8 57.15 14.75 57.6 6.95 43.05 6.05 M23.3 6.5 L23.3 14.3 37.85 14.3 37.85 6.5 23.3 6.5 M41.2 28.9 L41.2 36.7 55.75 36.7 55.75 28.9 41.2 28.9 M30.25 39.65 L29.75 47.45 44.35 48.3 44.8 40.55 30.25 39.65 M21.7 28.9 L21.7 36.7 36.25 36.7 36.25 28.9 21.7 28.9 M41.45 50.2 L40.95 57.95 55.5 58.9 56 51.15 41.45 50.2 M20.3 49.85 L20.5 57.65 35.05 57.25 34.85 49.5 20.3 49.85 M8.15 39.35 L7.7 47.15 22.25 48 22.7 40.2 8.15 39.35 M0.25 29.85 L0.9 37.6 15.4 36.4 14.75 28.65 0.25 29.85 M2.35 5.65 L1.6 13.4 15.9 15.15 16.8 7.4 2.35 5.65 M12.4 17.7 L12.4 25.5 26.95 25.5 26.95 17.7 12.4 17.7 M15.65 50.5 L1.15 49.6 0.65 57.4 15.2 58.25 15.65 50.5"/>
    <path stroke="none" fill="#FFFFFF" d="M15.65 50.5 L15.2 58.25 0.65 57.4 1.15 49.6 15.65 50.5 M64 4.05 L57.85 4.05 57.85 0 64 0 64 4.05 M48.4 0 L48.5 3.85 33.95 4.2 33.8 0 48.4 0 M27.65 0 L27.2 4.75 12.7 3.35 13 0 27.65 0 M8.45 0 L8.45 4.05 0 4.05 0 0 8.45 0 M0 18 L5.9 18 5.9 25.8 0 25.8 0 18 M0 60.3 L8.45 60.3 8.45 64 0 64 0 60.3 M13 64 L13.4 59.6 27.9 61 27.65 64 13 64 M33.8 64 L33.7 60.45 48.25 60.05 48.4 64 33.8 64 M57.85 64 L57.85 60.3 64 60.3 64 64 57.85 64 M64 47.9 L49.5 47.9 49.5 40.1 64 40.1 64 47.9 M64 25.8 L55.3 25.8 55.3 18 64 18 64 25.8 M31.75 18.1 L46.3 17.3 46.7 25.05 32.15 25.85 31.75 18.1 M41.2 28.9 L55.75 28.9 55.75 36.7 41.2 36.7 41.2 28.9 M23.3 6.5 L37.85 6.5 37.85 14.3 23.3 14.3 23.3 6.5 M43.05 6.05 L57.6 6.95 57.15 14.75 42.55 13.8 43.05 6.05 M30.25 39.65 L44.8 40.55 44.35 48.3 29.75 47.45 30.25 39.65 M20.3 49.85 L34.85 49.5 35.05 57.25 20.5 57.65 20.3 49.85 M41.45 50.2 L56 51.15 55.5 58.9 40.95 57.95 41.45 50.2 M21.7 28.9 L36.25 28.9 36.25 36.7 21.7 36.7 21.7 28.9 M12.4 17.7 L26.95 17.7 26.95 25.5 12.4 25.5 12.4 17.7 M2.35 5.65 L16.8 7.4 15.9 15.15 1.6 13.4 2.35 5.65 M0.25 29.85 L14.75 28.65 15.4 36.4 0.9 37.6 0.25 29.85 M8.15 39.35 L22.7 40.2 22.25 48 7.7 47.15 8.15 39.35"/>
  </g>
</svg>