<svg width="64" height="64" xmlns="http://www.w3.org/2000/svg" xmlns:xlink="http://www.w3.org/1999/xlink">
  <defs/>
  <g>
    <path stroke="none" fill="#000000" d="M64 5 L59.45 5 Q58 5 58 6.4 L58 13.25 Q58 15.65 59.75 17.35 61.5 19 64 19 L64 44 55.45 44 Q54 44 54 45.4 L54 52.25 Q54 54.65 55.75 56.35 57.5 58 60 58 62.3 58 64 56.6 L64 64 26 64 26 58.4 Q26 57 24.55 57 L15.45 57 Q14 57 14 58.4 L14 64 0 64 0 56.6 0.25 56.35 Q2 54.65 2 52.25 L2 45.4 Q2 44 0.55 44 L0 44 0 19 Q2.5 19 4.25 17.35 6 15.65 6 13.25 L6 6.4 Q6 5 4.55 5 L0 5 0 0 14 0 14 1.25 Q14 3.65 15.75 5.35 17.5 7 20 7 22.5 7 24.25 5.35 26 3.65 26 1.25 L26 0 64 0 64 5 M38.05 8 Q37 8 37 9.1 L37 14.5 Q37 16.4 38.3 17.7 39.6 19 41.5 19 43.35 19 44.7 17.7 46 16.35 46 14.5 L46 9.1 Q46 8 44.9 8 L38.05 8 M34.45 36 Q33 36 33 37.4 L33 44.25 Q33 46.65 34.75 48.35 36.5 50 39 50 41.5 50 43.25 48.35 45 46.65 45 44.25 L45 37.4 Q45 36 43.55 36 L34.45 36 M23.05 16 Q22 16 22 17.1 L22 22.5 Q22 24.4 23.3 25.7 24.6 27 26.5 27 28.35 27 29.7 25.7 31 24.35 31 22.5 L31 17.1 Q31 16 29.9 16 L23.05 16 M9.05 34 Q8 34 8 35.1 L8 40.5 Q8 42.4 9.3 43.7 10.6 45 12.5 45 14.35 45 15.7 43.7 17 42.35 17 40.5 L17 35.1 Q17 34 15.9 34 L9.05 34"/>
    <path stroke="none" fill="#FFFFFF" d="M9.05 34 L15.9 34 Q17 34 17 35.1 L17 40.5 Q17 42.35 15.7 43.7 14.35 45 12.5 45 10.6 45 9.3 43.7 8 42.4 8 40.5 L8 35.1 Q8 34 9.05 34 M64 19 Q61.5 19 59.75 17.35 58 15.65 58 13.25 L58 6.4 Q58 5 59.45 5 L64 5 64 19 M26 0 L26 1.25 Q26 3.65 24.25 5.35 22.5 7 20 7 17.5 7 15.75 5.35 14 3.65 14 1.25 L14 0 26 0 M0 5 L4.55 5 Q6 5 6 6.4 L6 13.25 Q6 15.65 4.25 17.35 2.5 19 0 19 L0 5 M0 44 L0.55 44 Q2 44 2 45.4 L2 52.25 Q2 54.65 0.25 56.35 L0 56.6 0 44 M14 64 L14 58.4 Q14 57 15.45 57 L24.55 57 Q26 57 26 58.4 L26 64 14 64 M64 56.6 Q62.3 58 60 58 57.5 58 55.75 56.35 54 54.65 54 52.25 L54 45.4 Q54 44 55.45 44 L64 44 64 56.6 M38.05 8 L44.9 8 Q46 8 46 9.1 L46 14.5 Q46 16.35 44.7 17.7 43.35 19 41.5 19 39.6 19 38.3 17.7 37 16.4 37 14.5 L37 9.1 Q37 8 38.05 8 M34.45 36 L43.55 36 Q45 36 45 37.4 L45 44.25 Q45 46.65 43.25 48.35 41.5 50 39 50 36.5 50 34.75 48.35 33 46.65 33 44.25 L33 37.4 Q33 36 34.45 36 M23.05 16 L29.9 16 Q31 16 31 17.1 L31 22.5 Q31 24.35 29.7 25.7 28.35 27 26.5 27 24.6 27 23.3 25.7 22 24.4 22 22.5 L22 17.1 Q22 16 23.05 16"/>
  </g>
</svg>