<svg width="64" height="64" xmlns="http://www.w3.org/2000/svg" xmlns:xlink="http://www.w3.org/1999/xlink">
  <defs/>
  <g>
    <path stroke="none" fill="#FFFFFF" d="M62 0 L64 0 64 2 50 16 64 30 64 34 50 48 64 62 64 64 62 64 48 50 34 64 30 64 16 50 2 64 0 64 0 62 14 48 0 34 0 30 14 16 0 2 0 0 2 0 16 14 30 0 34 0 48 14 62 0 M32 2 L18 16 32 30 46 16 32 2 M34 32 L48 46 62 32 48 18 34 32 M32 34 L18 48 32 62 46 48 32 34 M2 32 L16 46 30 32 16 18 2 32"/>
    <path stroke="none" fill="#000000" d="M2 32 L16 18 30 32 16 46 2 32 M64 2 L64 30 50 16 64 2 M64 34 L64 62 50 48 64 34 M62 64 L34 64 48 50 62 64 M30 64 L2 64 16 50 30 64 M0 62 L0 34 14 48 0 62 M0 30 L0 2 14 16 0 30 M2 0 L30 0 16 14 2 0 M34 0 L62 0 48 14 34 0 M32 2 L46 16 32 30 18 16 32 2 M34 32 L48 18 62 32 48 46 34 32 M32 34 L46 48 32 62 18 48 32 34"/>
  </g>
</svg>