<svg width="64" height="64" xmlns="http://www.w3.org/2000/svg" xmlns:xlink="http://www.w3.org/1999/xlink">
  <defs/>
  <g>
    <path stroke="none" fill="#000000" d="M61 28 L60.75 27.3 Q60.45 27 60 27 59.6 27 59.3 27.3 59 27.6 59 28 59 28.45 59.3 28.75 59.6 29 60 29 L60.75 28.75 61 28 M37 28 L36.75 27.3 Q36.45 27 36 27 35.6 27 35.3 27.3 35 27.6 35 28 35 28.45 35.3 28.75 L36 29 36.75 28.75 37 28 M37 4 L36.75 3.3 Q36.45 3 36 3 35.6 3 35.3 3.3 35 3.6 35 4 35 4.45 35.3 4.75 L36 5 36.75 4.75 37 4 M61 4 L60.75 3.3 Q60.45 3 60 3 59.6 3 59.3 3.3 59 3.6 59 4 59 4.45 59.3 4.75 59.6 5 60 5 L60.75 4.75 61 4 M63 1 L63 31 33 31 33 1 63 1 M61 60 L60.75 59.3 Q60.45 59 60 59 59.6 59 59.3 59.3 59 59.6 59 60 59 60.45 59.3 60.75 59.6 61 60 61 L60.75 60.75 61 60 M37 60 L36.75 59.3 Q36.45 59 36 59 35.6 59 35.3 59.3 35 59.6 35 60 35 60.45 35.3 60.75 L36 61 36.75 60.75 37 60 M37 36 L36.75 35.3 Q36.45 35 36 35 35.6 35 35.3 35.3 35 35.6 35 36 35 36.45 35.3 36.75 L36 37 36.75 36.75 37 36 M61 36 L60.75 35.3 Q60.45 35 60 35 59.6 35 59.3 35.3 59 35.6 59 36 59 36.45 59.3 36.75 59.6 37 60 37 L60.75 36.75 61 36 M63 63 L33 63 33 33 63 33 63 63 M29 28 L28.75 27.3 Q28.45 27 28 27 27.6 27 27.3 27.3 27 27.6 27 28 27 28.45 27.3 28.75 L28 29 28.75 28.75 29 28 M5 28 L4.75 27.3 Q4.45 27 4 27 3.6 27 3.3 27.3 3 27.6 3 28 3 28.45 3.3 28.75 3.6 29 4 29 L4.75 28.75 5 28 M5 4 L4.75 3.3 Q4.45 3 4 3 3.6 3 3.3 3.3 3 3.6 3 4 3 4.45 3.3 4.75 3.6 5 4 5 L4.75 4.75 5 4 M29 4 L28.75 3.3 Q28.45 3 28 3 27.6 3 27.3 3.3 27 3.6 27 4 27 4.45 27.3 4.75 L28 5 28.75 4.75 29 4 M1 1 L31 1 31 31 1 31 1 1 M29 60 L28.75 59.3 Q28.45 59 28 59 27.6 59 27.3 59.3 27 59.6 27 60 27 60.45 27.3 60.75 L28 61 28.75 60.75 29 60 M5 60 L4.75 59.3 Q4.45 59 4 59 3.6 59 3.3 59.3 3 59.6 3 60 3 60.45 3.3 60.75 3.6 61 4 61 L4.75 60.75 5 60 M5 36 L4.75 35.3 Q4.45 35 4 35 3.6 35 3.3 35.3 3 35.6 3 36 3 36.45 3.3 36.75 3.6 37 4 37 L4.75 36.75 5 36 M29 36 L28.75 35.3 Q28.45 35 28 35 27.6 35 27.3 35.3 27 35.6 27 36 27 36.45 27.3 36.75 L28 37 28.75 36.75 29 36 M1 63 L1 33 31 33 31 63 1 63"/>
    <path stroke="none" fill="#FFFFFF" d="M1 63 L31 63 31 33 1 33 1 63 M61 4 L60.75 4.75 60 5 Q59.6 5 59.3 4.75 59 4.45 59 4 59 3.6 59.3 3.3 59.6 3 60 3 60.45 3 60.75 3.3 L61 4 M37 4 L36.75 4.75 36 5 35.3 4.75 Q35 4.45 35 4 35 3.6 35.3 3.3 35.6 3 36 3 36.45 3 36.75 3.3 L37 4 M37 28 L36.75 28.75 36 29 35.3 28.75 Q35 28.45 35 28 35 27.6 35.3 27.3 35.6 27 36 27 36.45 27 36.75 27.3 L37 28 M61 28 L60.75 28.75 60 29 Q59.6 29 59.3 28.75 59 28.45 59 28 59 27.6 59.3 27.3 59.6 27 60 27 60.45 27 60.75 27.3 L61 28 M63 1 L33 1 33 31 63 31 63 1 M61 36 L60.75 36.75 60 37 Q59.6 37 59.3 36.75 59 36.45 59 36 59 35.6 59.3 35.3 59.6 35 60 35 60.45 35 60.75 35.3 L61 36 M37 36 L36.75 36.75 36 37 35.3 36.75 Q35 36.45 35 36 35 35.6 35.3 35.3 35.6 35 36 35 36.45 35 36.75 35.3 L37 36 M37 60 L36.75 60.75 36 61 35.3 60.75 Q35 60.45 35 60 35 59.6 35.3 59.3 35.6 59 36 59 36.45 59 36.75 59.3 L37 60 M61 60 L60.75 60.75 60 61 Q59.6 61 59.3 60.75 59 60.45 59 60 59 59.6 59.3 59.3 59.6 59 60 59 60.45 59 60.75 59.3 L61 60 M63 63 L63 33 33 33 33 63 63 63 M64 64 L0 64 0 0 64 0 64 64 M29 4 L28.75 4.75 28 5 27.3 4.75 Q27 4.45 27 4 27 3.6 27.3 3.3 27.6 3 28 3 28.45 3 28.75 3.3 L29 4 M5 4 L4.75 4.75 4 5 Q3.6 5 3.3 4.75 3 4.45 3 4 3 3.6 3.3 3.3 3.6 3 4 3 4.45 3 4.75 3.3 L5 4 M5 28 L4.75 28.75 4 29 Q3.6 29 3.3 28.75 3 28.45 3 28 3 27.6 3.3 27.3 3.6 27 4 27 4.45 27 4.75 27.3 L5 28 M29 28 L28.75 28.75 28 29 27.3 28.75 Q27 28.45 27 28 27 27.6 27.3 27.3 27.6 27 28 27 28.45 27 28.75 27.3 L29 28 M1 1 L1 31 31 31 31 1 1 1 M29 36 L28.75 36.75 28 37 27.3 36.75 Q27 36.45 27 36 27 35.6 27.3 35.3 27.6 35 28 35 28.45 35 28.75 35.3 L29 36 M5 36 L4.75 36.75 4 37 Q3.6 37 3.3 36.75 3 36.45 3 36 3 35.6 3.3 35.3 3.6 35 4 35 4.45 35 4.75 35.3 L5 36 M5 60 L4.75 60.75 4 61 Q3.6 61 3.3 60.75 3 60.45 3 60 3 59.6 3.3 59.3 3.6 59 4 59 4.45 59 4.75 59.3 L5 60 M29 60 L28.75 60.75 28 61 27.3 60.75 Q27 60.45 27 60 27 59.6 27.3 59.3 27.6 59 28 59 28.45 59 28.75 59.3 L29 60"/>
  </g>
</svg>