<svg width="64" height="64" xmlns="http://www.w3.org/2000/svg" xmlns:xlink="http://www.w3.org/1999/xlink">
  <defs/>
  <g>
    <path stroke="none" fill="#000000" d="M48 0 L48 16 64 16 64 32 48 32 48 16 32 16 32 0 48 0 M64 48 L64 64 48 64 48 48 32 48 32 32 16 32 16 16 32 16 32 32 48 32 48 48 64 48 M32 64 L16 64 16 48 32 48 32 64 M0 48 L0 32 16 32 16 48 0 48 M0 16 L0 0 16 0 16 16 0 16"/>
    <path stroke="none" fill="#FFFFFF" d="M0 16 L16 16 16 0 32 0 32 16 48 16 48 32 64 32 64 48 48 48 48 32 32 32 32 16 16 16 16 32 32 32 32 48 48 48 48 64 32 64 32 48 16 48 16 64 0 64 0 48 16 48 16 32 0 32 0 16 M64 16 L48 16 48 0 64 0 64 16"/>
  </g>
</svg>