<svg width="64" height="64" xmlns="http://www.w3.org/2000/svg" xmlns:xlink="http://www.w3.org/1999/xlink">
  <defs/>
  <g>
    <path stroke="none" fill="#FFFFFF" d="M38.7 0 L48.35 0 47.7 5.75 38.15 4.65 38.7 0 M64 9.25 L64 17.3 58.25 18.6 56.5 11.05 64 9.25 M64 34.4 L64 39.9 61.3 40.2 60.65 34.8 64 34.4 M48.4 64 L38.7 64 39.25 59.1 48.8 60.2 48.4 64 M0 39.9 L0 34.4 2.05 34.15 2.7 39.55 0 39.9 M0 17.3 L0 9.25 0.05 9.25 1.85 16.85 0 17.3 M42 8.45 L46.4 11.65 43.25 16.05 38.8 12.9 42 8.45 M46.45 24 L50.2 20.05 54.15 23.8 50.4 27.75 46.45 24 M36.6 19.2 L36.05 24.6 30.65 24.05 31.2 18.65 36.6 19.2 M53.2 30.2 L58.3 32.15 56.4 37.3 51.25 35.3 53.2 30.2 M55.25 49.5 L60.7 50.05 60.1 55.5 54.7 54.95 55.25 49.5 M44.65 29.65 L48.15 33.85 43.9 37.3 40.45 33.1 44.65 29.65 M39.3 51.1 L34.35 53.3 32.15 48.35 37.05 46.1 39.3 51.1 M52.5 49.3 L45.1 51.65 42.75 44.25 50.15 41.9 52.5 49.3 M27.9 38.45 L25.5 31 32.95 28.65 35.3 36.1 27.9 38.45 M10.2 6.6 L5.25 8.85 3 3.9 8 1.7 10.2 6.6 M20.7 21.8 L18.15 31.7 8.3 29.1 10.85 19.25 20.7 21.8 M19.3 2.9 L26.2 9.25 19.85 16.15 12.95 9.8 19.3 2.9 M13.2 45.35 L14.75 50 10.15 51.55 8.6 46.95 13.2 45.35 M15.3 38.35 L12.15 42.75 7.75 39.55 10.95 35.2 15.3 38.35 M19.65 45.8 L29.4 48 27.2 57.75 17.5 55.6 19.65 45.8 M1.8 56.95 L7.15 56.1 8 61.45 2.65 62.3 1.8 56.95"/>
    <path stroke="none" fill="#000000" d="M1.8 56.95 L2.65 62.3 8 61.45 7.15 56.1 1.8 56.95 M48.35 0 L64 0 64 9.25 56.5 11.05 58.25 18.6 64 17.3 64 34.4 60.65 34.8 61.3 40.2 64 39.9 64 64 48.4 64 48.8 60.2 39.25 59.1 38.7 64 0 64 0 39.9 2.7 39.55 2.05 34.15 0 34.4 0 17.3 1.85 16.85 0.05 9.25 0 9.25 0 0 38.7 0 38.15 4.65 47.7 5.75 48.35 0 M19.65 45.8 L17.5 55.6 27.2 57.75 29.4 48 19.65 45.8 M15.3 38.35 L10.95 35.2 7.75 39.55 12.15 42.75 15.3 38.35 M13.2 45.35 L8.6 46.95 10.15 51.55 14.75 50 13.2 45.35 M19.3 2.9 L12.95 9.8 19.85 16.15 26.2 9.25 19.3 2.9 M20.7 21.8 L10.85 19.25 8.3 29.1 18.15 31.7 20.7 21.8 M10.2 6.6 L8 1.7 3 3.9 5.25 8.85 10.2 6.6 M27.9 38.45 L35.3 36.1 32.95 28.65 25.5 31 27.9 38.45 M52.5 49.3 L50.15 41.9 42.75 44.25 45.1 51.65 52.5 49.3 M39.3 51.1 L37.05 46.1 32.15 48.35 34.35 53.3 39.3 51.1 M44.65 29.65 L40.45 33.1 43.9 37.3 48.15 33.85 44.65 29.65 M55.25 49.5 L54.7 54.95 60.1 55.5 60.7 50.05 55.25 49.5 M53.2 30.2 L51.25 35.3 56.4 37.3 58.3 32.15 53.2 30.2 M36.6 19.2 L31.2 18.65 30.65 24.05 36.05 24.6 36.6 19.2 M46.45 24 L50.4 27.75 54.15 23.8 50.2 20.05 46.45 24 M42 8.45 L38.8 12.9 43.25 16.05 46.4 11.65 42 8.45"/>
  </g>
</svg>