<svg width="64" height="64" xmlns="http://www.w3.org/2000/svg" xmlns:xlink="http://www.w3.org/1999/xlink">
  <defs/>
  <g>
    <path stroke="none" fill="#000000" d="M50.7 0 Q50.75 5.45 52.25 10.9 53.75 16.2 56.55 21 L55.25 13.95 54.05 6.9 53.5 3.5 53.2 0 55.45 0 55.6 2.9 55.95 5.8 57.55 16.2 59.1 26.65 Q59.75 31.85 59.2 36.65 L58.8 38.75 Q58.45 39.9 57.8 40.65 L56.6 41.9 55.55 43.3 Q54.5 45.05 53.7 48.3 L52.15 53.45 Q51.25 55.7 50.95 58.65 50.7 60.65 50.7 64 L48.35 64 48.6 58.65 49.2 53.3 Q49.85 48.85 50.4 46.4 51.25 42.65 52.55 39.8 L54.15 35.95 55.15 31.9 55.5 28.7 Q55.55 26.9 55.05 25.6 L52.95 19.5 50.85 13.4 Q49.65 9.5 49.1 6.8 48.35 3.15 48.35 0 L50.7 0 M59.15 0 L63.5 0 Q63.45 3.95 63.55 6.5 63.65 10.05 64 12.95 L64 39.6 Q59.7 44.5 57.45 51 55.3 57.25 55.45 64 L53.25 64 53.25 61.1 Q53.25 59.4 53.5 58.2 L53.9 56.05 54.35 53.95 55.8 49.05 Q56.65 46.35 57.6 44.35 58.1 43.25 59.4 41.5 L61.25 38.75 61.8 37.1 62 35.35 Q62.1 32.15 61.65 26.9 L60.15 13.5 Q59.3 5.45 59.15 0 M64 44.65 L64 57.75 Q63.7 59.1 63.55 60.85 L63.4 64 59.2 64 59.15 58.5 Q59.15 55.2 59.5 53.05 59.8 51.1 61.35 48.7 L64 44.65 M41.35 0 L46.6 0 Q46.35 4.65 46.7 7.65 L47.25 10.55 48.05 13.45 50.35 22.2 52.5 30.95 52.85 32.65 52.95 34.35 51.45 30.25 Q50.55 28 49.5 26.3 L46.85 22.05 44.1 17.85 Q43.35 16.6 42.9 14.9 42.55 13.7 42.3 11.75 41.5 6.05 41.35 0 M41.3 64 Q39.95 57.65 40.2 51.95 40.45 48.8 41.35 46.7 L43.25 41.9 Q44.15 39.2 44.35 36.85 44.55 35.1 44.1 33.45 43.65 31.75 42.6 30.35 41.1 28.35 38.9 26.3 L38.3 27.9 37.75 29.6 Q36.25 33.95 34.6 37.25 32.6 41.25 30.1 44.2 29.15 45.65 28.45 47.6 27.95 49.1 27.5 51.3 26.4 56.8 26.4 64 L22.25 64 22.45 56.15 Q22.7 51.85 23.5 48.3 24.6 43.6 26.6 41 L28.1 39.4 29.6 37.8 Q31.2 35.9 32.1 33.4 32.95 31.05 33.05 28.45 33.15 25.15 32.5 20.45 L31.3 12.55 Q30.45 5.45 30.7 0 L37.15 0 Q36.75 7.8 38.35 14.15 39.9 20.05 43.8 24.55 L47 27.9 Q48.95 29.95 49.8 31.6 51.5 34.75 50.4 39.45 49.75 42.4 47.9 46.4 47.15 48.05 46.75 50.15 L46.25 54.05 Q46 58.7 46.6 64 L41.3 64 M30.7 64 L30.7 57.25 Q30.9 53.45 31.8 50.6 34.55 42.5 38.3 36 L39.45 34.05 40.8 32.25 Q41.6 35.25 40.1 39.65 36.5 50.5 37.15 64 L30.7 64 M22.25 0 L26.4 0 Q26.35 5.75 27.65 12.6 L28.7 18.2 Q29.3 21.45 29.3 23.8 29.3 26.25 28.65 28.6 28.05 30.95 26.85 33 23.9 39 21.85 46.1 20.05 52.3 18.8 59.8 18.35 62.2 18.4 64 L11.5 64 11.65 60.3 11.95 56.6 13.6 42.15 15.15 27.7 Q15.9 20 13.95 13.75 12.85 15.7 12.05 18.55 L10.75 23.55 Q10.45 24.65 10.4 26.25 L10.45 28.95 10.1 36.05 8.95 42.75 Q8 47.4 7.75 49.45 7.5 51.2 7.55 53.55 L7.7 57.65 7.95 60.85 Q8.1 62.65 8.4 64 L3.7 64 3.7 52 3.65 48.15 Q1 52.35 0 57.5 L0 44.45 Q3.75 37.75 4.75 29.95 5.55 24.1 4.8 15 L4.1 7.5 Q3.75 3.1 3.7 0 L8.4 0 9.3 7.25 10 14.5 Q10.8 12.95 11.15 10.65 L11.55 6.65 11.6 3.35 11.5 0 18.45 0 Q18.5 1.9 18.9 4.45 L19.65 8.8 20.7 15.9 Q21.1 19.85 20.8 23.05 20.45 25.8 19.5 29.25 L17.6 35.25 Q16.3 39.55 16.1 44.55 16.05 46.95 16.5 49.9 L17.5 55.15 17.95 53.6 20.85 41.65 Q22.35 35.05 23.15 29.6 23.55 27.05 23.55 23.8 L23.35 17.95 22.65 9 Q22.2 3.55 22.25 0 M0 12.65 L0.5 15.45 0.95 18.3 2.45 27.25 2.6 28.25 2.75 29.75 Q3.25 34.95 0 39.55 L0 12.65"/>
    <path stroke="none" fill="#FFFFFF" d="M0 12.65 L0 0 3.7 0 Q3.75 3.1 4.1 7.5 L4.8 15 Q5.55 24.1 4.75 29.95 3.75 37.75 0 44.45 L0 39.55 Q3.25 34.95 2.75 29.75 L2.6 28.25 2.45 27.25 0.95 18.3 0.5 15.45 0 12.65 M53.2 0 L53.5 3.5 54.05 6.9 55.25 13.95 56.55 21 Q53.75 16.2 52.25 10.9 50.75 5.45 50.7 0 L53.2 0 M48.35 0 Q48.35 3.15 49.1 6.8 49.65 9.5 50.85 13.4 L52.95 19.5 55.05 25.6 Q55.55 26.9 55.5 28.7 L55.15 31.9 54.15 35.95 52.55 39.8 Q51.25 42.65 50.4 46.4 49.85 48.85 49.2 53.3 L48.6 58.65 48.35 64 46.6 64 Q46 58.7 46.25 54.05 L46.75 50.15 Q47.15 48.05 47.9 46.4 49.75 42.4 50.4 39.45 51.5 34.75 49.8 31.6 48.95 29.95 47 27.9 L43.8 24.55 Q39.9 20.05 38.35 14.15 36.75 7.8 37.15 0 L41.35 0 Q41.5 6.05 42.3 11.75 42.55 13.7 42.9 14.9 43.35 16.6 44.1 17.85 L46.85 22.05 49.5 26.3 Q50.55 28 51.45 30.25 L52.95 34.35 52.85 32.65 52.5 30.95 50.35 22.2 48.05 13.45 47.25 10.55 46.7 7.65 Q46.35 4.65 46.6 0 L48.35 0 M50.7 64 Q50.7 60.65 50.95 58.65 51.25 55.7 52.15 53.45 L53.7 48.3 Q54.5 45.05 55.55 43.3 L56.6 41.9 57.8 40.65 Q58.45 39.9 58.8 38.75 L59.2 36.65 Q59.75 31.85 59.1 26.65 L57.55 16.2 55.95 5.8 55.6 2.9 55.45 0 59.15 0 Q59.3 5.45 60.15 13.5 L61.65 26.9 Q62.1 32.15 62 35.35 L61.8 37.1 61.25 38.75 59.4 41.5 Q58.1 43.25 57.6 44.35 56.65 46.35 55.8 49.05 L54.35 53.95 53.9 56.05 53.5 58.2 Q53.25 59.4 53.25 61.1 L53.25 64 50.7 64 M63.5 0 L64 0 64 12.95 Q63.65 10.05 63.55 6.5 63.45 3.95 63.5 0 M64 39.6 L64 44.65 61.35 48.7 Q59.8 51.1 59.5 53.05 59.15 55.2 59.15 58.5 L59.2 64 55.45 64 Q55.3 57.25 57.45 51 59.7 44.5 64 39.6 M64 57.75 L64 64 63.4 64 63.55 60.85 Q63.7 59.1 64 57.75 M26.4 64 Q26.4 56.8 27.5 51.3 27.95 49.1 28.45 47.6 29.15 45.65 30.1 44.2 32.6 41.25 34.6 37.25 36.25 33.95 37.75 29.6 L38.3 27.9 38.9 26.3 Q41.1 28.35 42.6 30.35 43.65 31.75 44.1 33.45 44.55 35.1 44.35 36.85 44.15 39.2 43.25 41.9 L41.35 46.7 Q40.45 48.8 40.2 51.95 39.95 57.65 41.3 64 L37.15 64 Q36.5 50.5 40.1 39.65 41.6 35.25 40.8 32.25 L39.45 34.05 38.3 36 Q34.55 42.5 31.8 50.6 30.9 53.45 30.7 57.25 L30.7 64 26.4 64 M30.7 0 Q30.45 5.45 31.3 12.55 L32.5 20.45 Q33.15 25.15 33.05 28.45 32.95 31.05 32.1 33.4 31.2 35.9 29.6 37.8 L28.1 39.4 26.6 41 Q24.6 43.6 23.5 48.3 22.7 51.85 22.45 56.15 L22.25 64 18.4 64 Q18.35 62.2 18.8 59.8 20.05 52.3 21.85 46.1 23.9 39 26.85 33 28.05 30.95 28.65 28.6 29.3 26.25 29.3 23.8 29.3 21.45 28.7 18.2 L27.65 12.6 Q26.35 5.75 26.4 0 L30.7 0 M22.25 0 Q22.2 3.55 22.65 9 L23.35 17.95 23.55 23.8 Q23.55 27.05 23.15 29.6 22.35 35.05 20.85 41.65 L17.95 53.6 17.5 55.15 16.5 49.9 Q16.05 46.95 16.1 44.55 16.3 39.55 17.6 35.25 L19.5 29.25 Q20.45 25.8 20.8 23.05 21.1 19.85 20.7 15.9 L19.65 8.8 18.9 4.45 Q18.5 1.9 18.45 0 L22.25 0 M11.5 0 L11.6 3.35 11.55 6.65 11.15 10.65 Q10.8 12.95 10 14.5 L9.3 7.25 8.4 0 11.5 0 M0 57.5 Q1 52.35 3.65 48.15 L3.7 52 3.7 64 0 64 0 57.5 M8.4 64 Q8.1 62.65 7.95 60.85 L7.7 57.65 7.55 53.55 Q7.5 51.2 7.75 49.45 8 47.4 8.95 42.75 L10.1 36.05 10.45 28.95 10.4 26.25 Q10.45 24.65 10.75 23.55 L12.05 18.55 Q12.85 15.7 13.95 13.75 15.9 20 15.15 27.7 L13.6 42.15 11.95 56.6 11.65 60.3 11.5 64 8.4 64"/>
  </g>
</svg>