<svg width="64" height="64" xmlns="http://www.w3.org/2000/svg" xmlns:xlink="http://www.w3.org/1999/xlink">
  <defs/>
  <g>
    <path stroke="none" fill="#000000" d="M0 17 L0 0 64 0 64 17 Q56 21.95 48 17 40 12.05 32 17 24 21.95 16 17 8 12.05 0 17 M64 47 L64 64 0 64 0 47 Q8 42.05 16 47 24 51.95 32 47 40 42.05 48 47 56 51.95 64 47"/>
    <path stroke="none" fill="#FFFFFF" d="M64 47 Q56 51.95 48 47 40 42.05 32 47 24 51.95 16 47 8 42.05 0 47 L0 17 Q8 12.05 16 17 24 21.95 32 17 40 12.05 48 17 56 21.95 64 17 L64 47"/>
  </g>
</svg>