<svg width="64" height="64" xmlns="http://www.w3.org/2000/svg" xmlns:xlink="http://www.w3.org/1999/xlink">
  <defs/>
  <g>
    <path stroke="none" fill="#FFFFFF" d="M44 0 L48 0 64 0 64 16 64 20 52 32 64 32 64 48 64 52 52 64 48 64 32 64 32 52 20 64 16 64 0 64 0 48 0 44 12 32 0 32 0 16 0 12 12 0 16 0 32 0 32 12 44 0 M16 0 L0 16 16 32 0 48 16 64 32 48 48 64 64 48 48 32 64 16 48 0 32 16 16 0 M32 32 L32 44 44 32 32 32 32 20 20 32 32 32 M16 32 L32 16 48 32 32 48 16 32"/>
    <path stroke="none" fill="#000000" d="M16 32 L0 16 16 0 32 16 48 0 64 16 48 32 64 48 48 64 32 48 16 64 0 48 16 32 32 48 48 32 32 16 16 32 M64 20 L64 32 52 32 64 20 M64 52 L64 64 52 64 64 52 M32 64 L20 64 32 52 32 64 M0 44 L0 32 12 32 0 44 M0 12 L0 0 12 0 0 12 M32 0 L44 0 32 12 32 0 M32 32 L20 32 32 20 32 32 44 32 32 44 32 32"/>
  </g>
</svg>