<svg width="64" height="64" xmlns="http://www.w3.org/2000/svg" xmlns:xlink="http://www.w3.org/1999/xlink">
  <defs/>
  <g>
    <path stroke="none" fill="#FFFFFF" d="M0 16 L0 0 16 0 48 0 64 0 64 16 48 0 32 16 16 0 0 16 M64 32 L64 48 48 32 32 48 16 32 0 48 0 32 16 16 32 32 48 16 64 32 M64 64 L32 64 0 64 16 48 32 64 48 48 64 64"/>
    <path stroke="none" fill="#000000" d="M64 64 L48 48 32 64 16 48 0 64 0 48 16 32 32 48 48 32 64 48 64 64 M64 16 L64 32 48 16 32 32 16 16 0 32 0 16 16 0 32 16 48 0 64 16"/>
  </g>
</svg>