<svg width="64" height="64" xmlns="http://www.w3.org/2000/svg" xmlns:xlink="http://www.w3.org/1999/xlink">
  <defs/>
  <g>
    <path stroke="none" fill="#FFFFFF" d="M64 12 L64 19 Q48 23.95 32 19 16 14.05 0 19 L0 12 Q16 7.05 32 12 48 16.95 64 12 M64 39 L64 52 Q48 56.95 32 52 16 47.05 0 52 L0 39 Q16 34.05 32 39 48 43.95 64 39"/>
    <path stroke="none" fill="#000000" d="M64 39 Q48 43.95 32 39 16 34.05 0 39 L0 19 Q16 14.05 32 19 48 23.95 64 19 L64 39 M0 12 L0 0 64 0 64 12 Q48 16.95 32 12 16 7.05 0 12 M64 52 L64 64 0 64 0 52 Q16 47.05 32 52 48 56.95 64 52"/>
  </g>
</svg>