<svg width="64" height="64" xmlns="http://www.w3.org/2000/svg" xmlns:xlink="http://www.w3.org/1999/xlink">
  <defs/>
  <g>
    <path stroke="none" fill="#000000" d="M0 4.65 L0 0 64 0 64 4.65 59.1 4.85 Q56.55 5.05 55.4 5.8 54.2 6.45 53.8 7.95 53.55 8.85 53.45 11.3 53.55 13.75 53.8 14.65 54.2 16.15 55.4 16.8 56.55 17.5 59.1 17.75 L64 17.9 64 64 0 64 0 17.9 0.85 17.9 6.65 17.75 Q9.25 17.5 10.35 16.8 11.55 16.15 11.95 14.65 L12.3 11.3 11.95 7.95 Q11.55 6.45 10.35 5.8 9.25 5.05 6.65 4.85 L0.85 4.65 0 4.65 M19.35 26.2 L19.05 23.6 Q18.75 22.45 17.8 21.9 16.95 21.4 14.95 21.2 L10.45 21.05 6 21.2 Q3.95 21.4 3.1 21.9 2.15 22.45 1.85 23.6 1.65 24.3 1.6 26.2 1.65 28.1 1.85 28.8 2.15 29.95 3.1 30.5 3.95 31 6 31.2 L10.45 31.35 14.95 31.2 Q16.95 31 17.8 30.5 18.75 29.95 19.05 28.8 L19.35 26.2 M37.15 49.45 L36.75 45.85 Q36.35 44.25 35.05 43.5 33.85 42.75 31.05 42.5 L24.85 42.3 18.65 42.5 Q15.85 42.75 14.65 43.5 13.35 44.25 12.95 45.85 12.7 46.8 12.6 49.45 12.7 52.1 12.95 53.05 13.35 54.65 14.65 55.4 15.85 56.15 18.65 56.4 L24.85 56.6 31.05 56.4 Q33.85 56.15 35.05 55.4 36.35 54.65 36.75 53.05 L37.15 49.45 M56.45 41.85 L56.2 39.25 Q55.85 38.1 54.95 37.6 54.05 37.05 52.05 36.85 L47.55 36.7 43.1 36.85 Q41.1 37.05 40.2 37.6 39.3 38.1 38.95 39.25 L38.7 41.85 38.95 44.45 Q39.3 45.65 40.2 46.15 41.1 46.7 43.1 46.85 L47.55 47 52.05 46.85 Q54.05 46.7 54.95 46.15 55.85 45.65 56.2 44.45 L56.45 41.85 M37.55 15.6 L37.3 13 Q37 11.85 36.05 11.35 35.2 10.8 33.15 10.6 L28.7 10.45 24.2 10.6 Q22.2 10.8 21.35 11.35 20.4 11.85 20.1 13 19.9 13.7 19.8 15.6 19.9 17.55 20.1 18.2 20.4 19.4 21.35 19.9 22.2 20.45 24.2 20.6 L28.7 20.75 33.15 20.6 Q35.2 20.45 36.05 19.9 37 19.4 37.3 18.2 L37.55 15.6"/>
    <path stroke="none" fill="#FFFFFF" d="M37.55 15.6 L37.3 18.2 Q37 19.4 36.05 19.9 35.2 20.45 33.15 20.6 L28.7 20.75 24.2 20.6 Q22.2 20.45 21.35 19.9 20.4 19.4 20.1 18.2 19.9 17.55 19.8 15.6 19.9 13.7 20.1 13 20.4 11.85 21.35 11.35 22.2 10.8 24.2 10.6 L28.7 10.45 33.15 10.6 Q35.2 10.8 36.05 11.35 37 11.85 37.3 13 L37.55 15.6 M64 4.65 L64 17.9 59.1 17.75 Q56.55 17.5 55.4 16.8 54.2 16.15 53.8 14.65 53.55 13.75 53.45 11.3 53.55 8.85 53.8 7.95 54.2 6.45 55.4 5.8 56.55 5.05 59.1 4.85 L64 4.65 M0 17.9 L0 4.65 0.85 4.65 6.65 4.85 Q9.25 5.05 10.35 5.8 11.55 6.45 11.95 7.95 L12.3 11.3 11.95 14.65 Q11.55 16.15 10.35 16.8 9.25 17.5 6.65 17.75 L0.85 17.9 0 17.9 M56.45 41.85 L56.2 44.45 Q55.85 45.65 54.95 46.15 54.05 46.7 52.05 46.85 L47.55 47 43.1 46.85 Q41.1 46.7 40.2 46.15 39.3 45.65 38.95 44.45 L38.7 41.85 38.95 39.25 Q39.3 38.1 40.2 37.6 41.1 37.05 43.1 36.85 L47.55 36.7 52.05 36.85 Q54.05 37.05 54.95 37.6 55.85 38.1 56.2 39.25 L56.45 41.85 M37.15 49.45 L36.75 53.05 Q36.35 54.65 35.05 55.4 33.85 56.15 31.05 56.4 L24.85 56.6 18.65 56.4 Q15.85 56.15 14.65 55.4 13.35 54.65 12.95 53.05 12.7 52.1 12.6 49.45 12.7 46.8 12.95 45.85 13.35 44.25 14.65 43.5 15.85 42.75 18.65 42.5 L24.85 42.3 31.05 42.5 Q33.85 42.75 35.05 43.5 36.35 44.25 36.75 45.85 L37.15 49.45 M19.35 26.2 L19.05 28.8 Q18.75 29.95 17.8 30.5 16.95 31 14.95 31.2 L10.45 31.35 6 31.2 Q3.95 31 3.1 30.5 2.15 29.95 1.85 28.8 1.65 28.1 1.6 26.2 1.65 24.3 1.85 23.6 2.15 22.45 3.1 21.9 3.95 21.4 6 21.2 L10.45 21.05 14.95 21.2 Q16.95 21.4 17.8 21.9 18.75 22.45 19.05 23.6 L19.35 26.2"/>
  </g>
</svg>