<svg width="64" height="64" xmlns="http://www.w3.org/2000/svg" xmlns:xlink="http://www.w3.org/1999/xlink">
  <defs/>
  <g>
    <path stroke="none" fill="#000000" d="M36 64 L0 64 0 0 64 0 64 4 60 4 60 8 64 8 64 64 40 64 40 60 36 60 36 64 M4 48 L4 52 8 52 8 48 4 48 M24 44 L24 48 28 48 28 44 24 44 M24 21 L24 13 16 13 16 21 24 21 M16 25 L12 25 12 29 16 29 16 25 M8 9 L8 13 12 13 12 9 8 9 M44 48 L44 44 40 44 40 48 44 48 M36 36 L32 36 32 40 36 40 36 36 M56 48 L48 48 48 56 56 56 56 48 M28 9 L32 9 32 5 28 5 28 9 M60 16 L60 12 56 12 56 16 60 16 M36 17 L32 17 32 21 36 21 36 17"/>
    <path stroke="none" fill="#FFFFFF" d="M36 17 L36 21 32 21 32 17 36 17 M64 4 L64 8 60 8 60 4 64 4 M40 64 L36 64 36 60 40 60 40 64 M60 16 L56 16 56 12 60 12 60 16 M28 9 L28 5 32 5 32 9 28 9 M56 48 L56 56 48 56 48 48 56 48 M36 36 L36 40 32 40 32 36 36 36 M44 48 L40 48 40 44 44 44 44 48 M8 9 L12 9 12 13 8 13 8 9 M16 25 L16 29 12 29 12 25 16 25 M24 21 L16 21 16 13 24 13 24 21 M24 44 L28 44 28 48 24 48 24 44 M4 48 L8 48 8 52 4 52 4 48"/>
  </g>
</svg>