<svg width="64" height="64" xmlns="http://www.w3.org/2000/svg" xmlns:xlink="http://www.w3.org/1999/xlink">
  <defs/>
  <g>
    <path stroke="none" fill="#FFFFFF" d="M57.4 0 L64 0 64 6.3 63.95 6.35 Q61.85 4.9 60.15 3.35 58.2 1.6 57.4 0 M64 16.5 L64 27.6 63.95 27.65 Q61.85 26.2 60.15 24.65 56.9 21.75 56.9 19.3 56.9 15.75 59.45 15.05 61.85 14.4 63.95 16.55 L64 16.5 M64 37.85 L64 49 63.95 49 60.15 46.05 Q56.9 43.05 56.9 40.65 56.9 37.1 59.45 36.4 61.85 35.75 63.95 37.9 L64 37.85 M64 59.2 L64 64 57.4 64 Q56.9 62.95 56.9 62 56.9 58.45 59.45 57.75 61.85 57.1 63.95 59.25 L64 59.2 M49.15 64 L36.05 64 Q35.55 62.95 35.55 62 35.55 58.45 38.15 57.75 40.55 57.1 42.6 59.25 44.7 57.1 47.1 57.75 49.7 58.45 49.7 62 49.7 62.95 49.15 64 M27.8 64 L14.7 64 Q14.2 62.95 14.2 62 14.2 58.45 16.75 57.75 19.2 57.1 21.25 59.25 23.4 57.1 25.8 57.75 28.35 58.45 28.35 62 28.35 62.95 27.8 64 M6.5 64 L0 64 0 59.2 Q2.1 57.1 4.45 57.75 7 58.45 7 62 7 62.95 6.5 64 M0 49 L0 37.85 Q2.1 35.75 4.5 36.4 7.05 37.05 7.05 40.65 7.05 43.05 3.8 46 2.1 47.5 0 49 M0 27.65 L0 16.5 Q2.1 14.4 4.45 15.05 7 15.75 7 19.3 7 21.75 3.75 24.65 L0 27.65 M0 6.3 L0 0 6.5 0 Q5.75 1.6 3.75 3.35 L0 6.3 M14.7 0 L27.8 0 Q27.05 1.6 25.05 3.35 L22.65 5.25 21.25 6.35 17.45 3.35 Q15.5 1.6 14.7 0 M36.05 0 L49.15 0 Q48.4 1.6 46.4 3.35 L42.6 6.35 38.8 3.35 Q36.85 1.6 36.05 0 M21.25 37.9 Q23.4 35.75 25.8 36.4 28.35 37.05 28.35 40.65 28.35 43.05 25.1 46 23.4 47.5 21.25 49 L17.45 46.05 Q14.2 43.05 14.2 40.65 14.2 37.1 16.75 36.4 19.2 35.75 21.25 37.9 M21.25 16.55 Q23.4 14.4 25.8 15.05 28.35 15.75 28.35 19.3 28.35 21.75 25.05 24.65 L21.25 27.65 17.45 24.65 Q14.2 21.75 14.2 19.3 14.2 15.75 16.75 15.05 19.2 14.4 21.25 16.55 M42.6 37.9 Q44.7 35.75 47.15 36.4 49.7 37.05 49.7 40.65 49.7 43.05 46.45 46 L42.6 49 38.8 46.05 Q35.55 43.05 35.55 40.65 35.55 37.1 38.1 36.4 40.55 35.75 42.6 37.9 M42.6 16.55 Q44.7 14.4 47.1 15.05 49.7 15.75 49.7 19.3 49.7 21.75 46.4 24.65 L42.6 27.65 38.8 24.65 Q35.55 21.75 35.55 19.3 35.55 15.75 38.15 15.05 40.55 14.4 42.6 16.55"/>
    <path stroke="none" fill="#000000" d="M42.6 16.55 Q40.55 14.4 38.15 15.05 35.55 15.75 35.55 19.3 35.55 21.75 38.8 24.65 L42.6 27.65 46.4 24.65 Q49.7 21.75 49.7 19.3 49.7 15.75 47.1 15.05 44.7 14.4 42.6 16.55 M64 6.3 L64 16.5 63.95 16.55 Q61.85 14.4 59.45 15.05 56.9 15.75 56.9 19.3 56.9 21.75 60.15 24.65 61.85 26.2 63.95 27.65 L64 27.6 64 37.85 63.95 37.9 Q61.85 35.75 59.45 36.4 56.9 37.1 56.9 40.65 56.9 43.05 60.15 46.05 L63.95 49 64 49 64 59.2 63.95 59.25 Q61.85 57.1 59.45 57.75 56.9 58.45 56.9 62 56.9 62.95 57.4 64 L49.15 64 Q49.7 62.95 49.7 62 49.7 58.45 47.1 57.75 44.7 57.1 42.6 59.25 40.55 57.1 38.15 57.75 35.55 58.45 35.55 62 35.55 62.95 36.05 64 L27.8 64 Q28.35 62.95 28.35 62 28.35 58.45 25.8 57.75 23.4 57.1 21.25 59.25 19.2 57.1 16.75 57.75 14.2 58.45 14.2 62 14.2 62.95 14.7 64 L6.5 64 Q7 62.95 7 62 7 58.45 4.45 57.75 2.1 57.1 0 59.2 L0 49 Q2.1 47.5 3.8 46 7.05 43.05 7.05 40.65 7.05 37.05 4.5 36.4 2.1 35.75 0 37.85 L0 27.65 3.75 24.65 Q7 21.75 7 19.3 7 15.75 4.45 15.05 2.1 14.4 0 16.5 L0 6.3 3.75 3.35 Q5.75 1.6 6.5 0 L14.7 0 Q15.5 1.6 17.45 3.35 L21.25 6.35 22.65 5.25 25.05 3.35 Q27.05 1.6 27.8 0 L36.05 0 Q36.85 1.6 38.8 3.35 L42.6 6.35 46.4 3.35 Q48.4 1.6 49.15 0 L57.4 0 Q58.2 1.6 60.15 3.35 61.85 4.9 63.95 6.35 L64 6.3 M42.6 37.9 Q40.55 35.75 38.1 36.4 35.55 37.1 35.55 40.65 35.55 43.05 38.8 46.05 L42.6 49 46.45 46 Q49.7 43.05 49.7 40.65 49.7 37.05 47.15 36.4 44.7 35.75 42.6 37.9 M21.25 16.55 Q19.2 14.4 16.75 15.05 14.2 15.75 14.2 19.3 14.2 21.75 17.45 24.65 L21.25 27.65 25.05 24.65 Q28.35 21.75 28.35 19.3 28.35 15.75 25.8 15.05 23.4 14.4 21.25 16.55 M21.25 37.9 Q19.2 35.75 16.75 36.4 14.2 37.1 14.2 40.65 14.2 43.05 17.45 46.05 L21.25 49 Q23.4 47.5 25.1 46 28.35 43.05 28.35 40.65 28.35 37.05 25.8 36.4 23.4 35.75 21.25 37.9"/>
  </g>
</svg>