<svg width="64" height="64" xmlns="http://www.w3.org/2000/svg" xmlns:xlink="http://www.w3.org/1999/xlink">
  <defs/>
  <g>
    <path stroke="none" fill="#000000" d="M60 0 L64 0 64 16 52 28 52 36 64 48 64 64 60 64 60 60 48 48 36 60 36 64 28 64 28 60 16 48 4 60 4 64 0 64 0 48 12 36 12 28 0 16 0 0 4 0 4 4 16 16 28 4 28 0 36 0 36 4 48 16 60 4 60 0 M32 16 L20 28 20 36 32 48 44 36 44 28 32 16"/>
    <path stroke="none" fill="#FFFFFF" d="M32 16 L44 28 44 36 32 48 20 36 20 28 32 16 M64 16 L64 48 52 36 52 28 64 16 M60 64 L36 64 36 60 48 48 60 60 60 64 M28 64 L4 64 4 60 16 48 28 60 28 64 M0 48 L0 16 12 28 12 36 0 48 M4 0 L28 0 28 4 16 16 4 4 4 0 M36 0 L60 0 60 4 48 16 36 4 36 0"/>
  </g>
</svg>