<svg width="64" height="64" xmlns="http://www.w3.org/2000/svg" xmlns:xlink="http://www.w3.org/1999/xlink">
  <defs/>
  <g>
    <path stroke="none" fill="#FFFFFF" d="M56.9 0 L64 0 64 7.1 63.95 7.1 Q63.65 7.1 63.45 6.9 L57.1 0.6 56.9 0.05 56.9 0 M64 14.2 L64 28.35 63.95 28.35 Q63.65 28.35 63.45 28.15 L57.1 21.8 56.9 21.3 57.1 20.75 63.45 14.45 Q63.65 14.2 63.95 14.2 L64 14.2 M64 35.55 L64 49.7 63.95 49.7 Q63.65 49.7 63.45 49.5 L57.1 43.15 56.9 42.6 57.1 42.1 63.45 35.75 63.95 35.55 64 35.55 M64 57 L64 64 56.9 64 57.1 63.5 63.45 57.2 63.95 57 64 57 M49.7 64 L35.55 64 35.75 63.5 42.1 57.2 Q42.3 57 42.6 57 L43.15 57.2 49.45 63.5 49.7 64 M28.35 64 L14.2 64 14.4 63.5 20.75 57.2 21.25 57 21.8 57.2 28.1 63.5 28.35 64 M7 64 L0 64 0 57 0.5 57.2 6.8 63.5 7 64 M0 49.7 L0 35.55 0.5 35.75 6.8 42.1 7.05 42.6 6.8 43.15 0.5 49.5 Q0.3 49.7 0 49.7 M0 28.35 L0 14.2 Q0.3 14.25 0.5 14.45 L6.8 20.75 7 21.3 6.8 21.8 0.5 28.15 Q0.3 28.35 0 28.35 M0 7.1 L0 0 7 0 7 0.05 6.8 0.6 0.5 6.9 Q0.3 7.1 0 7.1 M14.2 0 L28.35 0 28.35 0.05 28.1 0.6 21.8 6.9 21.25 7.1 Q20.95 7.1 20.75 6.9 L14.4 0.6 14.2 0.05 14.2 0 M35.55 0 L49.7 0 49.7 0.05 49.45 0.6 43.15 6.9 42.6 7.15 42.1 6.9 35.75 0.6 35.55 0.05 35.55 0 M49.45 20.75 L49.7 21.3 49.45 21.8 43.15 28.15 42.6 28.35 Q42.3 28.35 42.1 28.15 L35.75 21.8 35.55 21.3 35.75 20.75 42.1 14.45 Q42.3 14.2 42.6 14.2 42.95 14.2 43.15 14.45 L49.45 20.75 M49.45 42.1 L49.7 42.6 49.45 43.15 43.15 49.5 42.6 49.7 Q42.3 49.7 42.1 49.5 L35.75 43.15 35.55 42.6 35.75 42.1 42.1 35.75 Q42.3 35.55 42.6 35.55 L43.15 35.75 49.45 42.1 M28.1 20.75 L28.35 21.3 28.1 21.8 21.8 28.15 21.25 28.35 Q20.95 28.35 20.75 28.15 L14.4 21.8 14.2 21.3 14.4 20.75 20.75 14.45 Q20.95 14.2 21.25 14.2 21.6 14.2 21.8 14.45 L28.1 20.75 M28.15 42.1 L28.35 42.6 28.15 43.15 21.8 49.5 21.25 49.7 Q20.95 49.7 20.75 49.5 L14.4 43.15 14.2 42.6 14.4 42.1 20.75 35.75 21.25 35.55 21.8 35.75 28.15 42.1"/>
    <path stroke="none" fill="#000000" d="M28.15 42.1 L21.8 35.75 21.25 35.55 20.75 35.75 14.4 42.1 14.2 42.6 14.4 43.15 20.75 49.5 Q20.95 49.7 21.25 49.7 L21.8 49.5 28.15 43.15 28.35 42.6 28.15 42.1 M64 7.1 L64 14.2 63.95 14.2 Q63.65 14.2 63.45 14.45 L57.1 20.75 56.9 21.3 57.1 21.8 63.45 28.15 Q63.65 28.35 63.95 28.35 L64 28.35 64 35.55 63.95 35.55 63.45 35.75 57.1 42.1 56.9 42.6 57.1 43.15 63.45 49.5 Q63.65 49.7 63.95 49.7 L64 49.7 64 57 63.95 57 63.45 57.2 57.1 63.5 56.9 64 49.7 64 49.45 63.5 43.15 57.2 42.6 57 Q42.3 57 42.1 57.2 L35.75 63.5 35.55 64 28.35 64 28.1 63.5 21.8 57.2 21.25 57 20.75 57.2 14.4 63.5 14.2 64 7 64 6.8 63.5 0.5 57.2 0 57 0 49.7 Q0.3 49.7 0.5 49.5 L6.8 43.15 7.05 42.6 6.8 42.1 0.5 35.75 0 35.55 0 28.35 Q0.3 28.35 0.5 28.15 L6.8 21.8 7 21.3 6.8 20.75 0.5 14.45 Q0.3 14.25 0 14.2 L0 7.1 Q0.3 7.1 0.5 6.9 L6.8 0.6 7 0.05 7 0 14.2 0 14.2 0.05 14.4 0.6 20.75 6.9 Q20.95 7.1 21.25 7.1 L21.8 6.9 28.1 0.6 28.35 0.05 28.35 0 35.55 0 35.55 0.05 35.75 0.6 42.1 6.9 42.6 7.15 43.15 6.9 49.45 0.6 49.7 0.05 49.7 0 56.9 0 56.9 0.05 57.1 0.6 63.45 6.9 Q63.65 7.1 63.95 7.1 L64 7.1 M28.1 20.75 L21.8 14.45 Q21.6 14.2 21.25 14.2 20.95 14.2 20.75 14.45 L14.4 20.75 14.2 21.3 14.4 21.8 20.75 28.15 Q20.95 28.35 21.25 28.35 L21.8 28.15 28.1 21.8 28.35 21.3 28.1 20.75 M49.45 42.1 L43.15 35.75 42.6 35.55 Q42.3 35.55 42.1 35.75 L35.75 42.1 35.55 42.6 35.75 43.15 42.1 49.5 Q42.3 49.7 42.6 49.7 L43.15 49.5 49.45 43.15 49.7 42.6 49.45 42.1 M49.45 20.75 L43.15 14.45 Q42.95 14.2 42.6 14.2 42.3 14.2 42.1 14.45 L35.75 20.75 35.55 21.3 35.75 21.8 42.1 28.15 Q42.3 28.35 42.6 28.35 L43.15 28.15 49.45 21.8 49.7 21.3 49.45 20.75"/>
  </g>
</svg>