<svg width="64" height="64" xmlns="http://www.w3.org/2000/svg" xmlns:xlink="http://www.w3.org/1999/xlink">
  <defs/>
  <g>
    <path stroke="none" fill="#000000" d="M60 47.9 L48.05 35.9 36.05 47.9 48 59.9 60 47.9 M48.05 4 L36.05 15.95 48 27.95 60 16 48.05 4 M0 0 L64 0 64 64 0 64 0 0 M4.1 47.9 L16.05 59.9 28.05 47.9 16.1 35.9 4.1 47.9 M16.1 4 L4.1 15.95 16.05 27.95 28.05 16 16.1 4"/>
    <path stroke="none" fill="#FFFFFF" d="M16.1 4 L28.05 16 16.05 27.95 4.1 15.95 16.1 4 M48.05 4 L60 16 48 27.95 36.05 15.95 48.05 4 M60 47.9 L48 59.9 36.05 47.9 48.05 35.9 60 47.9 M4.1 47.9 L16.1 35.9 28.05 47.9 16.05 59.9 4.1 47.9"/>
  </g>
</svg>