<svg width="64" height="64" xmlns="http://www.w3.org/2000/svg" xmlns:xlink="http://www.w3.org/1999/xlink">
  <defs/>
  <g>
    <path stroke="none" fill="#000000" d="M64 16.9 L61.9 17.15 Q58.55 18.25 58.2 21.75 L58.3 22.25 Q60.5 27.25 64 29.6 L64 64 38.1 64 38.7 63.05 38.8 62.3 38.35 61.7 Q34.25 59.15 27.75 59.95 L27.25 60.15 Q25.2 61.75 25.1 64 L0 64 0 29.55 1.45 30.4 2.2 30.45 2.8 29.95 Q5.05 25.65 3.85 19.25 L3.6 18.75 Q2 16.95 0 16.9 L0 0 25.1 0 25.25 1.7 Q26.15 5.15 29.65 5.7 L30.15 5.65 Q35.6 3.6 38.1 0 L64 0 64 16.9 M45.3 17.95 L45.1 17.45 Q43.05 14.55 39.65 15.2 L39.6 15.2 Q36.2 15.9 35.5 19.4 L35.5 19.9 Q37.5 26.1 41.65 28.75 L42.4 28.9 43.05 28.45 Q45.75 24.4 45.3 17.95 M46.65 5.55 L46.2 5.95 Q44.3 8.9 46.15 11.8 L46.2 11.8 Q48.15 14.75 51.65 14.15 L52.1 13.95 Q57.1 9.7 58.05 4.9 L57.9 4.15 Q57.65 3.8 57.25 3.75 52.5 2.7 46.65 5.55 M13.9 7.75 L14.1 7.3 Q14.55 3.8 11.5 1.95 L11.45 1.95 Q8.45 0.25 5.55 2.4 L5.25 2.8 Q2.65 8.8 4.05 13.5 L4.5 14.1 5.25 14.2 Q10 12.95 13.9 7.75 M32.05 27.45 L31.55 27.4 Q28.05 27.95 27.2 31.35 L27.2 31.4 Q26.45 34.8 29.3 36.95 L29.8 37.15 Q36.25 37.95 40.35 35.2 L40.8 34.6 40.65 33.85 Q38.15 29.7 32.05 27.45 M43.65 43.5 L43.15 43.5 Q36.9 45.45 34.25 49.6 34.05 49.95 34.15 50.35 34.2 50.75 34.55 51 38.5 53.8 45.1 53.3 L45.6 53.15 Q48.5 51.1 47.9 47.7 L47.9 47.65 Q47.15 44.2 43.65 43.5 M60.2 60.25 L60.7 60.1 Q63.55 58.05 62.9 54.6 62.15 51.15 58.65 50.5 L58.15 50.5 Q51.9 52.55 49.3 56.75 49.1 57.05 49.2 57.45 49.25 57.85 49.6 58.1 53.65 60.85 60.2 60.25 M47.55 40.5 L47.55 40.55 Q48.8 43.8 52.4 43.9 L52.9 43.8 Q58.65 40.75 60.55 36.2 L60.55 35.45 60 34.9 Q55.6 32.85 49.25 34.5 49 34.55 48.8 34.75 46.3 37.25 47.55 40.5 M22.1 45.95 L21.7 46.25 Q17.6 51.35 17.75 56.3 17.75 56.7 18.05 57 L18.75 57.25 Q23.6 57.3 28.75 53.3 L29.1 52.9 Q30.35 49.55 27.95 47.05 L27.9 47.05 Q25.45 44.65 22.1 45.95 M2.15 55.05 L1.85 55.5 Q0.75 58.85 3.35 61.25 6 63.55 9.25 62 L9.65 61.7 Q13.35 56.35 12.95 51.45 L12.6 50.75 11.9 50.5 Q7.05 50.75 2.15 55.05 M14.85 41.2 L15.35 41.15 Q18.7 40 19 36.5 L19 36.45 Q19.2 32.95 16.1 31.35 L15.55 31.2 Q9 31.5 5.35 34.8 5.05 35.05 5 35.5 4.95 35.9 5.25 36.2 8.35 39.95 14.85 41.2 M16.65 22.9 L16.95 23.35 Q19.5 25.7 22.75 24.45 25.95 23 25.95 19.5 L25.85 19 Q22.6 13.3 18 11.6 17.6 11.4 17.25 11.6 L16.75 12.15 Q14.9 16.6 16.65 22.9"/>
    <path stroke="none" fill="#FFFFFF" d="M16.65 22.9 Q14.9 16.6 16.75 12.15 L17.25 11.6 Q17.6 11.4 18 11.6 22.6 13.3 25.85 19 L25.95 19.5 Q25.95 23 22.75 24.45 19.5 25.7 16.95 23.35 L16.65 22.9 M46.65 5.55 Q52.5 2.7 57.25 3.75 57.65 3.8 57.9 4.15 L58.05 4.9 Q57.1 9.7 52.1 13.95 L51.65 14.15 Q48.15 14.75 46.2 11.8 L46.15 11.8 Q44.3 8.9 46.2 5.95 L46.65 5.55 M45.3 17.95 Q45.75 24.4 43.05 28.45 L42.4 28.9 41.65 28.75 Q37.5 26.1 35.5 19.9 L35.5 19.4 Q36.2 15.9 39.6 15.2 L39.65 15.2 Q43.05 14.55 45.1 17.45 L45.3 17.95 M64 29.6 Q60.5 27.25 58.3 22.25 L58.2 21.75 Q58.55 18.25 61.9 17.15 L64 16.9 64 29.6 M38.1 0 Q35.6 3.6 30.15 5.65 L29.65 5.7 Q26.15 5.15 25.25 1.7 L25.1 0 38.1 0 M0 16.9 Q2 16.95 3.6 18.75 L3.85 19.25 Q5.05 25.65 2.8 29.95 L2.2 30.45 1.45 30.4 0 29.55 0 16.9 M25.1 64 Q25.2 61.75 27.25 60.15 L27.75 59.95 Q34.25 59.15 38.35 61.7 L38.8 62.3 38.7 63.05 38.1 64 25.1 64 M47.55 40.5 Q46.3 37.25 48.8 34.75 49 34.55 49.25 34.5 55.6 32.85 60 34.9 L60.55 35.45 60.55 36.2 Q58.65 40.75 52.9 43.8 L52.4 43.9 Q48.8 43.8 47.55 40.55 L47.55 40.5 M60.2 60.25 Q53.65 60.85 49.6 58.1 49.25 57.85 49.2 57.45 49.1 57.05 49.3 56.75 51.9 52.55 58.15 50.5 L58.65 50.5 Q62.15 51.15 62.9 54.6 63.55 58.05 60.7 60.1 L60.2 60.25 M43.65 43.5 Q47.15 44.2 47.9 47.65 L47.9 47.7 Q48.5 51.1 45.6 53.15 L45.1 53.3 Q38.5 53.8 34.55 51 34.2 50.75 34.15 50.35 34.05 49.95 34.25 49.6 36.9 45.45 43.15 43.5 L43.65 43.5 M32.05 27.45 Q38.15 29.7 40.65 33.85 L40.8 34.6 40.35 35.2 Q36.25 37.95 29.8 37.15 L29.3 36.95 Q26.45 34.8 27.2 31.4 L27.2 31.35 Q28.05 27.95 31.55 27.4 L32.05 27.45 M13.9 7.75 Q10 12.95 5.25 14.2 L4.5 14.1 4.05 13.5 Q2.65 8.8 5.25 2.8 L5.55 2.4 Q8.45 0.25 11.45 1.95 L11.5 1.95 Q14.55 3.8 14.1 7.3 L13.9 7.75 M14.85 41.2 Q8.35 39.95 5.25 36.2 4.95 35.9 5 35.5 5.05 35.05 5.35 34.8 9 31.5 15.55 31.2 L16.1 31.35 Q19.2 32.95 19 36.45 L19 36.5 Q18.7 40 15.35 41.15 L14.85 41.2 M2.15 55.05 Q7.05 50.75 11.9 50.5 L12.6 50.75 12.95 51.45 Q13.35 56.35 9.65 61.7 L9.25 62 Q6 63.55 3.35 61.25 0.75 58.85 1.85 55.5 L2.15 55.05 M22.1 45.95 Q25.45 44.65 27.9 47.05 L27.95 47.05 Q30.35 49.55 29.1 52.9 L28.75 53.3 Q23.6 57.3 18.75 57.25 L18.05 57 Q17.75 56.7 17.75 56.3 17.6 51.35 21.7 46.25 L22.1 45.95"/>
  </g>
</svg>