<svg width="64" height="64" xmlns="http://www.w3.org/2000/svg" xmlns:xlink="http://www.w3.org/1999/xlink">
  <defs/>
  <g>
    <path stroke="none" fill="#000000" d="M44 56 Q44 54.35 42.8 53.15 41.65 52 40 52 38.35 52 37.15 53.15 36 54.35 36 56 36 57.65 37.15 58.8 38.35 60 40 60 41.65 60 42.8 58.8 44 57.65 44 56 M44 40 Q44 38.35 42.8 37.15 41.65 36 40 36 38.35 36 37.15 37.15 36 38.35 36 40 36 41.65 37.15 42.8 38.35 44 40 44 41.65 44 42.8 42.8 44 41.65 44 40 M60 56 Q60 54.35 58.8 53.15 57.65 52 56 52 54.35 52 53.15 53.15 52 54.35 52 56 52 57.65 53.15 58.8 54.35 60 56 60 57.65 60 58.8 58.8 60 57.65 60 56 M60 40 Q60 38.35 58.8 37.15 57.65 36 56 36 54.35 36 53.15 37.15 52 38.35 52 40 52 41.65 53.15 42.8 54.35 44 56 44 57.65 44 58.8 42.8 60 41.65 60 40 M60 24 Q60 22.35 58.8 21.15 57.65 20 56 20 54.35 20 53.15 21.15 52 22.35 52 24 52 25.65 53.15 26.8 54.35 28 56 28 57.65 28 58.8 26.8 60 25.65 60 24 M44 24 Q44 22.35 42.8 21.15 41.65 20 40 20 38.35 20 37.15 21.15 36 22.35 36 24 36 25.65 37.15 26.8 38.35 28 40 28 41.65 28 42.8 26.8 44 25.65 44 24 M44 8 Q44 6.35 42.8 5.15 41.65 4 40 4 38.35 4 37.15 5.15 36 6.35 36 8 36 9.65 37.15 10.8 38.35 12 40 12 41.65 12 42.8 10.8 44 9.65 44 8 M60 8 Q60 6.35 58.8 5.15 57.65 4 56 4 54.35 4 53.15 5.15 52 6.35 52 8 52 9.65 53.15 10.8 54.35 12 56 12 57.65 12 58.8 10.8 60 9.65 60 8 M64 64 L0 64 0 0 64 0 64 64 M12 56 Q12 54.35 10.8 53.15 9.65 52 8 52 6.35 52 5.15 53.15 4 54.35 4 56 4 57.65 5.15 58.8 6.35 60 8 60 9.65 60 10.8 58.8 12 57.65 12 56 M12 40 Q12 38.35 10.8 37.15 9.65 36 8 36 6.35 36 5.15 37.15 4 38.35 4 40 4 41.65 5.15 42.8 6.35 44 8 44 9.65 44 10.8 42.8 12 41.65 12 40 M28 56 Q28 54.35 26.8 53.15 25.65 52 24 52 22.35 52 21.15 53.15 20 54.35 20 56 20 57.65 21.15 58.8 22.35 60 24 60 25.65 60 26.8 58.8 28 57.65 28 56 M28 40 Q28 38.35 26.8 37.15 25.65 36 24 36 22.35 36 21.15 37.15 20 38.35 20 40 20 41.65 21.15 42.8 22.35 44 24 44 25.65 44 26.8 42.8 28 41.65 28 40 M28 24 Q28 22.35 26.8 21.15 25.65 20 24 20 22.35 20 21.15 21.15 20 22.35 20 24 20 25.65 21.15 26.8 22.35 28 24 28 25.65 28 26.8 26.8 28 25.65 28 24 M12 24 Q12 22.35 10.8 21.15 9.65 20 8 20 6.35 20 5.15 21.15 4 22.35 4 24 4 25.65 5.15 26.8 6.35 28 8 28 9.65 28 10.8 26.8 12 25.65 12 24 M12 8 Q12 6.35 10.8 5.15 9.65 4 8 4 6.35 4 5.15 5.15 4 6.35 4 8 4 9.65 5.15 10.8 6.35 12 8 12 9.65 12 10.8 10.8 12 9.65 12 8 M28 8 Q28 6.35 26.8 5.15 25.65 4 24 4 22.35 4 21.15 5.15 20 6.35 20 8 20 9.65 21.15 10.8 22.35 12 24 12 25.65 12 26.8 10.8 28 9.65 28 8"/>
    <path stroke="none" fill="#FFFFFF" d="M28 8 Q28 9.65 26.8 10.8 25.65 12 24 12 22.35 12 21.15 10.8 20 9.65 20 8 20 6.35 21.15 5.15 22.35 4 24 4 25.65 4 26.8 5.15 28 6.35 28 8 M60 8 Q60 9.65 58.8 10.8 57.65 12 56 12 54.35 12 53.15 10.8 52 9.65 52 8 52 6.35 53.15 5.15 54.35 4 56 4 57.65 4 58.8 5.15 60 6.35 60 8 M44 8 Q44 9.65 42.8 10.8 41.65 12 40 12 38.35 12 37.15 10.8 36 9.65 36 8 36 6.35 37.15 5.15 38.35 4 40 4 41.65 4 42.8 5.15 44 6.35 44 8 M44 24 Q44 25.65 42.8 26.8 41.65 28 40 28 38.35 28 37.15 26.8 36 25.65 36 24 36 22.35 37.15 21.15 38.35 20 40 20 41.65 20 42.8 21.15 44 22.35 44 24 M60 24 Q60 25.65 58.8 26.8 57.65 28 56 28 54.35 28 53.15 26.8 52 25.65 52 24 52 22.35 53.15 21.15 54.35 20 56 20 57.65 20 58.8 21.15 60 22.35 60 24 M60 40 Q60 41.65 58.8 42.8 57.65 44 56 44 54.35 44 53.15 42.8 52 41.65 52 40 52 38.35 53.15 37.15 54.35 36 56 36 57.65 36 58.8 37.15 60 38.35 60 40 M60 56 Q60 57.65 58.8 58.8 57.65 60 56 60 54.35 60 53.15 58.8 52 57.65 52 56 52 54.35 53.15 53.15 54.35 52 56 52 57.65 52 58.8 53.15 60 54.35 60 56 M44 40 Q44 41.65 42.8 42.8 41.65 44 40 44 38.35 44 37.15 42.8 36 41.65 36 40 36 38.35 37.15 37.15 38.35 36 40 36 41.65 36 42.8 37.15 44 38.35 44 40 M44 56 Q44 57.65 42.8 58.8 41.65 60 40 60 38.35 60 37.15 58.8 36 57.65 36 56 36 54.35 37.15 53.15 38.35 52 40 52 41.65 52 42.8 53.15 44 54.35 44 56 M12 8 Q12 9.65 10.8 10.8 9.65 12 8 12 6.35 12 5.15 10.8 4 9.65 4 8 4 6.35 5.15 5.15 6.35 4 8 4 9.65 4 10.8 5.15 12 6.35 12 8 M12 24 Q12 25.65 10.8 26.8 9.65 28 8 28 6.35 28 5.15 26.8 4 25.65 4 24 4 22.35 5.15 21.15 6.35 20 8 20 9.65 20 10.8 21.15 12 22.35 12 24 M28 24 Q28 25.65 26.8 26.8 25.65 28 24 28 22.35 28 21.15 26.8 20 25.65 20 24 20 22.35 21.15 21.15 22.35 20 24 20 25.65 20 26.8 21.15 28 22.35 28 24 M28 40 Q28 41.65 26.8 42.8 25.65 44 24 44 22.35 44 21.15 42.8 20 41.65 20 40 20 38.35 21.15 37.15 22.35 36 24 36 25.65 36 26.8 37.15 28 38.35 28 40 M28 56 Q28 57.65 26.8 58.8 25.65 60 24 60 22.35 60 21.15 58.8 20 57.65 20 56 20 54.35 21.15 53.15 22.35 52 24 52 25.65 52 26.8 53.15 28 54.35 28 56 M12 40 Q12 41.65 10.8 42.8 9.65 44 8 44 6.35 44 5.15 42.8 4 41.65 4 40 4 38.35 5.15 37.15 6.35 36 8 36 9.65 36 10.8 37.15 12 38.35 12 40 M12 56 Q12 57.65 10.8 58.8 9.65 60 8 60 6.35 60 5.15 58.8 4 57.65 4 56 4 54.35 5.15 53.15 6.35 52 8 52 9.65 52 10.8 53.15 12 54.35 12 56"/>
  </g>
</svg>