<svg width="64" height="64" xmlns="http://www.w3.org/2000/svg" xmlns:xlink="http://www.w3.org/1999/xlink">
  <defs/>
  <g>
    <path stroke="none" fill="#FFFFFF" d="M37.1 0 L51.5 0 57.95 6.5 44.3 20.15 30.6 6.5 37.1 0 M64 7.6 L64 20.75 57.45 14.15 64 7.6 M64 41 L64 57.15 58.7 62.45 45.35 49.05 58.7 35.7 64 41 M51.45 64 L37.1 64 44.3 56.8 51.45 64 M28.6 64 L16.3 64 8.1 55.8 22.45 41.45 36.75 55.8 28.6 64 M0 57.15 L0 40.95 8.1 49.05 0 57.15 M0 20.75 L0 7.6 2.9 4.65 12.45 14.15 2.9 23.7 0 20.75 M16.3 0 L28.55 0 22.45 6.15 16.3 0 M45.3 25.6 L52.3 18.6 59.3 25.6 52.3 32.6 45.3 25.6 M28.6 38.1 L38.1 28.55 47.6 38.1 38.1 47.6 28.6 38.1 M37.55 22.1 L24.15 35.45 10.8 22.1 24.15 8.75 37.55 22.1 M0.7 36.15 L10.2 26.65 19.7 36.15 10.2 45.7 0.7 36.15"/>
    <path stroke="none" fill="#000000" d="M0.7 36.15 L10.2 45.7 19.7 36.15 10.2 26.65 0.7 36.15 M37.1 0 L30.6 6.5 44.3 20.15 57.95 6.5 51.5 0 64 0 64 7.6 57.45 14.15 64 20.75 64 41 58.7 35.7 45.35 49.05 58.7 62.45 64 57.15 64 64 51.45 64 44.3 56.8 37.1 64 28.6 64 36.75 55.8 22.45 41.45 8.1 55.8 16.3 64 0 64 0 57.15 8.1 49.05 0 40.95 0 20.75 2.9 23.7 12.45 14.15 2.9 4.65 0 7.6 0 0 16.3 0 22.45 6.15 28.55 0 37.1 0 M37.55 22.1 L24.15 8.75 10.8 22.1 24.15 35.45 37.55 22.1 M28.6 38.1 L38.1 47.6 47.6 38.1 38.1 28.55 28.6 38.1 M45.3 25.6 L52.3 32.6 59.3 25.6 52.3 18.6 45.3 25.6"/>
  </g>
</svg>