<svg width="64" height="64" xmlns="http://www.w3.org/2000/svg" xmlns:xlink="http://www.w3.org/1999/xlink">
  <defs/>
  <g>
    <path stroke="none" fill="#FFFFFF" d="M0 8 L0 0 8 0 24 0 40 0 56 0 64 0 64 8 56 0 48 8 40 0 32 8 24 0 16 8 8 0 0 8 M64 16 L64 24 56 16 48 24 40 16 32 24 24 16 16 24 8 16 0 24 0 16 8 8 16 16 24 8 32 16 40 8 48 16 56 8 64 16 M64 32 L64 40 56 32 48 40 40 32 32 40 24 32 16 40 8 32 0 40 0 32 8 24 16 32 24 24 32 32 40 24 48 32 56 24 64 32 M64 48 L64 56 56 48 48 56 40 48 32 56 24 48 16 56 8 48 0 56 0 48 8 40 16 48 24 40 32 48 40 40 48 48 56 40 64 48 M64 64 L48 64 32 64 16 64 0 64 8 56 16 64 24 56 32 64 40 56 48 64 56 56 64 64"/>
    <path stroke="none" fill="#000000" d="M64 64 L56 56 48 64 40 56 32 64 24 56 16 64 8 56 0 64 0 56 8 48 16 56 24 48 32 56 40 48 48 56 56 48 64 56 64 64 M64 8 L64 16 56 8 48 16 40 8 32 16 24 8 16 16 8 8 0 16 0 8 8 0 16 8 24 0 32 8 40 0 48 8 56 0 64 8 M64 24 L64 32 56 24 48 32 40 24 32 32 24 24 16 32 8 24 0 32 0 24 8 16 16 24 24 16 32 24 40 16 48 24 56 16 64 24 M64 40 L64 48 56 40 48 48 40 40 32 48 24 40 16 48 8 40 0 48 0 40 8 32 16 40 24 32 32 40 40 32 48 40 56 32 64 40"/>
  </g>
</svg>