<svg width="64" height="64" xmlns="http://www.w3.org/2000/svg" xmlns:xlink="http://www.w3.org/1999/xlink">
  <defs/>
  <g>
    <path stroke="none" fill="#000000" d="M48.05 0 L32.05 15.95 48 31.95 64 16 64 47.95 64 64 0 64 0 0 16.1 0 48.05 0 64 0 64 16 48.05 0 M16.1 0 L0.1 15.95 16.05 31.95 32.05 16 16.1 0 M64 47.95 L48.05 31.95 32.05 47.9 48 63.9 64 47.95 M0.1 47.9 L16.05 63.9 32.05 47.95 16.1 31.95 0.1 47.9"/>
    <path stroke="none" fill="#FFFFFF" d="M0.1 47.9 L16.1 31.95 32.05 47.95 16.05 63.9 0.1 47.9 M64 16 L48 31.95 32.05 15.95 48.05 0 64 16 M16.1 0 L32.05 16 16.05 31.95 0.1 15.95 16.1 0 M64 47.95 L48 63.9 32.05 47.9 48.05 31.95 64 47.95"/>
  </g>
</svg>