<svg width="64" height="64" xmlns="http://www.w3.org/2000/svg" xmlns:xlink="http://www.w3.org/1999/xlink">
  <defs/>
  <g>
    <path stroke="none" fill="#FFFFFF" d="M56.85 0.45 L62.7 0.35 63.3 30.1 57.45 30.2 56.85 0.45 M55.55 64 L49.65 64 50.15 47.25 56 47.45 55.55 64 M39.75 64 L33.9 64 34.35 47.9 40.25 48.1 39.75 64 M23.55 64 L17.65 64 17.3 51 23.15 50.85 23.55 64 M7.25 64 L1.4 64 1 50.35 6.85 50.15 7.25 64 M1.4 0 L7.25 0 7.75 15.9 1.85 16.1 1.4 0 M17.65 0 L23.55 0 24 16.55 18.15 16.75 17.65 0 M33.9 0 L39.75 0 39.35 13.85 33.5 13.65 33.9 0 M49.65 0 L55.55 0 55.15 13.15 49.3 13 49.65 0 M41.05 32.85 L47.25 32.6 48.4 62.4 42.2 62.6 41.05 32.85 M56.85 32.45 L62.7 32.35 63.3 62.1 57.45 62.2 56.85 32.45 M50.15 15.25 L56 15.45 55.15 45.15 49.3 45 50.15 15.25 M34.35 15.9 L40.25 16.1 39.35 45.85 33.5 45.65 34.35 15.9 M41.05 0.85 L47.25 0.6 48.4 30.4 42.2 30.6 41.05 0.85 M1.85 48.1 L1 18.35 6.85 18.15 7.75 47.9 1.85 48.1 M25.6 31.55 L26.2 1.8 32.05 1.9 31.45 31.65 25.6 31.55 M18.15 48.75 L17.3 19 23.15 18.85 24 48.55 18.15 48.75 M9.05 31.15 L10.2 1.4 16.4 1.6 15.25 31.4 9.05 31.15 M25.6 63.55 L26.2 33.8 32.05 33.9 31.45 63.65 25.6 63.55 M9.05 63.15 L10.2 33.4 16.4 33.6 15.25 63.4 9.05 63.15"/>
    <path stroke="none" fill="#000000" d="M9.05 63.15 L15.25 63.4 16.4 33.6 10.2 33.4 9.05 63.15 M56.85 0.45 L57.45 30.2 63.3 30.1 62.7 0.35 56.85 0.45 M55.55 0 L64 0 64 64 55.55 64 56 47.45 50.15 47.25 49.65 64 39.75 64 40.25 48.1 34.35 47.9 33.9 64 23.55 64 23.15 50.85 17.3 51 17.65 64 7.25 64 6.85 50.15 1 50.35 1.4 64 0 64 0 0 1.4 0 1.85 16.1 7.75 15.9 7.25 0 17.65 0 18.15 16.75 24 16.55 23.55 0 33.9 0 33.5 13.65 39.35 13.85 39.75 0 49.65 0 49.3 13 55.15 13.15 55.55 0 M41.05 0.85 L42.2 30.6 48.4 30.4 47.25 0.6 41.05 0.85 M34.35 15.9 L33.5 45.65 39.35 45.85 40.25 16.1 34.35 15.9 M50.15 15.25 L49.3 45 55.15 45.15 56 15.45 50.15 15.25 M56.85 32.45 L57.45 62.2 63.3 62.1 62.7 32.35 56.85 32.45 M41.05 32.85 L42.2 62.6 48.4 62.4 47.25 32.6 41.05 32.85 M25.6 63.55 L31.45 63.65 32.05 33.9 26.2 33.8 25.6 63.55 M9.05 31.15 L15.25 31.4 16.4 1.6 10.2 1.4 9.05 31.15 M18.15 48.75 L24 48.55 23.15 18.85 17.3 19 18.15 48.75 M25.6 31.55 L31.45 31.65 32.05 1.9 26.2 1.8 25.6 31.55 M1.85 48.1 L7.75 47.9 6.85 18.15 1 18.35 1.85 48.1"/>
  </g>
</svg>