<svg width="64" height="64" xmlns="http://www.w3.org/2000/svg" xmlns:xlink="http://www.w3.org/1999/xlink">
  <defs/>
  <g>
    <path stroke="none" fill="#FFFFFF" d="M56.4 0 L64 0 64 1.7 61.9 1.7 59.8 1.7 55.6 8 59.8 14.3 64 14.3 64 17.7 61.9 17.7 59.8 17.7 55.6 24 59.8 30.3 64 30.3 64 33.7 61.9 33.7 59.8 33.7 55.6 40 59.8 46.3 64 46.3 64 49.7 59.8 49.7 57.7 52.85 55.6 56 59.8 62.3 64 62.3 64 64 56.4 64 52.2 57.7 48.3 57.7 44.35 57.7 43.95 57.7 Q43.75 57.75 43.65 57.9 L41.6 60.95 39.6 64 24.4 64 20.2 57.7 16.15 57.7 12.1 57.7 Q11.8 57.6 11.6 57.95 L7.6 64 0 64 0 62.3 4.2 62.3 8.4 56 4.35 49.9 4 49.7 3.6 49.7 0 49.7 0 46.3 4.2 46.3 8.4 40 6.3 36.85 4.15 33.7 0 33.7 0 30.3 2 30.3 4 30.3 4.25 30.15 4.45 29.95 8.4 24 4.2 17.7 0 17.7 0 14.3 3.6 14.3 3.9 14.3 4.2 14.25 4.5 13.85 4.8 13.4 8.4 8 4.2 1.7 2.1 1.7 0 1.7 0 0 7.6 0 11.65 6.1 11.95 6.3 12.35 6.3 16.3 6.3 20.2 6.3 24.4 0 39.6 0 43.05 5.2 43.4 5.7 43.8 6.25 44.05 6.3 44.35 6.3 51.75 6.3 52.1 6.25 52.35 6.1 56.4 0 M11.6 41.95 L7.6 48 11.8 54.3 20.2 54.25 24.4 48 20.2 41.7 16.1 41.7 12 41.7 11.75 41.75 11.6 41.95 M11.8 25.7 L7.6 32 11.8 38.3 20.2 38.25 24.4 32 20.4 25.95 20.25 25.75 20 25.7 15.9 25.7 11.8 25.7 M11.6 9.95 L7.6 16 11.6 22 11.75 22.2 12 22.3 16.1 22.3 20.2 22.3 24.4 16 20.4 10 20.25 9.75 20 9.7 12 9.7 11.75 9.75 11.6 9.95 M27.8 49.7 L23.6 56 27.8 62.25 36.2 62.25 40.4 56 36.2 49.7 27.8 49.7 M27.8 33.7 L23.6 40 27.3 45.55 27.55 45.95 27.85 46.25 31.75 46.3 35.6 46.3 36.05 46.3 36.35 46.05 40.4 40 36.35 33.9 36.1 33.7 35.75 33.7 31.75 33.7 27.8 33.7 M43.8 41.7 L39.6 48 43.8 54.25 47.9 54.3 52 54.3 52.25 54.2 52.45 53.95 56.4 48 52.2 41.7 43.8 41.7 M43.6 25.95 L39.6 32 43.6 38 43.75 38.2 44 38.3 48.1 38.3 52.2 38.3 56.4 32 52.2 25.7 48.1 25.7 44 25.7 43.75 25.75 43.6 25.95 M23.6 24 L27.6 30 27.75 30.2 28 30.3 36 30.3 36.25 30.2 36.45 29.95 40.4 24 36.4 17.95 36.25 17.75 36 17.7 27.8 17.7 25.7 20.85 23.6 24 M43.65 9.9 L39.6 16 43.8 22.3 51.6 22.3 52 22.3 52.35 22.1 56.4 16 52.2 9.7 48.15 9.7 44.1 9.7 Q43.8 9.65 43.65 9.9 M27.65 1.9 L23.6 8 27.65 14.05 27.95 14.3 28.4 14.3 32.3 14.3 36.2 14.3 40.4 8 36.2 1.7 32.3 1.7 28.35 1.7 27.95 1.7 Q27.75 1.7 27.65 1.9"/>
    <path stroke="none" fill="#000000" d="M27.65 1.9 Q27.75 1.7 27.95 1.7 L28.35 1.7 32.3 1.7 36.2 1.7 40.4 8 36.2 14.3 32.3 14.3 28.4 14.3 27.95 14.3 27.65 14.05 23.6 8 27.65 1.9 M64 1.7 L64 14.3 59.8 14.3 55.6 8 59.8 1.7 61.9 1.7 64 1.7 M64 17.7 L64 30.3 59.8 30.3 55.6 24 59.8 17.7 61.9 17.7 64 17.7 M64 33.7 L64 46.3 59.8 46.3 55.6 40 59.8 33.7 61.9 33.7 64 33.7 M64 49.7 L64 62.3 59.8 62.3 55.6 56 57.7 52.85 59.8 49.7 64 49.7 M56.4 64 L39.6 64 41.6 60.95 43.65 57.9 Q43.75 57.75 43.95 57.7 L44.35 57.7 48.3 57.7 52.2 57.7 56.4 64 M24.4 64 L7.6 64 11.6 57.95 Q11.8 57.6 12.1 57.7 L16.15 57.7 20.2 57.7 24.4 64 M0 62.3 L0 49.7 3.6 49.7 4 49.7 4.35 49.9 8.4 56 4.2 62.3 0 62.3 M0 46.3 L0 33.7 4.15 33.7 6.3 36.85 8.4 40 4.2 46.3 0 46.3 M0 30.3 L0 17.7 4.2 17.7 8.4 24 4.45 29.95 4.25 30.15 4 30.3 2 30.3 0 30.3 M0 14.3 L0 1.7 2.1 1.7 4.2 1.7 8.4 8 4.8 13.4 4.5 13.85 4.2 14.25 3.9 14.3 3.6 14.3 0 14.3 M7.6 0 L24.4 0 20.2 6.3 16.3 6.3 12.35 6.3 11.95 6.3 11.65 6.1 7.6 0 M39.6 0 L56.4 0 52.35 6.1 52.1 6.25 51.75 6.3 44.35 6.3 44.05 6.3 43.8 6.25 43.4 5.7 43.05 5.2 39.6 0 M43.65 9.9 Q43.8 9.65 44.1 9.7 L48.15 9.7 52.2 9.7 56.4 16 52.35 22.1 52 22.3 51.6 22.3 43.8 22.3 39.6 16 43.65 9.9 M23.6 24 L25.7 20.85 27.8 17.7 36 17.7 36.25 17.75 36.4 17.95 40.4 24 36.45 29.95 36.25 30.2 36 30.3 28 30.3 27.75 30.2 27.6 30 23.6 24 M43.6 25.95 L43.75 25.75 44 25.7 48.1 25.7 52.2 25.7 56.4 32 52.2 38.3 48.1 38.3 44 38.3 43.75 38.2 43.6 38 39.6 32 43.6 25.95 M43.8 41.7 L52.2 41.7 56.4 48 52.45 53.95 52.25 54.2 52 54.3 47.9 54.3 43.8 54.25 39.6 48 43.8 41.7 M27.8 33.7 L31.75 33.7 35.75 33.7 36.1 33.7 36.35 33.9 40.4 40 36.35 46.05 36.05 46.3 35.6 46.3 31.75 46.3 27.85 46.25 27.55 45.95 27.3 45.55 23.6 40 27.8 33.7 M27.8 49.7 L36.2 49.7 40.4 56 36.2 62.25 27.8 62.25 23.6 56 27.8 49.7 M11.6 9.95 L11.75 9.75 12 9.7 20 9.7 20.25 9.75 20.4 10 24.4 16 20.2 22.3 16.1 22.3 12 22.3 11.75 22.2 11.6 22 7.6 16 11.6 9.95 M11.8 25.7 L15.9 25.7 20 25.7 20.25 25.75 20.4 25.95 24.4 32 20.2 38.25 11.8 38.3 7.6 32 11.8 25.7 M11.6 41.95 L11.75 41.75 12 41.7 16.1 41.7 20.2 41.7 24.4 48 20.2 54.25 11.8 54.3 7.6 48 11.6 41.95"/>
  </g>
</svg>