<svg width="64" height="64" xmlns="http://www.w3.org/2000/svg" xmlns:xlink="http://www.w3.org/1999/xlink">
  <defs/>
  <g>
    <path stroke="none" fill="#FFFFFF" d="M56.9 0 L64 0 64 7.1 Q61.05 7.1 58.95 5.05 56.9 2.95 56.9 0 M64 14.25 L64 28.4 Q61.05 28.4 58.95 26.35 56.9 24.25 56.9 21.35 56.9 18.4 58.95 16.3 61.05 14.25 64 14.25 M64 35.6 L64 49.8 Q61.05 49.8 58.95 47.7 56.9 45.6 56.9 42.65 56.9 39.75 58.95 37.65 61.05 35.6 64 35.6 M64 56.95 L64 64 56.9 64 Q56.9 61.05 58.95 59 61.05 56.95 64 56.95 M49.75 64 L35.55 64 Q35.55 61.05 37.6 59 39.7 56.9 42.65 56.9 45.6 56.9 47.65 59 49.75 61.05 49.75 64 M28.4 64 L14.2 64 Q14.2 61.05 16.25 59 18.35 56.95 21.3 56.95 24.25 56.95 26.3 59 28.4 61.05 28.4 64 M7.05 64 L0 64 0 56.95 Q2.95 56.95 5 59 7.05 61.05 7.05 64 M0 49.8 L0 35.6 Q2.95 35.6 5 37.65 7.05 39.75 7.05 42.65 7.05 45.6 5 47.7 2.95 49.8 0 49.8 M0 28.4 L0 14.25 Q2.95 14.25 5 16.3 7.05 18.4 7.05 21.35 7.05 24.25 5 26.35 2.95 28.4 0 28.4 M0 7.1 L0 0 7.05 0 Q7.05 2.95 5 5.05 2.95 7.1 0 7.1 M14.2 0 L28.4 0 Q28.4 2.95 26.3 5.05 24.25 7.1 21.3 7.1 18.35 7.1 16.25 5.05 14.2 2.95 14.2 0 M35.55 0 L49.75 0 Q49.75 2.95 47.65 5.05 45.6 7.1 42.65 7.1 39.7 7.1 37.6 5.05 35.55 3 35.55 0 M35.55 21.35 Q35.55 18.4 37.6 16.3 39.7 14.2 42.65 14.2 45.6 14.2 47.65 16.3 49.75 18.4 49.75 21.35 49.75 24.25 47.65 26.35 45.6 28.45 42.65 28.45 39.7 28.45 37.6 26.35 35.55 24.3 35.55 21.35 M35.55 42.65 Q35.55 39.75 37.6 37.65 39.7 35.55 42.65 35.55 45.6 35.55 47.65 37.65 49.75 39.75 49.75 42.65 49.75 45.6 47.65 47.7 45.6 49.8 42.65 49.8 39.7 49.8 37.6 47.7 35.55 45.65 35.55 42.65 M14.2 21.35 Q14.2 18.4 16.25 16.3 18.35 14.25 21.3 14.25 24.25 14.25 26.3 16.3 28.4 18.4 28.4 21.35 28.4 24.25 26.3 26.35 24.25 28.4 21.3 28.4 18.35 28.4 16.25 26.35 14.2 24.25 14.2 21.35 M14.2 42.65 Q14.2 39.75 16.25 37.65 18.35 35.6 21.3 35.6 24.25 35.6 26.3 37.65 28.4 39.75 28.4 42.65 28.4 45.6 26.3 47.7 24.25 49.8 21.3 49.8 18.35 49.8 16.25 47.7 14.2 45.6 14.2 42.65"/>
    <path stroke="none" fill="#000000" d="M14.2 42.65 Q14.2 45.6 16.25 47.7 18.35 49.8 21.3 49.8 24.25 49.8 26.3 47.7 28.4 45.6 28.4 42.65 28.4 39.75 26.3 37.65 24.25 35.6 21.3 35.6 18.35 35.6 16.25 37.65 14.2 39.75 14.2 42.65 M64 7.1 L64 14.25 Q61.05 14.25 58.95 16.3 56.9 18.4 56.9 21.35 56.9 24.25 58.95 26.35 61.05 28.4 64 28.4 L64 35.6 Q61.05 35.6 58.95 37.65 56.9 39.75 56.9 42.65 56.9 45.6 58.95 47.7 61.05 49.8 64 49.8 L64 56.95 Q61.05 56.95 58.95 59 56.9 61.05 56.9 64 L49.75 64 Q49.75 61.05 47.65 59 45.6 56.9 42.65 56.9 39.7 56.9 37.6 59 35.55 61.05 35.55 64 L28.4 64 Q28.4 61.05 26.3 59 24.25 56.95 21.3 56.95 18.35 56.95 16.25 59 14.2 61.05 14.2 64 L7.05 64 Q7.05 61.05 5 59 2.95 56.95 0 56.95 L0 49.8 Q2.95 49.8 5 47.7 7.05 45.6 7.05 42.65 7.05 39.75 5 37.65 2.95 35.6 0 35.6 L0 28.4 Q2.95 28.4 5 26.35 7.05 24.25 7.05 21.35 7.05 18.4 5 16.3 2.95 14.25 0 14.25 L0 7.1 Q2.95 7.1 5 5.05 7.05 2.95 7.05 0 L14.2 0 Q14.2 2.95 16.25 5.05 18.35 7.1 21.3 7.1 24.25 7.1 26.3 5.05 28.4 2.95 28.4 0 L35.55 0 Q35.55 3 37.6 5.05 39.7 7.1 42.65 7.1 45.6 7.1 47.65 5.05 49.75 2.95 49.75 0 L56.9 0 Q56.9 2.95 58.95 5.05 61.05 7.1 64 7.1 M14.2 21.35 Q14.2 24.25 16.25 26.35 18.35 28.4 21.3 28.4 24.25 28.4 26.3 26.35 28.4 24.25 28.4 21.35 28.4 18.4 26.3 16.3 24.25 14.25 21.3 14.25 18.35 14.25 16.25 16.3 14.2 18.4 14.2 21.35 M35.55 42.65 Q35.55 45.65 37.6 47.7 39.7 49.8 42.65 49.8 45.6 49.8 47.65 47.7 49.75 45.6 49.75 42.65 49.75 39.75 47.65 37.65 45.6 35.55 42.65 35.55 39.7 35.55 37.6 37.65 35.55 39.75 35.55 42.65 M35.55 21.35 Q35.55 24.3 37.6 26.35 39.7 28.45 42.65 28.45 45.6 28.45 47.65 26.35 49.75 24.25 49.75 21.35 49.75 18.4 47.65 16.3 45.6 14.2 42.65 14.2 39.7 14.2 37.6 16.3 35.55 18.4 35.55 21.35"/>
  </g>
</svg>