<svg width="64" height="64" xmlns="http://www.w3.org/2000/svg" xmlns:xlink="http://www.w3.org/1999/xlink">
  <defs/>
  <g>
    <path stroke="none" fill="#000000" d="M64 0 Q59.85 12.35 48 16 35.65 20.15 32 32 27.85 44.35 16 48 3.65 52.15 0 64 L0 32 Q3.65 20.15 16 16 27.85 12.35 32 0 L64 0 M32 64 Q35.65 52.15 48 48 59.85 44.35 64 32 L64 64 32 64"/>
    <path stroke="none" fill="#FFFFFF" d="M32 64 L0 64 Q3.65 52.15 16 48 27.85 44.35 32 32 35.65 20.15 48 16 59.85 12.35 64 0 L64 32 Q59.85 44.35 48 48 35.65 52.15 32 64 M32 0 Q27.85 12.35 16 16 3.65 20.15 0 32 L0 0 32 0"/>
  </g>
</svg>