<svg width="64" height="64" xmlns="http://www.w3.org/2000/svg" xmlns:xlink="http://www.w3.org/1999/xlink">
  <defs/>
  <g>
    <path stroke="none" fill="#FFFFFF" d="M52.7 11.3 L64 16 52.7 20.7 48 32 43.3 20.7 32 16 43.3 11.3 48 0 52.7 11.3 M16 0 L20.7 11.3 32 16 20.7 20.7 16 32 20.7 43.3 32 48 43.3 43.3 48 32 52.7 43.3 64 48 52.7 52.7 48 64 43.3 52.7 32 48 20.7 52.7 16 64 11.3 52.7 0 48 11.3 43.3 16 32 11.3 20.7 0 16 11.3 11.3 16 0"/>
    <path stroke="none" fill="#000000" d="M16 0 L48 0 64 0 64 16 52.7 11.3 48 0 43.3 11.3 32 16 43.3 20.7 48 32 52.7 20.7 64 16 64 48 52.7 43.3 48 32 43.3 43.3 32 48 20.7 43.3 16 32 20.7 20.7 32 16 20.7 11.3 16 0 11.3 11.3 0 16 11.3 20.7 16 32 11.3 43.3 0 48 11.3 52.7 16 64 20.7 52.7 32 48 43.3 52.7 48 64 52.7 52.7 64 48 64 64 48 64 16 64 0 64 0 48 0 16 0 0 16 0"/>
  </g>
</svg>