<svg width="64" height="64" xmlns="http://www.w3.org/2000/svg" xmlns:xlink="http://www.w3.org/1999/xlink">
  <defs/>
  <g>
    <path stroke="none" fill="#000000" d="M0 4 L0 0 64 0 64 4 52 4 52 20 44 20 44 4 20 4 20 20 12 20 12 4 0 4 M64 12 L64 36 52 36 52 52 44 52 44 36 20 36 20 52 12 52 12 36 0 36 0 12 4 12 4 28 28 28 28 12 36 12 36 28 60 28 60 12 64 12 M64 44 L64 64 0 64 0 44 4 44 4 60 28 60 28 44 36 44 36 60 60 60 60 44 64 44"/>
    <path stroke="none" fill="#FFFFFF" d="M64 44 L60 44 60 60 36 60 36 44 28 44 28 60 4 60 4 44 0 44 0 36 12 36 12 52 20 52 20 36 44 36 44 52 52 52 52 36 64 36 64 44 M64 4 L64 12 60 12 60 28 36 28 36 12 28 12 28 28 4 28 4 12 0 12 0 4 12 4 12 20 20 20 20 4 44 4 44 20 52 20 52 4 64 4"/>
  </g>
</svg>