<svg width="64" height="64" xmlns="http://www.w3.org/2000/svg" xmlns:xlink="http://www.w3.org/1999/xlink">
  <defs/>
  <g>
    <path stroke="none" fill="#000000" d="M54 0 L64 0 64 5.9 61.05 5.9 54.45 17 60.8 28.25 64 28.25 64 39.85 52.45 40 46 51.45 52.7 62.75 64 62.65 64 64 54.05 64 46 60.4 41 64 28.1 64 28.15 56.7 18.5 51.05 8.75 56.5 8.7 64 0 64 0 62.65 1.85 62.6 8.3 51.1 1.6 39.85 0 39.85 0 28.25 9.7 28.35 16.25 17.25 9.9 6 0 5.9 0 0 8.7 0 8.65 3.7 8.7 3.75 18.25 9.4 28 3.9 28.05 0 41 0 38.6 1.7 39.55 10.75 Q43.7 12.65 47.85 14.5 L55.25 9.15 54.3 0.1 54 0 M27.85 53.55 L34.6 59.6 43.25 56.8 45.15 47.9 45.15 45.9 38.35 39.85 29.75 42.65 27.85 51.55 27.85 53.55 M31.2 6.95 L19.9 12.3 18.85 24.75 29.15 31.85 40.45 26.55 41.5 14.05 31.2 6.95 M57.85 31.6 L55.1 24.05 47.25 22.65 42.05 28.8 44.8 36.3 52.65 37.75 57.85 31.6 M25.3 31.95 L16.15 28.4 8.5 34.5 9.95 44.25 19.1 47.85 26.8 41.7 25.3 31.95"/>
    <path stroke="none" fill="#FFFFFF" d="M25.3 31.95 L26.8 41.7 19.1 47.85 9.95 44.25 8.5 34.5 16.15 28.4 25.3 31.95 M64 5.9 L64 28.25 60.8 28.25 54.45 17 61.05 5.9 64 5.9 M64 39.85 L64 62.65 52.7 62.75 46 51.45 52.45 40 64 39.85 M54.05 64 L41 64 46 60.4 54.05 64 M28.1 64 L8.7 64 8.75 56.5 18.5 51.05 28.15 56.7 28.1 64 M0 62.65 L0 39.85 1.6 39.85 8.3 51.1 1.85 62.6 0 62.65 M0 28.25 L0 5.9 9.9 6 16.25 17.25 9.7 28.35 0 28.25 M8.7 0 L28.05 0 28 3.9 18.25 9.4 8.7 3.75 8.65 3.7 8.7 0 M41 0 L54 0 54.3 0.1 55.25 9.15 47.85 14.5 Q43.7 12.65 39.55 10.75 L38.6 1.7 41 0 M57.85 31.6 L52.65 37.75 44.8 36.3 42.05 28.8 47.25 22.65 55.1 24.05 57.85 31.6 M31.2 6.95 L41.5 14.05 40.45 26.55 29.15 31.85 18.85 24.75 19.9 12.3 31.2 6.95 M27.85 53.55 L27.85 51.55 29.75 42.65 38.35 39.85 45.15 45.9 45.15 47.9 43.25 56.8 34.6 59.6 27.85 53.55"/>
  </g>
</svg>