<svg width="64" height="64" xmlns="http://www.w3.org/2000/svg" xmlns:xlink="http://www.w3.org/1999/xlink">
  <defs/>
  <g>
    <path stroke="none" fill="#FFFFFF" d="M57.95 0 L64 0 64 5.95 57.95 3.95 57.95 0 M64 13.55 L64 24.05 57.25 26.1 52 18.6 57.45 11.25 64 13.55 M64 26.1 L64 37.95 57.95 35.95 57.95 28.05 64 26.1 M64 45.55 L64 56.05 57.25 58.1 52 50.6 57.45 43.25 64 45.55 M64 58.1 L64 64 57.95 64 57.95 60.05 64 58.1 M55.8 64 L41.75 64 47.25 56.8 55.9 59.9 55.8 64 M38.1 64 L25.95 64 25.95 60.05 33.45 57.6 38.1 64 M23.8 64 L9.75 64 15.25 56.8 23.9 59.9 23.8 64 M6.1 64 L0 64 0 58.1 1.45 57.6 6.1 64 M0 56.05 L0 45.55 2.15 46.25 2 55.45 0 56.05 M0 37.95 L0 26.1 1.45 25.6 6.1 32 1.45 38.4 0 37.95 M0 24.05 L0 13.55 2.15 14.25 2 23.45 0 24.05 M0 5.95 L0 0 6.1 0 1.45 6.4 0 5.95 M9.75 0 L23.8 0 23.65 5.05 14.9 7.65 9.65 0.1 9.75 0 M25.95 0 L38.1 0 33.45 6.4 25.95 3.95 25.95 0 M41.75 0 L55.8 0 55.65 5.05 46.9 7.65 41.65 0.1 41.75 0 M46.15 10.65 L41.2 15.85 34.65 12.8 35.6 5.65 42.75 4.35 46.15 10.65 M52.65 14 Q50.9 13.2 49.15 12.35 L49.65 8.55 53.45 7.85 55.25 11.2 52.65 14 M45.75 23.45 L41.1 28.35 34.9 25.5 35.8 18.7 42.55 17.5 45.75 23.45 M20 18.6 L25.45 11.25 34.15 14.25 34 23.45 25.25 26.1 20 18.6 M55.65 37.05 L46.9 39.65 41.65 32.1 41.75 32 47.25 24.8 55.9 27.9 55.65 37.05 M49.65 40.55 L53.45 39.85 55.25 43.2 52.65 46 Q50.9 45.2 49.15 44.35 L49.65 40.55 M42.75 36.35 L46.15 42.65 41.2 47.85 34.65 44.8 35.6 37.65 42.75 36.35 M25.95 28.05 L33.45 25.6 38.1 32 33.45 38.4 25.95 35.95 25.95 28.05 M34 55.45 L25.25 58.1 20 50.6 25.45 43.25 34.15 46.25 34 55.45 M34.9 57.5 L35.8 50.7 42.55 49.5 45.75 55.45 41.1 60.35 34.9 57.5 M3.6 5.65 L10.75 4.35 14.15 10.65 9.2 15.85 2.65 12.8 3.6 5.65 M3.8 18.7 L10.55 17.5 13.75 23.45 9.1 28.35 2.9 25.5 3.8 18.7 M17.15 12.35 L17.65 8.55 21.45 7.85 23.25 11.2 20.65 14 17.15 12.35 M23.65 37.05 L14.9 39.65 9.65 32.1 9.75 32 15.25 24.8 23.9 27.9 23.65 37.05 M23.25 43.2 L20.65 46 17.15 44.35 17.65 40.55 21.45 39.85 23.25 43.2 M10.75 36.35 L14.15 42.65 9.2 47.85 2.65 44.8 3.6 37.65 10.75 36.35 M10.55 49.5 L13.75 55.45 9.1 60.35 2.9 57.5 3.8 50.7 10.55 49.5"/>
    <path stroke="none" fill="#000000" d="M10.55 49.5 L3.8 50.7 2.9 57.5 9.1 60.35 13.75 55.45 10.55 49.5 M64 5.95 L64 13.55 57.45 11.25 52 18.6 57.25 26.1 64 24.05 64 26.1 57.95 28.05 57.95 35.95 64 37.95 64 45.55 57.45 43.25 52 50.6 57.25 58.1 64 56.05 64 58.1 57.95 60.05 57.95 64 55.8 64 55.9 59.9 47.25 56.8 41.75 64 38.1 64 33.45 57.6 25.95 60.05 25.95 64 23.8 64 23.9 59.9 15.25 56.8 9.75 64 6.1 64 1.45 57.6 0 58.1 0 56.05 2 55.45 2.15 46.25 0 45.55 0 37.95 1.45 38.4 6.1 32 1.45 25.6 0 26.1 0 24.05 2 23.45 2.15 14.25 0 13.55 0 5.95 1.45 6.4 6.1 0 9.75 0 9.65 0.1 14.9 7.65 23.65 5.05 23.8 0 25.95 0 25.95 3.95 33.45 6.4 38.1 0 41.75 0 41.65 0.1 46.9 7.65 55.65 5.05 55.8 0 57.95 0 57.95 3.95 64 5.95 M10.75 36.35 L3.6 37.65 2.65 44.8 9.2 47.85 14.15 42.65 10.75 36.35 M23.25 43.2 L21.45 39.85 17.65 40.55 17.15 44.35 20.65 46 23.25 43.2 M23.65 37.05 L23.9 27.9 15.25 24.8 9.75 32 9.65 32.1 14.9 39.65 23.65 37.05 M17.15 12.35 L20.65 14 23.25 11.2 21.45 7.85 17.65 8.55 17.15 12.35 M3.8 18.7 L2.9 25.5 9.1 28.35 13.75 23.45 10.55 17.5 3.8 18.7 M3.6 5.65 L2.65 12.8 9.2 15.85 14.15 10.65 10.75 4.35 3.6 5.65 M34.9 57.5 L41.1 60.35 45.75 55.45 42.55 49.5 35.8 50.7 34.9 57.5 M34 55.45 L34.15 46.25 25.45 43.25 20 50.6 25.25 58.1 34 55.45 M25.95 28.05 L25.95 35.95 33.45 38.4 38.1 32 33.45 25.6 25.95 28.05 M42.75 36.35 L35.6 37.65 34.65 44.8 41.2 47.85 46.15 42.65 42.75 36.35 M49.65 40.55 L49.15 44.35 Q50.9 45.2 52.65 46 L55.25 43.2 53.45 39.85 49.65 40.55 M55.65 37.05 L55.9 27.9 47.25 24.8 41.75 32 41.65 32.1 46.9 39.65 55.65 37.05 M20 18.6 L25.25 26.1 34 23.45 34.15 14.25 25.45 11.25 20 18.6 M45.75 23.45 L42.55 17.5 35.8 18.7 34.9 25.5 41.1 28.35 45.75 23.45 M52.65 14 L55.25 11.2 53.45 7.85 49.65 8.55 49.15 12.35 Q50.9 13.2 52.65 14 M46.15 10.65 L42.75 4.35 35.6 5.65 34.65 12.8 41.2 15.85 46.15 10.65"/>
  </g>
</svg>