<svg width="64" height="64" xmlns="http://www.w3.org/2000/svg" xmlns:xlink="http://www.w3.org/1999/xlink">
  <defs/>
  <g>
    <path stroke="none" fill="#000000" d="M0 1.5 L0 0 64 0 64 1.5 58.75 1.3 58.2 14.75 64 15 64 17.2 62.7 17.4 43.55 17.9 43.9 31.35 64 30.85 64 33.5 58.75 33.3 58.2 46.75 64 47 64 49.2 62.7 49.4 43.55 49.9 43.9 63.35 64 62.85 64 64 0 64 0 62.85 8.8 62.6 8.45 49.1 0 49.35 0 47 23.05 48 23.65 34.5 0 33.5 0 30.85 8.8 30.6 8.45 17.1 0 17.35 0 15 23.05 16 23.65 2.5 0 1.5 M40.8 30.6 L40.45 17.1 32 17.35 32 17.2 30.7 17.4 11.55 17.9 11.9 31.35 40.8 30.6 M55.05 48 L55.65 34.5 26.75 33.3 26.2 46.75 55.05 48 M55.05 16 L55.65 2.5 26.75 1.3 26.2 14.75 55.05 16 M40.8 62.6 L40.45 49.1 32 49.35 32 49.2 30.7 49.4 11.55 49.9 11.9 63.35 40.8 62.6"/>
    <path stroke="none" fill="#FFFFFF" d="M40.8 62.6 L11.9 63.35 11.55 49.9 30.7 49.4 32 49.2 32 49.35 40.45 49.1 40.8 62.6 M0 1.5 L23.65 2.5 23.05 16 0 15 0 1.5 M0 17.35 L8.45 17.1 8.8 30.6 0 30.85 0 17.35 M0 33.5 L23.65 34.5 23.05 48 0 47 0 33.5 M0 49.35 L8.45 49.1 8.8 62.6 0 62.85 0 49.35 M64 62.85 L43.9 63.35 43.55 49.9 62.7 49.4 64 49.2 64 62.85 M64 47 L58.2 46.75 58.75 33.3 64 33.5 64 47 M64 30.85 L43.9 31.35 43.55 17.9 62.7 17.4 64 17.2 64 30.85 M64 15 L58.2 14.75 58.75 1.3 64 1.5 64 15 M40.8 30.6 L11.9 31.35 11.55 17.9 30.7 17.4 32 17.2 32 17.35 40.45 17.1 40.8 30.6 M55.05 16 L26.2 14.75 26.75 1.3 55.65 2.5 55.05 16 M55.05 48 L26.2 46.75 26.75 33.3 55.65 34.5 55.05 48"/>
  </g>
</svg>