<svg width="64" height="64" xmlns="http://www.w3.org/2000/svg" xmlns:xlink="http://www.w3.org/1999/xlink">
  <defs/>
  <g>
    <path stroke="none" fill="#FFFFFF" d="M61.4 0 L64 0 64 8.95 63.5 9.4 61.4 0 M64 18.2 L64 25.15 58.45 19.85 64 18.2 M64 43.5 L64 51.35 58.4 50.5 64 43.5 M64 60.7 L64 64 61.4 64 60.45 59.55 64 60.7 M49.25 64 L36.95 64 49.25 56.9 49.25 64 M29.35 64 L18.35 64 22.3 54.65 29.35 64 M9.75 64 L0 64 0 60.7 9.95 63.85 9.75 64 M0 51.35 L0 43.5 4 38.5 9.6 52.85 0 51.35 M0 25.1 L0 18.2 8.1 15.85 4.7 29.65 0 25.1 M0 8.95 L0 0 9.75 0 0 8.95 M18.35 0 L29.35 0 30.85 2 16.75 3.7 18.35 0 M36.95 0 L49.25 0 49.25 7.1 36.95 0 M42.2 21.5 L35.55 11.75 47.35 10.9 42.2 21.5 M47.05 31.95 L53.9 22.35 58.8 33.1 47.05 31.95 M40.95 56.35 L35.8 37.4 54.75 42.45 40.95 56.35 M35.2 26.9 L14.75 29.85 22.35 10.7 35.2 26.9 M24.15 49.95 L13.9 37.8 29.55 35 24.15 49.95"/>
    <path stroke="none" fill="#000000" d="M24.15 49.95 L29.55 35 13.9 37.8 24.15 49.95 M64 8.95 L64 18.2 58.45 19.85 64 25.15 64 43.5 58.4 50.5 64 51.35 64 60.7 60.45 59.55 61.4 64 49.25 64 49.25 56.9 36.95 64 29.35 64 22.3 54.65 18.35 64 9.75 64 9.95 63.85 0 60.7 0 51.35 9.6 52.85 4 38.5 0 43.5 0 25.1 4.7 29.65 8.1 15.85 0 18.2 0 8.95 9.75 0 18.35 0 16.75 3.7 30.85 2 29.35 0 36.95 0 49.25 7.1 49.25 0 61.4 0 63.5 9.4 64 8.95 M35.2 26.9 L22.35 10.7 14.75 29.85 35.2 26.9 M40.95 56.35 L54.75 42.45 35.8 37.4 40.95 56.35 M47.05 31.95 L58.8 33.1 53.9 22.35 47.05 31.95 M42.2 21.5 L47.35 10.9 35.55 11.75 42.2 21.5"/>
  </g>
</svg>