<svg width="64" height="64" xmlns="http://www.w3.org/2000/svg" xmlns:xlink="http://www.w3.org/1999/xlink">
  <defs/>
  <g>
    <path stroke="none" fill="#000000" d="M58.45 0 Q58.15 0.95 58.15 1.95 58.15 4.9 60.25 7 61.85 8.6 64 8.95 L64 13.65 Q61.25 13.75 59.3 15.7 57.2 17.75 57.2 20.7 57.2 23.65 59.3 25.7 61.25 27.7 64 27.8 L64 32.5 63.5 32.5 Q59.75 32.5 57.05 35.2 54.4 37.85 54.4 41.6 54.4 45.4 57.05 48.05 59.75 50.7 63.5 50.7 L64 50.7 64 59 Q61.85 59.35 60.25 60.95 58.9 62.3 58.45 64 L51.45 64 51.7 62 Q51.7 59.2 49.7 57.2 47.7 55.2 44.9 55.2 42.1 55.2 40.1 57.2 38.1 59.2 38.1 62 38.1 63.1 38.35 64 L32.1 64 32.1 63.6 Q32.1 59.65 29.3 56.8 26.5 54 22.55 54 18.6 54 15.75 56.8 12.95 59.6 12.95 63.6 L13 64 8.1 64 Q7.65 62.3 6.3 60.95 4.2 58.85 1.25 58.85 L0 59 0 50.7 Q3.45 50.55 5.95 48.05 8.6 45.4 8.6 41.6 8.6 37.85 5.95 35.2 3.45 32.7 0 32.5 L0 27.8 0.3 27.8 Q3.25 27.8 5.3 25.7 7.4 23.65 7.4 20.7 7.4 17.75 5.3 15.7 3.25 13.6 0.3 13.6 L0 13.65 0 8.95 1.25 9.05 Q4.2 9.05 6.3 7 8.35 4.9 8.35 1.95 L8.1 0 13 0 Q13.15 3.7 15.75 6.35 18.6 9.15 22.55 9.15 26.5 9.15 29.3 6.35 31.95 3.7 32.1 0 L38.35 0 Q38.85 1.6 40.1 2.85 42.1 4.85 44.9 4.85 47.7 4.85 49.7 2.85 50.95 1.6 51.45 0 L58.45 0 M31.05 26.8 Q31.05 28.8 32.45 30.25 33.9 31.65 35.9 31.65 37.9 31.65 39.35 30.25 40.75 28.8 40.75 26.8 40.75 24.8 39.35 23.35 37.9 21.95 35.9 21.95 33.9 21.95 32.45 23.35 31.05 24.8 31.05 26.8 M42.55 15.3 Q42.55 17.3 44 18.75 45.4 20.15 47.4 20.15 49.45 20.15 50.85 18.75 52.3 17.3 52.3 15.3 52.3 13.25 50.85 11.85 49.45 10.4 47.4 10.4 45.4 10.4 44 11.85 42.55 13.25 42.55 15.3 M35.55 42.7 Q35.55 45.65 37.65 47.75 39.7 49.8 42.65 49.8 45.6 49.8 47.7 47.75 49.75 45.65 49.75 42.7 49.75 39.75 47.7 37.65 45.6 35.6 42.65 35.6 39.7 35.6 37.65 37.65 35.55 39.75 35.55 42.7 M14.2 42.7 Q14.2 45.65 16.3 47.7 18.35 49.8 21.3 49.8 24.25 49.8 26.3 47.7 28.4 45.65 28.4 42.7 28.4 39.75 26.3 37.7 24.25 35.6 21.3 35.6 18.35 35.6 16.3 37.7 14.2 39.75 14.2 42.7 M12.6 21.65 Q12.6 24.6 14.7 26.7 16.75 28.75 19.7 28.75 22.65 28.75 24.7 26.7 26.8 24.6 26.8 21.65 26.8 18.75 24.7 16.65 22.65 14.6 19.7 14.6 16.75 14.6 14.7 16.65 12.6 18.75 12.6 21.65"/>
    <path stroke="none" fill="#FFFFFF" d="M12.6 21.65 Q12.6 18.75 14.7 16.65 16.75 14.6 19.7 14.6 22.65 14.6 24.7 16.65 26.8 18.75 26.8 21.65 26.8 24.6 24.7 26.7 22.65 28.75 19.7 28.75 16.75 28.75 14.7 26.7 12.6 24.6 12.6 21.65 M64 8.95 Q61.85 8.6 60.25 7 58.15 4.9 58.15 1.95 58.15 0.95 58.45 0 L64 0 64 8.95 M51.45 0 Q50.95 1.6 49.7 2.85 47.7 4.85 44.9 4.85 42.1 4.85 40.1 2.85 38.85 1.6 38.35 0 L51.45 0 M32.1 0 Q31.95 3.7 29.3 6.35 26.5 9.15 22.55 9.15 18.6 9.15 15.75 6.35 13.15 3.7 13 0 L32.1 0 M8.1 0 L8.35 1.95 Q8.35 4.9 6.3 7 4.2 9.05 1.25 9.05 L0 8.95 0 0 8.1 0 M0 13.65 L0.3 13.6 Q3.25 13.6 5.3 15.7 7.4 17.75 7.4 20.7 7.4 23.65 5.3 25.7 3.25 27.8 0.3 27.8 L0 27.8 0 13.65 M0 32.5 Q3.45 32.7 5.95 35.2 8.6 37.85 8.6 41.6 8.6 45.4 5.95 48.05 3.45 50.55 0 50.7 L0 32.5 M0 59 L1.25 58.85 Q4.2 58.85 6.3 60.95 7.65 62.3 8.1 64 L0 64 0 59 M13 64 L12.95 63.6 Q12.95 59.6 15.75 56.8 18.6 54 22.55 54 26.5 54 29.3 56.8 32.1 59.65 32.1 63.6 L32.1 64 13 64 M38.35 64 Q38.1 63.1 38.1 62 38.1 59.2 40.1 57.2 42.1 55.2 44.9 55.2 47.7 55.2 49.7 57.2 51.7 59.2 51.7 62 L51.45 64 38.35 64 M58.45 64 Q58.9 62.3 60.25 60.95 61.85 59.35 64 59 L64 64 58.45 64 M64 50.7 L63.5 50.7 Q59.75 50.7 57.05 48.05 54.4 45.4 54.4 41.6 54.4 37.85 57.05 35.2 59.75 32.5 63.5 32.5 L64 32.5 64 50.7 M64 27.8 Q61.25 27.7 59.3 25.7 57.2 23.65 57.2 20.7 57.2 17.75 59.3 15.7 61.25 13.75 64 13.65 L64 27.8 M42.55 15.3 Q42.55 13.25 44 11.85 45.4 10.4 47.4 10.4 49.45 10.4 50.85 11.85 52.3 13.25 52.3 15.3 52.3 17.3 50.85 18.75 49.45 20.15 47.4 20.15 45.4 20.15 44 18.75 42.55 17.3 42.55 15.3 M31.05 26.8 Q31.05 24.8 32.45 23.35 33.9 21.95 35.9 21.95 37.9 21.95 39.35 23.35 40.75 24.8 40.75 26.8 40.75 28.8 39.35 30.25 37.9 31.65 35.9 31.65 33.9 31.65 32.45 30.25 31.05 28.8 31.05 26.8 M35.55 42.7 Q35.55 39.75 37.65 37.65 39.7 35.6 42.65 35.6 45.6 35.6 47.7 37.65 49.75 39.75 49.75 42.7 49.75 45.65 47.7 47.75 45.6 49.8 42.65 49.8 39.7 49.8 37.65 47.75 35.55 45.65 35.55 42.7 M14.2 42.7 Q14.2 39.75 16.3 37.7 18.35 35.6 21.3 35.6 24.25 35.6 26.3 37.7 28.4 39.75 28.4 42.7 28.4 45.65 26.3 47.7 24.25 49.8 21.3 49.8 18.35 49.8 16.3 47.7 14.2 45.65 14.2 42.7"/>
  </g>
</svg>