<svg width="64" height="64" xmlns="http://www.w3.org/2000/svg" xmlns:xlink="http://www.w3.org/1999/xlink">
  <defs/>
  <g>
    <path stroke="none" fill="#000000" d="M52.2 0 Q52.15 1.45 53.5 3.3 L56.9 7.1 60.7 10.5 Q62.55 11.85 64 11.8 L64 25.15 Q62.95 25.4 61.65 26.35 L57.85 29.75 Q55.3 32.4 54.45 33.55 53.1 35.4 53.15 36.85 53.1 38.3 54.45 40.15 L57.85 43.95 61.65 47.35 Q62.95 48.25 64 48.55 L64 52.2 Q62.55 52.15 60.7 53.55 59.55 54.35 56.9 56.9 L53.5 60.7 Q52.15 62.55 52.2 64 L47.35 64 Q47.4 62.6 46 60.7 L42.65 56.95 38.85 53.55 Q37 52.2 35.55 52.25 34.1 52.2 32.25 53.55 31.15 54.35 28.45 56.9 L25.1 60.7 Q23.7 62.55 23.75 64 L11.8 64 Q11.85 62.55 10.5 60.7 L7.1 56.9 3.3 53.55 Q1.45 52.15 0 52.2 L0 48.55 0.95 48.65 Q2.4 48.7 4.25 47.35 L8.05 43.95 11.45 40.15 Q12.8 38.3 12.75 36.85 12.8 35.4 11.45 33.55 L8.05 29.75 Q5.4 27.2 4.25 26.35 2.4 25 0.95 25.05 L0 25.15 0 11.8 Q1.45 11.85 3.3 10.5 L7.1 7.1 10.5 3.3 Q11.85 1.45 11.8 0 L23.75 0 Q23.7 1.45 25.05 3.3 L28.45 7.1 32.2 10.45 Q34.1 11.85 35.5 11.8 36.95 11.85 38.85 10.5 L42.6 7.1 46 3.35 Q47.35 1.45 47.35 0.05 L47.35 0 52.2 0 M47.95 38.2 L45.85 36.35 Q44.85 35.55 44 35.55 43.2 35.55 42.2 36.35 L40.1 38.15 Q38.65 39.65 38.2 40.3 37.45 41.3 37.45 42.1 37.45 42.85 38.05 43.75 L38.2 43.95 40.1 46.05 42.15 47.95 Q43.15 48.7 44 48.7 44.8 48.7 45.85 47.95 L47.95 46.1 49.85 44 Q50.55 43.05 50.55 42.3 L50.55 42.15 Q50.6 41.35 49.85 40.35 L47.95 38.2 M35.2 25.9 L32.65 23.6 Q31.4 22.7 30.45 22.75 29.45 22.7 28.25 23.6 L25.7 25.85 23.4 28.4 Q22.5 29.65 22.55 30.6 22.5 31.6 23.4 32.85 L25.7 35.4 28.2 37.65 Q29.45 38.55 30.4 38.55 31.4 38.55 32.65 37.65 L35.2 35.4 37.45 32.85 Q38.35 31.6 38.35 30.65 38.35 29.65 37.45 28.45 L35.2 25.9 M54.95 13.35 L51.85 10.6 Q50.3 9.5 49.15 9.55 47.95 9.5 46.45 10.6 L43.35 13.35 40.6 16.45 Q39.5 17.95 39.5 19.15 39.5 20.3 40.6 21.85 L43.35 24.95 46.45 27.7 Q47.95 28.8 49.15 28.75 50.3 28.8 51.85 27.7 L54.95 24.95 57.7 21.85 Q58.8 20.3 58.75 19.15 58.8 17.95 57.7 16.45 L54.95 13.35 M22.25 11.4 L19.15 8.65 Q17.65 7.55 16.55 7.55 15.3 7.55 13.8 8.65 L10.75 11.35 8.05 14.4 Q6.9 15.9 6.95 17.1 6.9 18.25 8 19.75 L10.75 22.85 13.8 25.6 Q15.3 26.65 16.5 26.65 17.65 26.7 19.15 25.6 L22.25 22.85 25 19.8 Q26.1 18.3 26.05 17.1 26.1 15.95 25 14.45 L22.25 11.4 M22.9 45.25 L20.55 43.15 Q19.4 42.3 18.5 42.35 17.6 42.3 16.45 43.15 L14.1 45.25 12 47.6 Q11.15 48.75 11.15 49.65 11.15 50.55 11.95 51.7 L14.05 54.05 16.4 56.15 Q17.55 57 18.45 56.95 19.35 57 20.5 56.15 L22.85 54.05 24.95 51.7 Q25.8 50.55 25.8 49.65 25.8 48.75 24.95 47.6 L22.9 45.25"/>
    <path stroke="none" fill="#FFFFFF" d="M22.9 45.25 L24.95 47.6 Q25.8 48.75 25.8 49.65 25.8 50.55 24.95 51.7 L22.85 54.05 20.5 56.15 Q19.35 57 18.45 56.95 17.55 57 16.4 56.15 L14.05 54.05 11.95 51.7 Q11.15 50.55 11.15 49.65 11.15 48.75 12 47.6 L14.1 45.25 16.45 43.15 Q17.6 42.3 18.5 42.35 19.4 42.3 20.55 43.15 L22.9 45.25 M64 11.8 Q62.55 11.85 60.7 10.5 L56.9 7.1 53.5 3.3 Q52.15 1.45 52.2 0 L64 0 64 11.8 M47.35 0 L47.35 0.05 Q47.35 1.45 46 3.35 L42.6 7.1 38.85 10.5 Q36.95 11.85 35.5 11.8 34.1 11.85 32.2 10.45 L28.45 7.1 25.05 3.3 Q23.7 1.45 23.75 0 L47.35 0 M11.8 0 Q11.85 1.45 10.5 3.3 L7.1 7.1 3.3 10.5 Q1.45 11.85 0 11.8 L0 0 11.8 0 M0 25.15 L0.95 25.05 Q2.4 25 4.25 26.35 5.4 27.2 8.05 29.75 L11.45 33.55 Q12.8 35.4 12.75 36.85 12.8 38.3 11.45 40.15 L8.05 43.95 4.25 47.35 Q2.4 48.7 0.95 48.65 L0 48.55 0 25.15 M0 52.2 Q1.45 52.15 3.3 53.55 L7.1 56.9 10.5 60.7 Q11.85 62.55 11.8 64 L0 64 0 52.2 M23.75 64 Q23.7 62.55 25.1 60.7 L28.45 56.9 Q31.15 54.35 32.25 53.55 34.1 52.2 35.55 52.25 37 52.2 38.85 53.55 L42.65 56.95 46 60.7 Q47.4 62.6 47.35 64 L23.75 64 M52.2 64 Q52.15 62.55 53.5 60.7 L56.9 56.9 Q59.55 54.35 60.7 53.55 62.55 52.15 64 52.2 L64 64 52.2 64 M64 48.55 Q62.95 48.25 61.65 47.35 L57.85 43.95 54.45 40.15 Q53.1 38.3 53.15 36.85 53.1 35.4 54.45 33.55 55.3 32.4 57.85 29.75 L61.65 26.35 Q62.95 25.4 64 25.15 L64 48.55 M54.95 13.35 L57.7 16.45 Q58.8 17.95 58.75 19.15 58.8 20.3 57.7 21.85 L54.95 24.95 51.85 27.7 Q50.3 28.8 49.15 28.75 47.95 28.8 46.45 27.7 L43.35 24.95 40.6 21.85 Q39.5 20.3 39.5 19.15 39.5 17.95 40.6 16.45 L43.35 13.35 46.45 10.6 Q47.95 9.5 49.15 9.55 50.3 9.5 51.85 10.6 L54.95 13.35 M35.2 25.9 L37.45 28.45 Q38.35 29.65 38.35 30.65 38.35 31.6 37.45 32.85 L35.2 35.4 32.65 37.65 Q31.4 38.55 30.4 38.55 29.45 38.55 28.2 37.65 L25.7 35.4 23.4 32.85 Q22.5 31.6 22.55 30.6 22.5 29.65 23.4 28.4 L25.7 25.85 28.25 23.6 Q29.45 22.7 30.45 22.75 31.4 22.7 32.65 23.6 L35.2 25.9 M47.95 38.2 L49.85 40.35 Q50.6 41.35 50.55 42.15 L50.55 42.3 Q50.55 43.05 49.85 44 L47.95 46.1 45.85 47.95 Q44.8 48.7 44 48.7 43.15 48.7 42.15 47.95 L40.1 46.05 38.2 43.95 38.05 43.75 Q37.45 42.85 37.45 42.1 37.45 41.3 38.2 40.3 38.65 39.65 40.1 38.15 L42.2 36.35 Q43.2 35.55 44 35.55 44.85 35.55 45.85 36.35 L47.95 38.2 M22.25 11.4 L25 14.45 Q26.1 15.95 26.05 17.1 26.1 18.3 25 19.8 L22.25 22.85 19.15 25.6 Q17.65 26.7 16.5 26.65 15.3 26.65 13.8 25.6 L10.75 22.85 8 19.75 Q6.9 18.25 6.95 17.1 6.9 15.9 8.05 14.4 L10.75 11.35 13.8 8.65 Q15.3 7.55 16.55 7.55 17.65 7.55 19.15 8.65 L22.25 11.4"/>
  </g>
</svg>