<svg width="64" height="64" xmlns="http://www.w3.org/2000/svg" xmlns:xlink="http://www.w3.org/1999/xlink">
  <defs/>
  <g>
    <path stroke="none" fill="#000000" d="M47.55 0 L51.85 0 51.85 7.85 64 11.85 64 27.05 50.9 22.5 39.95 37.2 50.45 52.15 64 48.05 64 52.15 51.85 56.1 51.85 64 47.55 64 47.8 55.8 30.5 49.6 19.45 64 12.15 64 2.85 51.2 0 52.15 0 48.05 3.95 46.85 4.3 28.5 0 27.05 0 11.85 2.85 12.75 12.15 0 19.45 0 19.3 0.2 29.75 15.25 47.25 10.1 47.55 0 M7.6 37.4 L5.8 50.95 18.15 56.7 27.5 46.9 21.05 34.95 7.6 37.4 M7.2 11.25 L5.3 25.6 18.35 31.7 28.25 21.3 21.45 8.7 7.2 11.25 M42.9 15.7 L35.3 17.05 34.3 24.7 41.25 27.95 46.5 22.4 42.9 15.7"/>
    <path stroke="none" fill="#FFFFFF" d="M42.9 15.7 L46.5 22.4 41.25 27.95 34.3 24.7 35.3 17.05 42.9 15.7 M51.85 0 L64 0 64 11.85 51.85 7.85 51.85 0 M64 27.05 L64 48.05 50.45 52.15 39.95 37.2 50.9 22.5 64 27.05 M64 52.15 L64 64 51.85 64 51.85 56.1 64 52.15 M47.55 64 L19.45 64 30.5 49.6 47.8 55.8 47.55 64 M12.15 64 L0 64 0 52.15 2.85 51.2 12.15 64 M0 48.05 L0 27.05 4.3 28.5 3.95 46.85 0 48.05 M0 11.85 L0 0 12.15 0 2.85 12.75 0 11.85 M19.45 0 L47.55 0 47.25 10.1 29.75 15.25 19.3 0.2 19.45 0 M7.2 11.25 L21.45 8.7 28.25 21.3 18.35 31.7 5.3 25.6 7.2 11.25 M7.6 37.4 L21.05 34.95 27.5 46.9 18.15 56.7 5.8 50.95 7.6 37.4"/>
  </g>
</svg>