<svg width="64" height="64" xmlns="http://www.w3.org/2000/svg" xmlns:xlink="http://www.w3.org/1999/xlink">
  <defs/>
  <g>
    <path stroke="none" fill="#FFFFFF" d="M64 16 L59.3 4.7 48 0 64 0 64 16 M16 0 L4.7 4.7 0 16 0 0 16 0 M0 48 L4.7 59.3 16 64 0 64 0 48 M48 64 L59.3 59.3 64 48 64 64 48 64 M32 48 L27.3 36.7 16 32 27.3 27.3 32 16 36.7 27.3 48 32 36.7 36.7 32 48"/>
    <path stroke="none" fill="#000000" d="M32 48 L36.7 36.7 48 32 36.7 27.3 32 16 27.3 27.3 16 32 27.3 36.7 32 48 M48 0 L59.3 4.7 64 16 64 48 59.3 59.3 48 64 16 64 4.7 59.3 0 48 0 16 4.7 4.7 16 0 48 0"/>
  </g>
</svg>