<svg width="64" height="64" xmlns="http://www.w3.org/2000/svg" xmlns:xlink="http://www.w3.org/1999/xlink">
  <defs/>
  <g>
    <path stroke="none" fill="#000000" d="M35.15 0 L35.4 3.2 Q35.95 6.65 39.5 7.3 42.9 7.8 46 7.2 49.6 6.65 50 3.2 L50.35 0 64 0 64 39.65 61.7 39.8 Q60.05 39.95 59.7 42 59.45 43.95 59.7 45.9 60.05 47.9 62.1 48.3 L64 48.45 64 64 50.35 64 50.2 61.15 Q49.6 57.05 46.05 56.6 42.75 56.3 38.8 56.75 35.95 57.05 35.4 60.55 L35.15 64 0 64 0 48.45 1.95 48.25 Q4.05 47.9 4.25 45.9 4.6 43.55 4.4 42.35 4.05 39.95 1.95 39.7 L0 39.65 0 20.1 1.15 20.4 Q4.55 20.9 7.65 20.3 11.25 19.75 11.65 16.3 12.2 12.3 11.85 10.25 11.25 6.15 7.7 5.7 4.4 5.4 0.45 5.85 L0 5.95 0 0 35.15 0 M49.4 18.15 Q48.3 18.25 48.1 19.65 47.9 20.95 48.1 22.25 48.3 23.65 49.7 23.9 L52.3 23.85 Q53.7 23.65 53.85 22.25 54.1 20.7 53.95 19.85 53.7 18.25 52.3 18.05 L49.4 18.15 M26.4 45.7 Q24.75 45.85 24.4 47.9 24.15 49.85 24.4 51.8 24.75 53.8 26.8 54.2 28.8 54.5 30.65 54.15 32.75 53.8 32.95 51.8 33.3 49.45 33.1 48.25 32.75 45.85 30.65 45.6 L26.4 45.7 M30.55 34.9 Q29.45 35 29.25 36.4 29.05 37.7 29.25 39 29.45 40.4 30.85 40.65 L33.45 40.6 Q34.85 40.4 35 39 35.25 37.45 35.1 36.6 34.85 35 33.45 34.8 L30.55 34.9 M42.95 37.2 Q40.1 37.5 39.55 41 39.05 44.3 39.55 47.65 40.1 51.1 43.65 51.75 47.05 52.25 50.15 51.65 53.75 51.1 54.15 47.65 54.7 43.65 54.35 41.6 53.75 37.5 50.2 37.05 46.9 36.75 42.95 37.2 M16.5 12 Q14.85 12.15 14.5 14.2 14.25 16.15 14.5 18.1 14.85 20.1 16.9 20.5 18.9 20.8 20.75 20.45 22.85 20.1 23.05 18.1 23.4 15.75 23.2 14.55 22.85 12.15 20.75 11.9 L16.5 12 M9.7 23.8 Q8.05 23.95 7.7 26 7.45 27.95 7.7 29.9 8.05 31.9 10.1 32.3 12.1 32.6 13.95 32.25 16.05 31.9 16.25 29.9 16.6 27.55 16.4 26.35 16.05 23.95 13.95 23.7 L9.7 23.8 M8.95 55.15 Q7.85 55.25 7.65 56.65 7.45 57.95 7.65 59.25 7.85 60.65 9.25 60.9 L11.85 60.85 Q13.25 60.65 13.4 59.25 13.65 57.7 13.5 56.85 13.25 55.25 11.85 55.05 L8.95 55.15"/>
    <path stroke="none" fill="#FFFFFF" d="M8.95 55.15 L11.85 55.05 Q13.25 55.25 13.5 56.85 13.65 57.7 13.4 59.25 13.25 60.65 11.85 60.85 L9.25 60.9 Q7.85 60.65 7.65 59.25 7.45 57.95 7.65 56.65 7.85 55.25 8.95 55.15 M50.35 0 L50 3.2 Q49.6 6.65 46 7.2 42.9 7.8 39.5 7.3 35.95 6.65 35.4 3.2 L35.15 0 50.35 0 M0 5.95 L0.45 5.85 Q4.4 5.4 7.7 5.7 11.25 6.15 11.85 10.25 12.2 12.3 11.65 16.3 11.25 19.75 7.65 20.3 4.55 20.9 1.15 20.4 L0 20.1 0 5.95 M0 39.65 L1.95 39.7 Q4.05 39.95 4.4 42.35 4.6 43.55 4.25 45.9 4.05 47.9 1.95 48.25 L0 48.45 0 39.65 M35.15 64 L35.4 60.55 Q35.95 57.05 38.8 56.75 42.75 56.3 46.05 56.6 49.6 57.05 50.2 61.15 L50.35 64 35.15 64 M64 48.45 L62.1 48.3 Q60.05 47.9 59.7 45.9 59.45 43.95 59.7 42 60.05 39.95 61.7 39.8 L64 39.65 64 48.45 M49.4 18.15 L52.3 18.05 Q53.7 18.25 53.95 19.85 54.1 20.7 53.85 22.25 53.7 23.65 52.3 23.85 L49.7 23.9 Q48.3 23.65 48.1 22.25 47.9 20.95 48.1 19.65 48.3 18.25 49.4 18.15 M42.95 37.2 Q46.9 36.75 50.2 37.05 53.75 37.5 54.35 41.6 54.7 43.65 54.15 47.65 53.75 51.1 50.15 51.65 47.05 52.25 43.65 51.75 40.1 51.1 39.55 47.65 39.05 44.3 39.55 41 40.1 37.5 42.95 37.2 M30.55 34.9 L33.45 34.8 Q34.85 35 35.1 36.6 35.25 37.45 35 39 34.85 40.4 33.45 40.6 L30.85 40.65 Q29.45 40.4 29.25 39 29.05 37.7 29.25 36.4 29.45 35 30.55 34.9 M26.4 45.7 L30.65 45.6 Q32.75 45.85 33.1 48.25 33.3 49.45 32.95 51.8 32.75 53.8 30.65 54.15 28.8 54.5 26.8 54.2 24.75 53.8 24.4 51.8 24.15 49.85 24.4 47.9 24.75 45.85 26.4 45.7 M9.7 23.8 L13.95 23.7 Q16.05 23.95 16.4 26.35 16.6 27.55 16.25 29.9 16.05 31.9 13.95 32.25 12.1 32.6 10.1 32.3 8.05 31.9 7.7 29.9 7.45 27.95 7.7 26 8.05 23.95 9.7 23.8 M16.5 12 L20.75 11.9 Q22.85 12.15 23.2 14.55 23.4 15.75 23.05 18.1 22.85 20.1 20.75 20.45 18.9 20.8 16.9 20.5 14.85 20.1 14.5 18.1 14.25 16.15 14.5 14.2 14.85 12.15 16.5 12"/>
  </g>
</svg>