<svg width="64" height="64" xmlns="http://www.w3.org/2000/svg" xmlns:xlink="http://www.w3.org/1999/xlink">
  <defs/>
  <g>
    <path stroke="none" fill="#FFFFFF" d="M57.85 0 L64 0 64 4 57.85 4 57.85 0 M64 18.4 L64 25.15 54.35 25.15 54.35 18.4 64 18.4 M64 40.05 L64 47.85 49.55 47.85 49.55 40.05 64 40.05 M64 60.25 L64 64 57.85 64 57.85 60.25 64 60.25 M45.65 64 L33.8 64 33.7 60.3 45.55 60 45.65 64 M27.65 64 L13.05 64 13.45 59.6 27.95 60.95 27.65 64 M8.45 64 L0 64 0 60.25 8.45 60.25 8.45 64 M0 25.15 L0 18.4 2.85 18.4 2.85 25.15 0 25.15 M0 4 L0 0 8.45 0 8.45 4 0 4 M13.05 0 L27.65 0 27.2 4.7 12.7 3.3 13.05 0 M33.8 0 L45.65 0 45.7 2.3 33.85 2.6 33.8 0 M34.65 18.3 L46.95 17.6 47.3 24.15 35 24.85 34.65 18.3 M43.1 6 L58.65 6.95 58.15 15.25 42.6 14.3 43.1 6 M41.2 28.85 L55.8 28.85 55.8 36.65 41.2 36.65 41.2 28.85 M23.3 6.45 L37.85 6.45 37.85 14.25 23.3 14.25 23.3 6.45 M28.25 38.4 L44.75 39.45 44.25 48.25 27.75 47.25 28.25 38.4 M42.05 51 L54.6 51.8 54.15 58.55 41.6 57.7 42.05 51 M20.25 50.9 L32.75 50.6 32.9 57.25 20.45 57.6 20.25 50.9 M22.3 29.65 L34.7 29.65 34.7 36.35 22.3 36.35 22.3 29.65 M10.55 16.75 L28.5 16.75 28.5 26.35 10.55 26.35 10.55 16.75 M1.5 6.25 L14.85 7.85 14 15 0.8 13.4 1.5 6.25 M0.25 29.8 L14.8 28.6 15.45 36.35 0.95 37.55 0.25 29.8 M8.7 39 L21.55 39.75 21.2 46.65 8.35 45.9 8.7 39 M15.6 49.75 L15.15 57.5 0.6 56.65 1.05 48.85 15.6 49.75"/>
    <path stroke="none" fill="#000000" d="M15.6 49.75 L1.05 48.85 0.6 56.65 15.15 57.5 15.6 49.75 M64 4 L64 18.4 54.35 18.4 54.35 25.15 64 25.15 64 40.05 49.55 40.05 49.55 47.85 64 47.85 64 60.25 57.85 60.25 57.85 64 45.65 64 45.55 60 33.7 60.3 33.8 64 27.65 64 27.95 60.95 13.45 59.6 13.05 64 8.45 64 8.45 60.25 0 60.25 0 25.15 2.85 25.15 2.85 18.4 0 18.4 0 4 8.45 4 8.45 0 13.05 0 12.7 3.3 27.2 4.7 27.65 0 33.8 0 33.85 2.6 45.7 2.3 45.65 0 57.85 0 57.85 4 64 4 M8.7 39 L8.35 45.9 21.2 46.65 21.55 39.75 8.7 39 M0.25 29.8 L0.95 37.55 15.45 36.35 14.8 28.6 0.25 29.8 M1.5 6.25 L0.8 13.4 14 15 14.85 7.85 1.5 6.25 M10.55 16.75 L10.55 26.35 28.5 26.35 28.5 16.75 10.55 16.75 M22.3 29.65 L22.3 36.35 34.7 36.35 34.7 29.65 22.3 29.65 M20.25 50.9 L20.45 57.6 32.9 57.25 32.75 50.6 20.25 50.9 M42.05 51 L41.6 57.7 54.15 58.55 54.6 51.8 42.05 51 M28.25 38.4 L27.75 47.25 44.25 48.25 44.75 39.45 28.25 38.4 M23.3 6.45 L23.3 14.25 37.85 14.25 37.85 6.45 23.3 6.45 M41.2 28.85 L41.2 36.65 55.8 36.65 55.8 28.85 41.2 28.85 M43.1 6 L42.6 14.3 58.15 15.25 58.65 6.95 43.1 6 M34.65 18.3 L35 24.85 47.3 24.15 46.95 17.6 34.65 18.3"/>
  </g>
</svg>