<svg width="64" height="64" xmlns="http://www.w3.org/2000/svg" xmlns:xlink="http://www.w3.org/1999/xlink">
  <defs/>
  <g>
    <path stroke="none" fill="#FFFFFF" d="M64 6.5 L56.25 14.2 49.8 7.75 57.5 0 64 0 64 6.5 M6.45 0 L21.3 14.85 29 7.1 35.5 13.6 27.8 21.35 42.65 36.2 50.35 28.45 56.85 34.95 49.1 42.65 64 57.55 64 64 57.5 64 42.65 49.15 34.9 56.9 28.45 50.4 36.15 42.65 21.3 27.8 13.55 35.55 7.05 29.05 14.8 21.35 7.05 13.6 7.1 13.6 0 6.5 0 0 6.45 0 M0 57.55 L7.7 49.85 14.2 56.3 6.45 64 0 64 0 57.55"/>
    <path stroke="none" fill="#000000" d="M0 57.55 L0 6.5 7.1 13.6 7.05 13.6 14.8 21.35 7.05 29.05 13.55 35.55 21.3 27.8 36.15 42.65 28.45 50.4 34.9 56.9 42.65 49.15 57.5 64 6.45 64 14.2 56.3 7.7 49.85 0 57.55 M57.5 0 L49.8 7.75 56.25 14.2 64 6.5 64 57.55 49.1 42.65 56.85 34.95 50.35 28.45 42.65 36.2 27.8 21.35 35.5 13.6 29 7.1 21.3 14.85 6.45 0 57.5 0"/>
  </g>
</svg>