<svg width="64" height="64" xmlns="http://www.w3.org/2000/svg" xmlns:xlink="http://www.w3.org/1999/xlink">
  <defs/>
  <g>
    <path stroke="none" fill="#000000" d="M64 0 L64 8 8 64 0 64 64 0 M64 16 L64 24 24 64 16 64 64 16 M64 32 L64 40 40 64 32 64 64 32 M64 48 L64 56 56 64 48 64 64 48 M0 56 L0 48 48 0 56 0 0 56 M0 40 L0 32 32 0 40 0 0 40 M0 24 L0 16 16 0 24 0 0 24 M0 8 L0 0 8 0 0 8"/>
    <path stroke="none" fill="#FFFFFF" d="M0 8 L8 0 16 0 0 16 0 8 M64 8 L64 16 16 64 8 64 64 8 M64 24 L64 32 32 64 24 64 64 24 M64 40 L64 48 48 64 40 64 64 40 M64 56 L64 64 56 64 64 56 M0 64 L0 56 56 0 64 0 0 64 M0 48 L0 40 40 0 48 0 0 48 M0 32 L0 24 24 0 32 0 0 32"/>
  </g>
</svg>