<svg width="64" height="64" xmlns="http://www.w3.org/2000/svg" xmlns:xlink="http://www.w3.org/1999/xlink">
  <defs/>
  <g>
    <path stroke="none" fill="#000000" d="M50.25 0 L54.85 14.15 64 14.15 64 49.85 49.15 60.65 50.25 64 13.8 64 14.85 60.65 0 49.85 0 14.15 9.2 14.15 13.8 0 50.25 0 M32 17.85 L17.15 28.65 22.85 46.15 41.2 46.15 46.85 28.65 32 17.85"/>
    <path stroke="none" fill="#FFFFFF" d="M32 17.85 L46.85 28.65 41.2 46.15 22.85 46.15 17.15 28.65 32 17.85 M64 14.15 L54.85 14.15 50.25 0 64 0 64 14.15 M13.8 0 L9.2 14.15 0 14.15 0 0 13.8 0 M0 49.85 L14.85 60.65 13.8 64 0 64 0 49.85 M50.25 64 L49.15 60.65 64 49.85 64 64 50.25 64"/>
  </g>
</svg>