<svg width="64" height="64" xmlns="http://www.w3.org/2000/svg" xmlns:xlink="http://www.w3.org/1999/xlink">
  <defs/>
  <g>
    <path stroke="none" fill="#FFFFFF" d="M53.05 0 L64 0 64 11.9 61.15 11.95 Q58.05 11.85 56.55 10.6 55 9.4 54.2 6.4 L53.85 4.8 53.05 0 M64 15.8 L64 45.25 63.25 45.15 55.95 44 Q52.7 43.15 51.4 41.45 50 39.85 49.85 36.5 L49.85 36.2 Q49.75 34.05 50.15 29.05 50.85 23.7 51.35 21.75 52.2 18.5 53.9 17.2 55.5 15.8 58.85 15.65 L64 15.8 M64 48.85 L64 64 53.05 64 53 63.7 52.65 58.5 52.6 56.85 Q52.75 53.75 54 52.25 55.15 50.7 58.15 49.9 L64 48.85 M46.95 64 L20.2 64 20.35 61.8 Q20.9 56.9 21.3 55.1 22.05 52.15 23.55 50.95 25 49.7 28.05 49.5 L34.8 49.7 41.5 50.65 Q44.45 51.4 45.65 52.9 46.9 54.3 47.15 57.4 L47.15 59.4 47.15 59.55 47.15 59.65 46.95 64 M16.1 64 L0 64 0 48.85 0.85 48.7 7.7 48.3 Q10.8 48.45 12.3 49.7 13.85 50.85 14.65 53.85 15.15 55.7 15.85 60.6 L16.1 64 M0 45.25 L0 15.8 2.25 15.95 9.6 17.15 Q12.85 18 14.15 19.7 15.55 21.3 15.7 24.65 L15.7 26.6 15.7 26.65 15.35 32.05 14.2 39.4 Q13.35 42.65 11.65 43.95 10.05 45.35 6.7 45.5 L0 45.25 M0 11.9 L0 0 16.1 0 16.2 3.4 16.1 4.8 Q15.8 6.9 14.85 8 13.7 9.55 10.7 10.4 L3.95 11.55 0 11.9 M20.2 0 L46.95 0 46.9 0.15 46.35 4.8 45.95 6.8 Q45.2 9.8 43.7 11 42.25 12.25 39.2 12.5 L32.45 12.25 25.8 11.3 Q22.8 10.55 21.6 9.05 20.4 7.65 20.2 4.8 L20.15 4.55 20.2 0 M46.3 32.75 L46.05 37.55 Q45.65 40.4 44.35 41.7 43.15 43 40.3 43.5 L33.95 44 27.6 43.75 Q24.75 43.35 23.5 42.05 22.15 40.8 21.65 37.95 21.35 36.3 21.2 31.95 L21.2 31.65 21.25 30.25 21.45 25.3 Q21.8 22.45 23.1 21.15 24.35 19.8 27.2 19.35 L33.5 18.85 39.85 19.1 Q42.7 19.5 44 20.8 45.3 22 45.8 24.85 L46.3 31.2 46.3 32.75"/>
    <path stroke="none" fill="#000000" d="M46.3 32.75 L46.3 31.2 45.8 24.85 Q45.3 22 44 20.8 42.7 19.5 39.85 19.1 L33.5 18.85 27.2 19.35 Q24.35 19.8 23.1 21.15 21.8 22.45 21.45 25.3 L21.25 30.25 21.2 31.65 21.2 31.95 Q21.35 36.3 21.65 37.95 22.15 40.8 23.5 42.05 24.75 43.35 27.6 43.75 L33.95 44 40.3 43.5 Q43.15 43 44.35 41.7 45.65 40.4 46.05 37.55 L46.3 32.75 M64 11.9 L64 15.8 58.85 15.65 Q55.5 15.8 53.9 17.2 52.2 18.5 51.35 21.75 50.85 23.7 50.15 29.05 49.75 34.05 49.85 36.2 L49.85 36.5 Q50 39.85 51.4 41.45 52.7 43.15 55.95 44 L63.25 45.15 64 45.25 64 48.85 58.15 49.9 Q55.15 50.7 54 52.25 52.75 53.75 52.6 56.85 L52.65 58.5 53 63.7 53.05 64 46.95 64 47.15 59.65 47.15 59.55 47.15 59.4 47.15 57.4 Q46.9 54.3 45.65 52.9 44.45 51.4 41.5 50.65 L34.8 49.7 28.05 49.5 Q25 49.7 23.55 50.95 22.05 52.15 21.3 55.1 20.9 56.9 20.35 61.8 L20.2 64 16.1 64 15.85 60.6 Q15.15 55.7 14.65 53.85 13.85 50.85 12.3 49.7 10.8 48.45 7.7 48.3 L0.85 48.7 0 48.85 0 45.25 6.7 45.5 Q10.05 45.35 11.65 43.95 13.35 42.65 14.2 39.4 L15.35 32.05 15.7 26.65 15.7 26.6 15.7 24.65 Q15.55 21.3 14.15 19.7 12.85 18 9.6 17.15 L2.25 15.95 0 15.8 0 11.9 3.95 11.55 10.7 10.4 Q13.7 9.55 14.85 8 15.8 6.9 16.1 4.8 L16.2 3.4 16.1 0 20.2 0 20.15 4.55 20.2 4.8 Q20.4 7.65 21.6 9.05 22.8 10.55 25.8 11.3 L32.45 12.25 39.2 12.5 Q42.25 12.25 43.7 11 45.2 9.8 45.95 6.8 L46.35 4.8 46.9 0.15 46.95 0 53.05 0 53.85 4.8 54.2 6.4 Q55 9.4 56.55 10.6 58.05 11.85 61.15 11.95 L64 11.9"/>
  </g>
</svg>