<svg width="64" height="64" xmlns="http://www.w3.org/2000/svg" xmlns:xlink="http://www.w3.org/1999/xlink">
  <defs/>
  <g>
    <path stroke="none" fill="#000000" d="M24 40 L32 40 48 24 40 24 24 40 M64 20 L64 24 64 32 56 40 64 40 64 44 0 44 0 40 16 24 8 24 0 32 0 20 64 20 M64 48 L64 64 0 64 0 48 64 48 M0 16 L0 0 64 0 64 16 0 16 M64 24 L56 24 40 40 48 40 64 24 M8 40 L16 40 32 24 24 24 8 40"/>
    <path stroke="none" fill="#FFFFFF" d="M8 40 L24 24 32 24 16 40 8 40 M24 40 L40 24 48 24 32 40 24 40 M64 32 L64 40 56 40 64 32 M64 44 L64 48 0 48 0 44 64 44 M0 40 L0 32 8 24 16 24 0 40 M0 20 L0 16 64 16 64 20 0 20 M64 24 L48 40 40 40 56 24 64 24"/>
  </g>
</svg>