<svg width="64" height="64" xmlns="http://www.w3.org/2000/svg" xmlns:xlink="http://www.w3.org/1999/xlink">
  <defs/>
  <g>
    <path stroke="none" fill="#000000" d="M0 4 L0 0 64 0 64 4 0 4 M64 8 L64 18 62 18 62 10 50 10 50 18 46 18 46 10 34 10 34 18 30 18 30 10 18 10 18 18 14 18 14 10 2 10 2 18 0 18 0 8 64 8 M64 22 L64 24 0 24 0 22 6 22 6 14 10 14 10 22 22 22 22 14 26 14 26 22 38 22 38 14 42 14 42 22 54 22 54 14 58 14 58 22 64 22 M64 28 L64 36 0 36 0 28 64 28 M64 40 L64 50 62 50 62 42 50 42 50 50 46 50 46 42 34 42 34 50 30 50 30 42 18 42 18 50 14 50 14 42 2 42 2 50 0 50 0 40 64 40 M64 54 L64 56 0 56 0 54 6 54 6 46 10 46 10 54 22 54 22 46 26 46 26 54 38 54 38 46 42 46 42 54 54 54 54 46 58 46 58 54 64 54 M64 60 L64 64 0 64 0 60 64 60"/>
    <path stroke="none" fill="#FFFFFF" d="M64 60 L0 60 0 56 64 56 64 60 M64 4 L64 8 0 8 0 4 64 4 M64 18 L64 22 58 22 58 14 54 14 54 22 42 22 42 14 38 14 38 22 26 22 26 14 22 14 22 22 10 22 10 14 6 14 6 22 0 22 0 18 2 18 2 10 14 10 14 18 18 18 18 10 30 10 30 18 34 18 34 10 46 10 46 18 50 18 50 10 62 10 62 18 64 18 M64 24 L64 28 0 28 0 24 64 24 M64 36 L64 40 0 40 0 36 64 36 M64 50 L64 54 58 54 58 46 54 46 54 54 42 54 42 46 38 46 38 54 26 54 26 46 22 46 22 54 10 54 10 46 6 46 6 54 0 54 0 50 2 50 2 42 14 42 14 50 18 50 18 42 30 42 30 50 34 50 34 42 46 42 46 50 50 50 50 42 62 42 62 50 64 50"/>
  </g>
</svg>