<svg width="64" height="64" xmlns="http://www.w3.org/2000/svg" xmlns:xlink="http://www.w3.org/1999/xlink">
  <defs/>
  <g>
    <path stroke="none" fill="#000000" d="M57.75 3.1 L59 9.1 63.55 5.05 57.75 3.1 M39.85 0 L64 0 64 12.3 63.45 11.7 60.45 21.05 64 20.3 64 32.95 57.75 34.2 64 41.25 64 49.65 61.1 52.05 64 53.15 64 64 39.85 64 40.9 60.8 31.25 62.75 32.35 64 0 64 0 53.15 6.25 55.55 4.65 45.8 0 49.65 0 41.2 0.3 41.55 3.45 32.25 0 32.95 0 20.3 6 19 0 12.35 0 0 32.35 0 37.75 6.1 39.85 0 M23.65 32.95 L33.5 32.6 28.25 24.25 23.65 32.95 M8.65 55.6 L9.9 61.6 14.45 57.55 8.65 55.6 M7.65 39.95 L11.7 44.5 13.65 38.7 7.65 39.95 M22.8 63.45 L25.9 54.15 16.25 56.1 22.8 63.45 M27.95 53.5 L34.05 53.85 31.35 48.4 27.95 53.5 M16.9 47.65 L25 42.1 16.15 37.85 16.9 47.65 M17.05 28.85 L8.75 23.6 8.4 33.45 17.05 28.85 M9.25 10.2 L14.15 1.7 4.35 1.7 9.25 10.2 M33.1 20.65 L30.35 15.2 27 20.3 33.1 20.65 M15 13.65 L21.5 21 24.65 11.7 15 13.65 M7.75 15.2 L11.3 20.15 13.9 14.6 7.75 15.2 M19.9 8.5 L24.45 4.45 18.65 2.5 19.9 8.5 M57.75 59.3 L52.25 51.15 47.95 60 57.75 59.3 M43.5 57.05 L43.85 50.95 38.35 53.7 43.5 57.05 M38.15 38.55 L37.85 48.4 46.5 43.8 38.15 38.55 M29.3 40.35 L35.35 40.65 32.6 35.2 29.3 40.35 M55.75 47.25 L56.15 41.15 50.65 43.85 55.75 47.25 M54.05 26.65 L44.4 28.6 50.9 35.95 54.05 26.65 M55.15 11.85 L52.7 2.35 45.7 9.25 55.15 11.85 M40.7 32.6 L41.1 26.5 35.6 29.25 40.7 32.6 M47.1 17.05 L52.15 20.35 52.55 14.25 47.1 17.05 M33.55 12.9 L38.45 21.4 43.35 12.9 33.55 12.9"/>
    <path stroke="none" fill="#FFFFFF" d="M33.55 12.9 L43.35 12.9 38.45 21.4 33.55 12.9 M57.75 3.1 L63.55 5.05 59 9.1 57.75 3.1 M32.35 0 L39.85 0 37.75 6.1 32.35 0 M64 12.3 L64 20.3 60.45 21.05 63.45 11.7 64 12.3 M64 32.95 L64 41.25 57.75 34.2 64 32.95 M64 49.65 L64 53.15 61.1 52.05 64 49.65 M39.85 64 L32.35 64 31.25 62.75 40.9 60.8 39.85 64 M0 53.15 L0 49.65 4.65 45.8 6.25 55.55 0 53.15 M0 41.2 L0 32.95 3.45 32.25 0.3 41.55 0 41.2 M0 20.3 L0 12.35 6 19 0 20.3 M47.1 17.05 L52.55 14.25 52.15 20.35 47.1 17.05 M40.7 32.6 L35.6 29.25 41.1 26.5 40.7 32.6 M55.15 11.85 L45.7 9.25 52.7 2.35 55.15 11.85 M54.05 26.65 L50.9 35.95 44.4 28.6 54.05 26.65 M55.75 47.25 L50.65 43.85 56.15 41.15 55.75 47.25 M29.3 40.35 L32.6 35.2 35.35 40.65 29.3 40.35 M38.15 38.55 L46.5 43.8 37.85 48.4 38.15 38.55 M43.5 57.05 L38.35 53.7 43.85 50.95 43.5 57.05 M57.75 59.3 L47.95 60 52.25 51.15 57.75 59.3 M19.9 8.5 L18.65 2.5 24.45 4.45 19.9 8.5 M7.75 15.2 L13.9 14.6 11.3 20.15 7.75 15.2 M15 13.65 L24.65 11.7 21.5 21 15 13.65 M33.1 20.65 L27 20.3 30.35 15.2 33.1 20.65 M9.25 10.2 L4.35 1.7 14.15 1.7 9.25 10.2 M17.05 28.85 L8.4 33.45 8.75 23.6 17.05 28.85 M16.9 47.65 L16.15 37.85 25 42.1 16.9 47.65 M27.95 53.5 L31.35 48.4 34.05 53.85 27.95 53.5 M22.8 63.45 L16.25 56.1 25.9 54.15 22.8 63.45 M7.65 39.95 L13.65 38.7 11.7 44.5 7.65 39.95 M8.65 55.6 L14.45 57.55 9.9 61.6 8.65 55.6 M23.65 32.95 L28.25 24.25 33.5 32.6 23.65 32.95"/>
  </g>
</svg>