<svg width="64" height="64" xmlns="http://www.w3.org/2000/svg" xmlns:xlink="http://www.w3.org/1999/xlink">
  <defs/>
  <g>
    <path stroke="none" fill="#000000" d="M64 0.05 L64.05 0.05 64.05 64.05 0.05 64.05 0.05 40.05 8 48 8 40 0.05 32.05 0.05 8.05 8 16 8 8 0.05 0.05 31.95 0.05 24 8 24 16 32 8 40 16 40 8 32.05 0.05 63.95 0.05 56 8 56 16 64 8 64 0.05 M48 16 L40 24 40 32 48 24 56 32 56 24 48 16 M64 32 L56 40 56 48 64 40 64 32 M32 32 L24 40 24 48 32 40 40 48 40 40 32 32 M48 48 L40 56 40 64 48 56 56 64 56 56 48 48 M16 16 L8 24 8 32 16 24 24 32 24 24 16 16 M16 48 L8 56 8 64 16 56 24 64 24 56 16 48"/>
    <path stroke="none" fill="#FFFFFF" d="M16 48 L24 56 24 64 16 56 8 64 8 56 16 48 M0.05 40.05 L0 40 0 32 0.05 32.05 8 40 8 48 0.05 40.05 M0.05 8.05 L0 8 0 0 0.05 0.05 8 8 8 16 0.05 8.05 M31.95 0.05 L32 0 32.05 0.05 40 8 40 16 32 8 24 16 24 8 31.95 0.05 M63.95 0.05 L64 0 64 0.05 64 8 56 16 56 8 63.95 0.05 M48 48 L56 56 56 64 48 56 40 64 40 56 48 48 M32 32 L40 40 40 48 32 40 24 48 24 40 32 32 M64 32 L64 40 56 48 56 40 64 32 M48 16 L56 24 56 32 48 24 40 32 40 24 48 16 M16 16 L24 24 24 32 16 24 8 32 8 24 16 16"/>
  </g>
</svg>